<?xml version="1.0" encoding="UTF-8" standalone="no"?>
<!DOCTYPE svg  PUBLIC '-//W3C//DTD SVG 1.1//EN'  'http://www.w3.org/Graphics/SVG/1.1/DTD/svg11.dtd'>
<svg version="1.1" xmlns="http://www.w3.org/2000/svg">
<defs>
<font id="BerkshireSwash-Regular" horiz-adv-x="948">
<font-face descent="-410" ascent="1638" underline-thickness="102" font-weight="700" font-family="BerkshireSwash" cap-height="1495" bbox="-391 -537 2499 2007" x-height="1038" underline-position="-307" unicode-range="U+0020-FB02" units-per-em="2048" panose-1="2 0 5 5 0 0 0 2 0 3"/>
<missing-glyph horiz-adv-x="1024"/>
<glyph unicode="fi" glyph-name="fi" horiz-adv-x="1192" d="M-10 1024h184v119q0 117 38 196t100 127t140 69t160 21q58 0 116 -9t103 -30t73 -55t28 -86q0 -20 -8 -40t-20 -36q-14 -16 -32 -28q-18 -10 -38 -10q-22 0 -36 16t-26 42q-12 24 -24 54t-28 55t-38 41t-57 17q-28 -1 -54 -11t-46 -36t-32 -72t-12 -115v-229h406 q65 0 101 -18t53 -42q17 -26 21 -55t3 -51v-774q-1 -12 -5 -30t-20 -34t-48 -26t-85 -10t-83 12t-44 30q-14 17 -18 35t-4 29v791q0 27 -14 49t-44 22h-219v-788q1 -136 -35 -251t-108 -199t-180 -130q-108 -47 -252 -47q-51 1 -98 9t-83 23q-35 15 -57 35t-22 46q0 18 5 36 t15 34q10 14 24 24t34 10q12 0 20 -11t17 -27t21 -36t29 -35q19 -16 45 -27t64 -11q51 1 90 21t67 56t47 85t30 105q12 56 16 117t4 122v839h-184v72z"/>
<glyph unicode="fl" glyph-name="fl" horiz-adv-x="1204" d="M174 1024v119q0 117 38 196t100 127t140 69t160 21q46 0 90 -10t84 -33q10 9 24 17t32 13t39 9t43 4q54 0 84 -14t46 -34q15 -21 19 -46t4 -47v-1331q-1 -12 -5 -30t-20 -34t-48 -26q-31 -10 -84 -10t-83 12t-45 30q-14 17 -18 35t-4 29v1229q-18 15 -29 43t-24 54 q-13 27 -33 47t-59 20q-28 -1 -54 -11t-46 -34t-32 -67q-12 -42 -12 -105v-242h199v-72h-199v-788q1 -136 -35 -251t-108 -199t-180 -130q-108 -47 -252 -47q-51 1 -98 9t-83 23q-35 15 -57 35t-22 46q0 18 5 36t15 34q10 14 24 24t34 10q12 0 20 -11t17 -27t21 -36t29 -35 q19 -16 45 -27t64 -11q51 1 90 21t67 56t47 85t30 105q12 56 16 117t4 122v839h-184v72h184z"/>
<glyph glyph-name=".notdef" horiz-adv-x="1024"/>
<glyph glyph-name=".null" horiz-adv-x="0"/>
<glyph glyph-name="nonmarkingreturn" horiz-adv-x="682"/>
<glyph unicode=" " glyph-name="space" horiz-adv-x="461"/>
<glyph unicode="!" glyph-name="exclam" horiz-adv-x="748" d="M213 1395q0 10 4 27q4 18 19 34q16 16 46 28t83 11t85 -11t48 -26q17 -16 22 -32q5 -18 4 -31q-6 -87 -14 -174t-16 -170q-9 -83 -19 -161t-19 -145q-22 -159 -46 -305h-74q-26 146 -50 305q-10 67 -20 145t-21 162q-10 84 -18 170q-8 87 -14 173zM205 152q0 35 13 66 q14 31 36 54q22 22 53 36t66 14t66 -14t54 -36q23 -23 37 -54t13 -66q1 -36 -13 -66t-37 -54q-23 -22 -54 -35t-66 -13t-66 13t-53 35t-36 54q-13 30 -13 66z"/>
<glyph unicode='&quot;' glyph-name="quotedbl" horiz-adv-x="743" d="M602 1028q-2 -16 -10 -26t-18 -14q-11 -4 -23 -6q-12 -1 -21 -1q-8 0 -20 1q-12 2 -23 6t-19 14t-9 26l-37 399q-2 17 6 30t23 21t35 13q20 4 44 4q48 -1 80 -17t29 -51zM285 1028q-1 -16 -9 -26t-19 -14t-23 -6q-12 -1 -21 -1t-21 1q-12 2 -23 6t-19 14t-9 26l-37 399 q-2 17 6 30t23 21t35 13q20 4 45 4t45 -4q20 -5 35 -13t23 -21t6 -30z"/>
<glyph unicode="#" glyph-name="numbersign" horiz-adv-x="952" d="M354 637h189l55 328h-188zM524 524h-188l-68 -399h-108l65 399h-149v113h168l55 328h-156v112h174l62 359h110l-61 -359h188l62 359h110l-61 -359h147v-112h-165l-56 -328h154v-113h-172l-68 -399h-108z"/>
<glyph unicode="$" glyph-name="dollar" horiz-adv-x="1036" d="M395 1202q1 -45 23 -88t59 -86v320q-37 -20 -59 -56t-23 -90zM623 362q1 45 -23 88t-61 87v-365q38 28 61 75t23 115zM578 1374q-10 0 -20 -1t-19 -3v-405q39 -39 83 -79t88 -82t84 -88q40 -44 70 -92t48 -99t18 -107q0 -89 -28 -160q-28 -70 -79 -122t-123 -82t-161 -34 v-296h-62v296q-82 5 -149 33q-66 28 -118 66q-52 37 -88 79t-59 74l33 27q18 -21 46 -49t68 -55q39 -26 88 -44t108 -18q18 -1 36 1t35 7v459q-59 56 -127 116t-124 124t-94 136q-38 70 -38 150t33 140t87 100t122 62q69 21 141 24v184h62v-184q60 -3 115 -18q55 -14 96 -40 q42 -26 66 -62t24 -81q0 -38 -25 -66t-70 -28q-43 0 -65 19t-23 51q1 21 11 33t23 20t23 12q10 6 11 15q0 13 -12 25t-32 22q-21 8 -47 14t-56 6z"/>
<glyph unicode="%" glyph-name="percent" horiz-adv-x="1536" d="M1126 696q-18 0 -37 -8t-35 -42q-16 -33 -24 -98q-10 -65 -10 -177t10 -176q10 -63 24 -95q16 -32 35 -40t37 -7q18 -1 36 7t34 40t26 95q10 64 9 176q1 112 -9 177t-26 98q-16 34 -34 42t-36 8zM1126 -16q-66 0 -127 26t-108 76t-75 121q-28 72 -28 164t28 164t75 122 q47 51 108 77t127 26t128 -26t108 -77q46 -50 74 -122t28 -164t-28 -164q-28 -71 -74 -121t-108 -76t-128 -26zM1141 1497l67 -39l-821 -1474l-68 39zM410 1432q-19 0 -38 -9q-18 -9 -34 -42t-26 -98t-9 -177q-1 -112 9 -176t26 -96t34 -38q19 -8 38 -8q12 0 24 3t24 13 t22 30t18 56t12 88t4 128q0 112 -10 177t-24 98q-16 33 -34 42t-36 9zM410 719q-66 0 -128 26q-62 25 -108 75t-74 122t-28 164t28 164t74 123q46 50 108 76t128 26t127 -26t108 -76q47 -51 75 -123t28 -164t-28 -164t-75 -122t-108 -75q-61 -26 -127 -26z"/>
<glyph unicode="&amp;" glyph-name="ampersand" horiz-adv-x="1462" d="M846 893h-15q-87 -1 -159 -21q-78 -22 -134 -74t-86 -132q-30 -82 -30 -197q0 -45 5 -92t17 -91t33 -82q20 -40 50 -68t70 -45t93 -17q64 0 110 31t76 79t45 108t15 116q0 43 -10 78q-10 34 -30 60t-48 40t-62 14q-38 0 -66 -14t-28 -37q0 -15 16 -21t34 -14t34 -24 t15 -50q-1 -40 -27 -63t-68 -23q-26 0 -46 12t-32 30q-14 18 -21 42t-7 47q0 61 30 99t78 62q48 22 112 34q62 12 127 21t127 19t112 30q48 20 78 53t30 88q0 31 -12 46t-25 21q-17 7 -37 5q-15 1 -26 -3l-20 -8l-20 -8t-22 -4q-24 0 -44 20t-21 62q0 40 15 68t38 46 q22 18 50 26t54 9q52 1 90 -17t64 -46t40 -64q13 -36 13 -71q0 -71 -19 -125t-55 -92q-37 -38 -89 -64t-119 -41q31 -35 48 -87t17 -126q0 -80 -36 -162t-108 -146t-180 -106q-108 -40 -249 -40q-120 0 -221 32q-102 32 -174 96q-72 62 -113 152t-41 205q0 81 22 147t58 117 t84 89q46 38 94 64t94 40t82 20q-14 4 -36 12t-48 24q-26 14 -52 34t-46 49t-34 65q-13 36 -13 82q0 66 29 118t80 90q52 36 120 56t146 19q90 -1 155 -15t107 -40t64 -59q20 -34 20 -72q0 -18 -6 -37t-17 -35q-13 -17 -31 -27t-43 -10q-29 0 -43 16t-19 40t-9 52t-13 51 q-9 24 -29 40t-61 16q-31 0 -59 -17t-50 -48t-34 -74t-12 -94q0 -46 17 -88t51 -74t82 -53q49 -21 114 -27v-47z"/>
<glyph unicode="&apos;" glyph-name="quotesingle" horiz-adv-x="426" d="M285 1028q-1 -16 -9 -26t-19 -14t-23 -6q-12 -1 -21 -1t-21 1q-12 2 -23 6t-19 14t-9 26l-37 399q-2 17 6 30t23 21t35 13q20 4 45 4t45 -4q20 -5 35 -13t23 -21t6 -30z"/>
<glyph unicode="(" glyph-name="parenleft" horiz-adv-x="815" d="M795 -369q-87 24 -173 66q-86 43 -163 103t-143 140t-112 178q-48 98 -75 217t-27 259t27 259t75 217t112 178q66 80 143 140t163 102t173 66v-45q-23 -13 -61 -41t-81 -74t-86 -116t-78 -168t-57 -225q-22 -128 -22 -293q0 -166 22 -294t57 -226t78 -166q43 -70 86 -117 t81 -75t61 -40v-45z"/>
<glyph unicode=")" glyph-name="parenright" horiz-adv-x="815" d="M20 -324q24 12 62 40t80 75t86 117t79 166q35 98 57 226t22 294q0 165 -22 293q-22 127 -57 225t-79 168t-86 116t-80 74t-62 41v45q88 -24 174 -66t162 -102t142 -140t114 -178t74 -217q27 -119 27 -259t-27 -259q-26 -119 -74 -217t-114 -178t-142 -140t-162 -103 q-86 -42 -174 -66v45z"/>
<glyph unicode="*" glyph-name="asterisk" horiz-adv-x="778" d="M446 1239l189 111q17 11 39 -3t39 -53q13 -32 13 -52q0 -7 -2 -13q-6 -22 -26 -31l-223 -63l160 -166q14 -16 6 -40t-43 -50q-36 -28 -59 -28l-1 1q-23 0 -34 18l-115 197l-115 -197q-11 -18 -34 -18l-1 -1q-23 0 -59 28q-35 26 -43 50t6 40l158 166l-221 63 q-20 9 -26 31q-2 6 -2 13q0 20 14 52q16 39 38 53t39 3l189 -111l-25 207q-1 20 19 34t65 15q45 -1 63 -15t17 -34z"/>
<glyph unicode="+" glyph-name="plus" horiz-adv-x="969" d="M123 692h274v275h174v-275h275v-174h-275v-274h-174v274h-274v174z"/>
<glyph unicode="," glyph-name="comma" horiz-adv-x="563" d="M113 -336q61 54 85 117t23 119q1 64 -25 110t-57 80q-14 17 -14 43q0 27 15 57q16 30 40 54q24 25 56 41t67 16q39 1 65 -25t42 -63t23 -79t7 -73q0 -69 -24 -131t-64 -117t-95 -101q-54 -46 -114 -83z"/>
<glyph unicode="-" glyph-name="hyphen" horiz-adv-x="717" d="M102 641h512v-242h-512v242z"/>
<glyph unicode="." glyph-name="period" horiz-adv-x="584" d="M123 152q0 35 13 66q14 31 36 54q22 22 53 36t66 14t66 -14t54 -36q23 -23 37 -54t13 -66q1 -36 -13 -66t-37 -54q-23 -22 -54 -35t-66 -13t-66 13t-53 35t-36 54q-13 30 -13 66z"/>
<glyph unicode="/" glyph-name="slash" horiz-adv-x="748" d="M592 1556l115 -38l-551 -1600l-115 41z"/>
<glyph unicode="0" glyph-name="zero" horiz-adv-x="1169" d="M584 950q-19 0 -40 -5q-22 -5 -42 -21t-38 -46t-32 -78t-22 -120t-9 -172q1 -100 9 -172t22 -119q14 -49 32 -77t38 -43t42 -19q21 -4 40 -4q18 0 40 4t42 19t40 43q18 28 32 77q14 48 22 119t8 172q0 100 -8 172t-22 120t-32 78t-40 46q-20 16 -42 21t-40 5zM584 -16 q-108 0 -202 31t-164 95t-112 164q-40 100 -40 236t40 236t112 164q70 64 164 96t202 32t202 -32t166 -96q70 -64 111 -164t41 -236t-41 -236t-111 -164t-166 -95q-94 -31 -202 -31z"/>
<glyph unicode="1" glyph-name="one" horiz-adv-x="670" d="M530 131q0 -77 -39 -112t-122 -35q-84 0 -123 35t-39 112v668q0 13 -3 27t-11 24t-22 17t-36 7q-20 0 -39 -8t-35 -18q-18 -11 -36 -25l-25 33q124 98 224 140t188 42q52 0 85 -30t33 -97v-780z"/>
<glyph unicode="2" glyph-name="two" horiz-adv-x="932" d="M473 1038q75 0 140 -18t113 -55t74 -95q27 -58 27 -135q-1 -54 -23 -103t-60 -93t-85 -83q-48 -39 -99 -73q-50 -34 -100 -63t-91 -54h336q60 0 86 25t32 78h41q0 -32 -1 -72t-6 -81t-15 -80t-29 -69q-19 -31 -48 -49t-71 -18h-694v57q30 19 78 55t104 84q55 48 111 106 t101 120q46 62 74 124q28 64 28 124q0 43 -12 78q-12 34 -35 60q-25 26 -61 40t-87 14q-47 0 -87 -12t-72 -33q-32 -20 -58 -47t-45 -55l-27 26q22 47 64 99t100 96q59 44 134 73t163 29z"/>
<glyph unicode="3" glyph-name="three" horiz-adv-x="928" d="M438 1038q66 0 128 -20t108 -58t74 -96t28 -135q0 -63 -20 -107t-50 -76q-31 -32 -68 -52t-71 -33v-6q54 -11 114 -39t110 -76q50 -50 83 -124t33 -175q0 -43 -11 -93q-10 -50 -34 -102q-24 -50 -61 -96t-89 -83q-52 -35 -121 -57t-155 -22q-68 0 -124 14t-103 37 q-46 23 -82 53q-35 30 -63 59q-28 30 -48 59t-36 51l30 26q52 -71 118 -108t159 -37q41 0 90 16t91 55t70 101t29 154q1 68 -21 128t-66 104t-109 71q-66 27 -156 30v41q42 0 83 15t74 45q34 30 54 74t20 100q0 40 -10 80t-31 72q-23 32 -57 52t-84 21q-29 1 -53 -7t-44 -21 q-19 -13 -37 -31t-34 -41l-30 24q31 47 69 86q37 39 83 67t100 44t120 16z"/>
<glyph unicode="4" glyph-name="four" horiz-adv-x="1067" d="M524 133v592l-342 -592h342zM524 41h-473v92l465 787q12 19 26 40t34 38q20 16 48 28t68 12q43 0 73 -10q31 -10 49 -26q18 -17 26 -41t8 -52v-776h199v-92h-199v-305q0 -78 -39 -113t-123 -35t-123 35t-39 113v305z"/>
<glyph unicode="5" glyph-name="five" horiz-adv-x="967" d="M858 1079q0 -47 -4 -103t-20 -104t-52 -82q-36 -32 -100 -32h-440l-64 -312q22 18 52 34t64 27q34 13 72 19t80 6q56 0 114 -10t110 -34q53 -22 99 -58t80 -84q33 -50 53 -114t20 -146q0 -120 -37 -212t-101 -156t-149 -97t-182 -33q-99 0 -171 24t-126 60q-52 36 -87 74 q-35 40 -59 72l31 28q19 -25 45 -47t58 -38q32 -15 68 -25q38 -10 81 -10q57 0 109 22t92 65q40 44 62 111q24 67 24 158q0 87 -21 150q-21 62 -57 104t-84 62t-103 20q-42 0 -74 -11t-55 -27q-22 -16 -38 -36q-16 -18 -25 -33l-43 13l139 700h502q96 0 96 55h41z"/>
<glyph unicode="6" glyph-name="six" horiz-adv-x="1102" d="M541 809q-49 0 -79 -13t-50 -28q-4 -38 -4 -78v-80q0 -266 42 -400t119 -134q35 0 61 27t44 75t28 118q10 69 9 153q-1 91 -15 159t-38 112t-54 67q-30 22 -63 22zM756 1448q-88 -47 -150 -110t-101 -141t-60 -169t-29 -194q21 20 47 38t59 33t74 24t92 9q48 0 107 -20 t111 -71t88 -135t36 -212q0 -126 -38 -222t-104 -162q-65 -66 -151 -98q-86 -34 -180 -34q-100 0 -188 38t-154 117q-67 78 -105 195t-38 274q0 98 22 192t65 182q42 88 102 166t134 144t161 115t183 78z"/>
<glyph unicode="7" glyph-name="seven" horiz-adv-x="915" d="M172 758q-44 0 -71 -14t-40 -62h-41q16 97 30 163q14 65 31 105t43 57t66 17h644q42 0 62 -16t19 -43q0 -21 -12 -45q-77 -136 -149 -282t-128 -298q-56 -150 -92 -302q-34 -152 -34 -302q0 -72 -39 -110t-123 -38t-123 35t-39 113q0 96 40 212t108 245t160 271t198 294 h-510z"/>
<glyph unicode="8" glyph-name="eight" horiz-adv-x="1047" d="M426 1249q0 -45 17 -85t47 -78t68 -74t81 -72q21 40 31 78t14 72t4 65v51q0 36 -8 72t-23 66q-16 29 -41 47t-59 18q-30 -1 -54 -13q-23 -12 -41 -34t-27 -51t-9 -62zM668 328q0 64 -22 118t-56 101q-36 47 -82 89t-94 81q-27 -41 -45 -87q-17 -46 -29 -95t-16 -95 t-5 -86q1 -71 15 -124q14 -52 39 -88t59 -54t70 -18q40 0 71 21t52 57t32 82t11 98zM911 1182q1 -85 -47 -157t-153 -144q51 -43 99 -91t87 -103q38 -55 61 -119t23 -140q-1 -109 -39 -192q-38 -82 -103 -138t-150 -84t-179 -30h-7q-115 0 -197 32q-84 34 -138 88t-78 122 t-24 136q0 56 14 109t44 105q32 52 84 101q52 50 130 101q-43 36 -82 76q-38 40 -68 84t-48 95t-17 112q1 90 37 156t96 109t135 64q76 21 154 21q73 0 139 -20t116 -59q50 -40 81 -98q30 -58 30 -136z"/>
<glyph unicode="9" glyph-name="nine" horiz-adv-x="1094" d="M557 227q35 0 65 8t52 19q8 59 11 120t3 126q0 222 -40 336t-116 114q-36 0 -64 -28t-48 -80t-30 -124t-11 -161q1 -95 17 -158t42 -101t56 -55q32 -16 63 -16zM266 -375q87 41 153 97t114 128q47 70 79 153t50 177q-38 -26 -92 -46t-132 -19q-71 -1 -139 29t-121 86 t-85 138t-32 185q0 115 37 205t101 152t148 96q84 32 179 32q101 0 191 -37t158 -111q67 -74 107 -186t40 -262q0 -96 -27 -190t-75 -180t-117 -163q-68 -77 -150 -140t-176 -109t-194 -72z"/>
<glyph unicode=":" glyph-name="colon" horiz-adv-x="645" d="M154 827q0 36 13 67t35 54t54 36q30 13 66 13q35 0 66 -13t54 -36q22 -23 36 -54t14 -67q0 -35 -14 -66t-36 -53q-23 -22 -54 -36q-31 -13 -66 -13q-36 0 -66 13q-30 14 -54 36q-22 22 -35 53t-13 66zM154 152q0 35 13 66t35 54q22 22 54 36q30 14 66 14q35 0 66 -14 t54 -36q22 -23 36 -54t14 -66q0 -36 -14 -66t-36 -54q-23 -22 -54 -35t-66 -13q-36 0 -66 13t-54 35q-22 22 -35 54q-13 30 -13 66z"/>
<glyph unicode=";" glyph-name="semicolon" horiz-adv-x="645" d="M150 -336q30 27 51 57q21 31 33 61t18 60t6 58q0 64 -26 110t-56 80q-14 17 -14 43q0 27 15 57t39 54q24 25 57 41q32 16 67 16q38 1 64 -25t43 -63q16 -37 23 -79t7 -73q0 -69 -24 -131q-25 -62 -65 -117t-94 -101t-114 -83zM154 827q0 36 13 67t35 54t54 36 q30 13 66 13q35 0 66 -13t54 -36q22 -23 36 -54t14 -67q0 -35 -14 -66t-36 -53q-23 -22 -54 -36q-31 -13 -66 -13q-36 0 -66 13q-30 14 -54 36q-22 22 -35 53t-13 66z"/>
<glyph unicode="&lt;" glyph-name="less" horiz-adv-x="969" d="M123 662l631 387l88 -148l-486 -293l486 -293l-88 -147l-631 383v111z"/>
<glyph unicode="=" glyph-name="equal" horiz-adv-x="969" d="M143 522h682v-174h-682v174zM143 862h682v-174h-682v174z"/>
<glyph unicode="&gt;" glyph-name="greater" horiz-adv-x="969" d="M846 551l-631 -383l-88 147l485 293l-485 293l88 148l631 -387v-111z"/>
<glyph unicode="?" glyph-name="question" horiz-adv-x="1118" d="M330 152q0 35 13 66t35 54q22 22 54 36q30 14 66 14q35 0 66 -14t54 -36q22 -23 36 -54t14 -66q0 -36 -14 -66t-36 -54q-23 -22 -54 -35t-66 -13q-36 0 -66 13t-54 35q-22 22 -35 54q-13 30 -13 66zM455 1405q-50 -1 -93 -19t-75 -49t-50 -70t-18 -79q0 -30 8 -46t19 -24 q12 -8 22 -12q10 -2 15 -2q23 0 38 8t27 16t22 16t25 7q11 -1 23 -5t24 -14q11 -10 18 -28t7 -43q1 -31 -15 -55t-40 -42t-56 -27q-30 -9 -59 -9q-91 0 -143 58t-52 167q0 87 36 151t98 108q60 42 138 62t161 21q97 0 177 -26q80 -25 138 -73t92 -115q33 -67 33 -148 q0 -89 -30 -155q-31 -66 -77 -118t-101 -96t-105 -90t-90 -96q-38 -52 -50 -119h-80q0 62 16 116q16 55 40 105t50 100q28 50 52 105t39 117q16 62 16 139q1 59 -11 107t-36 84q-24 35 -63 54q-38 19 -90 19z"/>
<glyph unicode="@" glyph-name="at" horiz-adv-x="1876" d="M971 1153q84 0 149 -15q66 -16 110 -48t68 -84t23 -125v-519q0 -33 6 -53q5 -21 15 -31t23 -13t28 -3q57 0 111 33t94 93q42 60 67 148q25 86 25 193q0 150 -46 272q-46 123 -135 209t-223 132t-309 47q-142 0 -273 -51q-132 -52 -232 -148t-160 -235t-60 -316 q0 -178 58 -318q58 -141 158 -237q99 -96 229 -146t274 -51q41 0 83 3t82 9q40 5 73 15q34 10 57 23l32 -54q-34 -19 -74 -31t-86 -20t-94 -12t-96 -4q-118 0 -226 28t-203 80q-94 52 -171 126q-78 74 -132 166t-84 198q-30 107 -30 225q0 123 30 235t86 207t134 172 t176 131q96 54 208 82q112 29 235 29q182 0 330 -53q148 -52 253 -152q104 -100 162 -242t58 -319q0 -117 -28 -217t-82 -174q-56 -72 -139 -114t-194 -42q-110 0 -172 48t-82 130q-51 -77 -129 -117t-160 -40q-44 -1 -86 13t-74 44t-53 77q-20 47 -20 114q1 81 33 134 t86 89t124 63q70 26 142 54q54 21 76 57t22 76q0 69 -37 112t-106 43q-33 0 -59 -7t-45 -18t-30 -24t-11 -24q0 -14 14 -20t32 -14t32 -22t14 -43q0 -18 -8 -34t-22 -28t-31 -19q-18 -7 -38 -7q-51 0 -83 34t-31 91q0 54 31 94t80 66t110 37q61 12 121 12zM1038 686 q0 22 -15 34t-38 11q-33 -1 -61 -15t-50 -42t-36 -69q-13 -41 -13 -95q0 -51 8 -85q7 -35 21 -55t32 -28t36 -8q24 0 45 12t37 30t24 42q10 24 10 49v219z"/>
<glyph unicode="A" glyph-name="A" horiz-adv-x="1528" d="M750 1098q-41 -167 -79.5 -314t-76.5 -274h326zM944 422h-377q-42 -132 -90.5 -229t-107.5 -161t-129.5 -95t-157.5 -31q-48 0 -92.5 8.5t-78.5 23.5t-54.5 35.5t-20.5 44.5q0 18 5.5 36.5t15.5 34t24.5 25t32.5 9.5q16 0 28 -22t30.5 -48.5t47.5 -48.5t80 -22 q52 0 99 25t90.5 78.5t83.5 136.5t78 200h-236v88h262q33 112 64.5 226t59.5 219t50 196.5t37 159.5q-20 56 -54.5 75t-92.5 19q-54 0 -111.5 -16.5t-104.5 -47t-77.5 -75t-30.5 -99.5q0 -32 8.5 -51t20 -28.5t22.5 -12t17 -2.5q24 0 40.5 8.5t29 18t24.5 18t27 8.5 q11 0 24.5 -5.5t25 -17.5t19.5 -31.5t8 -47.5q0 -40 -15.5 -69t-40 -48.5t-56 -29t-62.5 -9.5q-48 0 -86.5 17.5t-65.5 47.5t-41 70t-14 84q0 66 22 121.5t61 101t92 80t114.5 58t128.5 35.5t135 12q96 0 162.5 -15.5t111.5 -46t72.5 -77t45.5 -107.5l215 -739h217v-88h-193 l78 -262q4 -15 8 -28t9.5 -22.5t14 -15.5t21.5 -6q28 0 52 9.5t42 19.5l17 -37q-18 -13 -45.5 -29.5t-63 -31.5t-78.5 -25t-92 -10q-68 0 -109.5 17t-65 42t-34 53t-16.5 49z"/>
<glyph unicode="B" glyph-name="B" horiz-adv-x="1608" d="M862 1495q290 -1 426 -91t137 -263q1 -43 -9 -79t-25 -66t-34 -52q-19 -23 -39 -40q-47 -41 -106 -64v-15q93 -11 167 -56q31 -19 61 -47t54 -70q24 -40 38 -94t14 -122q0 -105 -38 -189q-38 -85 -113 -143t-187 -89t-260 -31q-137 0 -223 17t-134 49q-47 32 -65 79 q-18 46 -18 104v1094q0 55 -76 55q-56 0 -112 -16t-102 -46q-46 -28 -74 -68q-29 -40 -29 -85q1 -32 9 -51q8 -18 19 -28t23 -12t16 -3q25 1 41 9t29 18q12 10 24 18t27 8q11 0 25 -6t26 -17t19 -31q8 -20 8 -48q1 -40 -15 -69t-40 -49t-56 -28q-32 -10 -63 -10 q-49 0 -87 16t-65 46q-27 29 -41 68t-14 83q0 83 31 147t87 109q56 47 136 77q79 30 175 48q95 18 205 26t228 7zM842 178q0 -24 4 -44t18 -35t38 -24t61 -9q55 0 101 32t79 80q33 50 51 112t18 122q0 90 -24 160t-69 118q-44 48 -104 74t-130 31l20 51h11q38 0 73 12 q41 14 71 49t48 95t18 149q0 61 -15 110t-39 83t-58 51q-32 18 -66 18q-20 0 -40 -5t-34 -17q-14 -11 -24 -31q-8 -20 -8 -49v-1133z"/>
<glyph unicode="C" glyph-name="C" horiz-adv-x="1116" d="M768 1409q-27 0 -63 -11t-73.5 -41.5t-73.5 -85.5t-64.5 -142.5t-46 -212.5t-17.5 -295q0 -162 17.5 -281t47 -202.5t67.5 -136.5t80 -82.5t84 -40.5t79 -11q39 0 79 10t78.5 29t74 46t65.5 62l45 -45q-30 -37 -72 -75.5t-97.5 -70t-124.5 -51.5t-153 -20 q-131 0 -243.5 50t-196 155.5t-131 270.5t-47.5 395q0 216 50 379t136 272.5t202 165t247 55.5q87 0 158.5 -16.5t123.5 -48t80.5 -78t28.5 -105.5q0 -27 -9 -56.5t-27.5 -54t-45.5 -40t-63 -15.5q-32 0 -49.5 14t-26 37t-11 52.5t-3.5 60.5t-4.5 60.5t-14 52.5t-30.5 37 t-56 14z"/>
<glyph unicode="D" glyph-name="D" horiz-adv-x="1694" d="M817 190q0 -57 25.5 -81.5t75.5 -24.5q75 0 138.5 33t109.5 113.5t72 214.5t26 337q0 136 -16.5 235.5t-43.5 169t-61.5 113t-70.5 68t-70.5 33t-61.5 8.5q-65 0 -94 -29t-29 -104v-1086zM487 1319q0 32 -23.5 47.5t-51.5 15.5q-56 0 -109 -16.5t-95 -45t-67.5 -68 t-25.5 -85.5q0 -32 8.5 -51t19.5 -28.5t22.5 -12t16.5 -2.5q25 0 41 8.5t29 18t24.5 18t26.5 8.5q12 0 25.5 -5.5t25 -17.5t19.5 -31.5t8 -47.5q0 -40 -15.5 -69t-40 -48.5t-56 -29t-62.5 -9.5q-48 0 -86.5 16.5t-65.5 45.5t-41 68t-14 83q0 125 63 205.5t171.5 127t253 64 t307.5 17.5q186 0 336.5 -37.5t257.5 -121.5t165 -219.5t58 -330.5t-61.5 -346t-168 -253.5t-250 -156t-307.5 -53.5q-109 0 -175.5 10.5t-102.5 36t-48 68t-12 107.5v1120z"/>
<glyph unicode="E" glyph-name="E" horiz-adv-x="1415" d="M0 1061q0 117 64.5 199t176.5 134.5t261 76.5t319 24q81 0 158 -1.5t140.5 -4.5t109.5 -7t67 -9q20 -5 32 -11t18 -14t8 -18.5t2 -24.5q0 -12 -3 -26.5t-9 -27t-15 -21.5t-22 -9q-8 0 -17.5 7t-27 18t-47 23t-79 23t-123 18t-177.5 7v-641h415v-88h-415v-391 q0 -47 14 -80.5t40 -55.5t62.5 -32t81.5 -10q51 0 102 10.5t96.5 26.5t83 36t60.5 39l39 -43q-25 -20 -67 -54.5t-102.5 -67.5t-141 -57.5t-182.5 -24.5q-34 0 -77.5 3.5t-89.5 14t-90.5 31t-79 54.5t-56 83.5t-21.5 118.5v399h-156v88h156v629q-32 -3 -73.5 -11.5t-85 -24 t-85.5 -36.5t-75 -49t-53.5 -62.5t-20.5 -74.5q0 -32 8.5 -51t19.5 -28.5t22.5 -12t16.5 -2.5q25 0 41 8.5t29 18t24.5 18t26.5 8.5q12 0 25.5 -5.5t25 -17.5t19.5 -31.5t8 -47.5q0 -40 -15.5 -69.5t-40 -48.5t-56 -28.5t-62.5 -9.5q-48 0 -86.5 16.5t-65.5 45.5t-41 67.5 t-14 83.5z"/>
<glyph unicode="F" glyph-name="F" horiz-adv-x="1296" d="M1231 688h-395v-557q0 -77 -40 -112t-124 -35t-124 35t-40 112v557h-156v88h156v629q-32 -3 -74 -11t-84 -24q-44 -16 -86 -37t-75 -49t-53 -62t-21 -75q1 -32 9 -51q8 -18 19 -28t23 -12t16 -3q25 1 41 9t29 18q12 10 24 18t27 8q11 0 25 -6t26 -17t19 -31q8 -20 8 -48 q1 -40 -15 -70t-40 -48t-56 -28t-63 -10q-49 0 -87 16t-65 46t-41 68t-14 83q0 117 64 199t177 134q112 52 261 77q149 24 319 24q69 1 144 -1t141 -5t118 -7q51 -4 72 -9q20 -5 32 -11t18 -14t8 -18t2 -25q0 -13 -3 -27t-9 -26t-15 -22q-9 -9 -22 -9q-7 0 -17 7t-28 18 t-46 23q-30 12 -80 23t-122 18q-74 7 -178 7v-641h395v-88z"/>
<glyph unicode="G" glyph-name="G" horiz-adv-x="1366" d="M1346 616h-144v-587q0 -136 -46 -237.5t-128.5 -169t-195.5 -101t-246 -33.5q-51 0 -98 8.5t-83 23.5t-57.5 35.5t-21.5 45.5q0 18 5 36.5t15 33.5t24.5 24.5t32.5 9.5q12 0 20 -11t17 -27t21 -35.5t30 -35.5t44 -27t65 -11q77 0 136 28t98.5 78.5t60 121t20.5 155.5v61 q-42 -9 -84.5 -13.5t-95.5 -4.5q-136 0 -255 41.5t-207.5 128.5t-139.5 222t-51 322q0 130 28 240t78 198.5t118.5 155.5t149 112t170 68t181.5 23q87 0 162 -16.5t130.5 -48t87.5 -78t32 -105.5q0 -27 -9.5 -56.5t-27.5 -54t-45.5 -40t-63.5 -15.5q-43 0 -63.5 24.5 t-31 60.5t-15.5 79t-17 79t-36.5 60.5t-71.5 24.5q-35 0 -79 -17t-89 -53.5t-88.5 -93t-77 -135.5t-54 -181.5t-20.5 -230.5q0 -142 18 -242.5t47.5 -168t68 -107t79.5 -59.5t81.5 -25.5t74.5 -5.5q35 0 64 5.5t52 15.5v505h-176v89h607v-89z"/>
<glyph unicode="H" glyph-name="H" horiz-adv-x="1776" d="M326 766h182v569q0 22 -5 35t-14 20.5t-21.5 10t-27.5 2.5q-22 0 -54.5 -7t-68.5 -21t-72.5 -34.5t-65 -46.5t-46.5 -58t-18 -69q0 -32 8.5 -51t19.5 -28.5t22.5 -12t16.5 -2.5q25 0 41 8.5t29 18t24.5 18t26.5 8.5q12 0 25.5 -5.5t25 -17.5t19.5 -31.5t8 -47.5 q0 -40 -15.5 -69t-40 -48.5t-56 -29t-62.5 -9.5q-48 0 -86.5 16.5t-65.5 45.5t-41 68t-14 83q0 69 25 126.5t68.5 103.5t102 80.5t126.5 57.5t142 34.5t148 11.5q82 0 127.5 -15.5t67 -37.5t25.5 -46t4 -40v-590h368v481q0 165 43 281t111 189.5t152 107t167 33.5 q57 0 108.5 -8.5t90 -25.5t61.5 -42.5t23 -59.5q0 -15 -4.5 -28.5t-12.5 -24.5t-18.5 -17.5t-21.5 -6.5q-18 0 -32 11t-26.5 27.5t-24.5 36t-27 36t-34 27.5t-45 11q-61 0 -97 -33.5t-55 -98t-24.5 -160.5t-5.5 -220v-516h201v-88h-201v-608q0 -29 12.5 -46.5t38.5 -17.5 q28 0 52 10t42 19l17 -37q-22 -15 -51.5 -31.5t-65 -31t-76 -24t-84.5 -9.5q-68 0 -110 18t-65 47.5t-30.5 66.5t-7.5 75v569h-368v-498q0 -136 -49.5 -237t-135.5 -168.5t-202.5 -101t-249.5 -33.5q-51 0 -98 8.5t-83 23.5t-57.5 35.5t-21.5 44.5q0 18 5 36.5t15 33.5 t24.5 25t32.5 10q11 0 19.5 -11t17.5 -27.5t20.5 -35.5t30 -35.5t44.5 -27.5t65 -11q77 0 132.5 28t91.5 79t53.5 121.5t17.5 154.5v586h-182v88z"/>
<glyph unicode="I" glyph-name="I" horiz-adv-x="987" d="M836 131q0 -77 -40.5 -112t-123.5 -35q-84 0 -124 35t-40 112v1204q0 22 -5 35t-14 20.5t-21.5 10t-27.5 2.5q-22 0 -54.5 -7t-68.5 -21t-72.5 -34.5t-65 -46.5t-46.5 -58t-18 -69q0 -32 8.5 -51t19.5 -28.5t22.5 -12t16.5 -2.5q25 0 41 8.5t29 18t24.5 18t26.5 8.5 q12 0 25.5 -5.5t25 -17.5t19.5 -31.5t8 -47.5q0 -40 -15.5 -69t-40 -48.5t-56 -29t-62.5 -9.5q-48 0 -86.5 16.5t-65.5 45.5t-41 68t-14 83q0 69 25 126.5t68.5 103.5t102 80.5t126.5 57.5t142 34.5t148 11.5q82 0 127.5 -15.5t67 -37.5t25.5 -46t4 -40v-1225z"/>
<glyph unicode="J" glyph-name="J" horiz-adv-x="987" d="M836 180q0 -136 -49.5 -237t-135.5 -168.5t-202.5 -101t-249.5 -33.5q-51 0 -98 8.5t-83 23.5t-57.5 35.5t-21.5 44.5q0 18 5 36.5t15 33.5t24.5 25t32.5 10q11 0 19.5 -11t17.5 -27.5t20.5 -35.5t30 -35.5t44.5 -27.5t65 -11q77 0 132.5 28t91.5 79t53.5 121.5 t17.5 154.5v1243q0 22 -5 35t-14 20.5t-21.5 10t-27.5 2.5q-22 0 -54.5 -7t-68.5 -21t-72.5 -34.5t-65 -46.5t-46.5 -58t-18 -69q0 -32 8.5 -51t19.5 -28.5t22.5 -12t16.5 -2.5q25 0 41 8.5t29 18t24.5 18t26.5 8.5q12 0 25.5 -5.5t25 -17.5t19.5 -31.5t8 -47.5 q0 -40 -15.5 -69t-40 -48.5t-56 -29t-62.5 -9.5q-48 0 -86.5 16.5t-65.5 45.5t-41 68t-14 83q0 69 25 126.5t68.5 103.5t102 80.5t126.5 57.5t142 34.5t148 11.5q82 0 127.5 -15.5t67 -37.5t25.5 -46t4 -40v-1176z"/>
<glyph unicode="K" glyph-name="K" horiz-adv-x="1675" d="M836 899q89 128 162.5 227t135.5 172.5t115.5 123.5t104 80.5t100.5 43.5t105 13q131 0 131 -84q0 -11 -2 -26t-7.5 -29t-15.5 -24t-25 -10q-11 0 -25.5 11t-33.5 24.5t-44 25t-56 11.5q-34 0 -77.5 -28t-94 -76t-105 -111.5t-110.5 -134.5q150 -342 264.5 -593 t209 -415.5t174.5 -244.5t161 -80q14 0 28 4t25 9q13 5 26 13l21 -39q-17 -10 -46.5 -24t-70 -26.5t-89.5 -21.5t-105 -9q-77 0 -143 24t-128.5 77.5t-123 140t-126 211.5t-138.5 291t-159 380l-38 -57v-617q0 -77 -40.5 -112t-123.5 -35q-84 0 -124 35t-40 112v1204 q0 22 -5 35t-14 20.5t-21.5 10t-27.5 2.5q-22 0 -54.5 -7t-68.5 -21t-72.5 -34.5t-65 -46.5t-46.5 -58t-18 -69q0 -32 8.5 -51t19.5 -28.5t22.5 -12t16.5 -2.5q25 0 41 8.5t29 18t24.5 18t26.5 8.5q12 0 25.5 -5.5t25 -17.5t19.5 -31.5t8 -47.5q0 -40 -15.5 -69t-40 -48.5 t-56 -29t-62.5 -9.5q-48 0 -86.5 16.5t-65.5 45.5t-41 68t-14 83q0 69 25 126.5t68.5 103.5t102 80.5t126.5 57.5t142 34.5t148 11.5q82 0 127.5 -15.5t67 -37.5t25.5 -46t4 -40v-457z"/>
<glyph unicode="L" glyph-name="L" horiz-adv-x="1341" d="M836 227q0 -43 10.5 -69.5t30.5 -41.5t50.5 -20.5t71.5 -5.5q66 0 119 13.5t93 30t67.5 30.5t42.5 14q19 0 30 -12t11 -35q0 -40 -8 -57.5t-33 -26.5q-91 -32 -205 -47.5t-258 -15.5q-107 0 -175 9.5t-107 33.5t-53.5 65.5t-14.5 106.5v1136q0 22 -5 35t-14 20.5 t-21.5 10t-27.5 2.5q-22 0 -54.5 -7t-68.5 -21t-72.5 -34.5t-65 -46.5t-46.5 -58t-18 -69q0 -32 8.5 -51t19.5 -28.5t22.5 -12t16.5 -2.5q25 0 41 8.5t29 18t24.5 18t26.5 8.5q12 0 25.5 -5.5t25 -17.5t19.5 -31.5t8 -47.5q0 -40 -15.5 -69t-40 -48.5t-56 -29t-62.5 -9.5 q-48 0 -86.5 16.5t-65.5 45.5t-41 68t-14 83q0 69 25 126.5t68.5 103.5t102 80.5t126.5 57.5t142 34.5t148 11.5q82 0 127.5 -15.5t67 -37.5t25.5 -46t4 -40v-1129z"/>
<glyph unicode="M" glyph-name="M" horiz-adv-x="2054" d="M1030 358l-360 717l-13 -241q-7 -104 -11 -208t-16 -198t-38 -173q-26 -81 -74 -139t-126 -91t-193 -33q-51 0 -98 8t-83 24t-58 36t-21 44q0 18 5 36t15 34q11 16 25 26t32 9q12 0 20 -11q8 -12 17 -28t21 -35t30 -35t44 -28q26 -11 65 -11q77 1 129 27t87 76 q34 50 52 121t27 161q4 50 8 96t8 93q4 45 8 93t7 101q5 77 9 147t6 129q2 60 4 108t3 83q-17 34 -30 56t-27 34t-31 15q-17 4 -41 4q-20 1 -50 -7t-60 -22q-32 -14 -64 -34t-56 -48q-24 -26 -40 -58t-15 -69q1 -32 9 -51q8 -18 20 -28t22 -12q12 -2 17 -3q25 1 41 9t29 18 t25 18t26 8q12 0 26 -6t24 -17q12 -11 20 -31t8 -48q0 -40 -16 -69t-40 -49t-56 -28q-32 -10 -62 -10q-48 0 -86 16t-66 46q-27 29 -41 68t-14 83q0 103 48 181t126 130q79 52 177 78t200 25q82 -1 137 -17t92 -44t61 -64q24 -37 44 -78l264 -536q104 204 188 364t156 282 t134 208t122 140q58 54 116 80q58 25 119 25q53 -1 86 -23t33 -67q0 -40 -13 -66t-36 -26q-19 1 -29 15t-20 31t-23 31q-14 14 -41 15q-16 0 -39 -9t-47 -27t-49 -45q-24 -27 -42 -63t-28 -82q-7 -33 -7 -70q0 -15 1 -31q4 -64 11 -148q8 -84 16 -180t18 -200 q10 -103 19 -203t19 -192q10 -93 18 -167t15 -126t11 -70q6 -28 16 -46t36 -18q27 0 51 10t43 19l16 -37q-18 -14 -46 -30t-62 -31q-36 -15 -78 -25t-92 -10q-69 0 -109 18q-39 18 -61 42q-22 26 -30 54t-11 52q-9 51 -19 123q-10 73 -20 155t-18 170t-16 170q-8 84 -14 158 t-10 129q-30 -49 -56 -95t-49 -92q-24 -48 -49 -100q-24 -52 -52 -113t-60 -134t-72 -163h-98z"/>
<glyph unicode="N" glyph-name="N" horiz-adv-x="1669" d="M496 961q0 91 -1.5 167t-3 132.5t-3 89.5t-1.5 39q-20 14 -45.5 15t-50.5 1q-35 0 -84 -16.5t-95 -47t-78 -75t-32 -99.5q0 -32 8.5 -51t20 -28.5t23 -12t16.5 -2.5q25 0 41 8.5t29 18t24.5 18t26.5 8.5q12 0 25.5 -5.5t25 -17.5t19.5 -31.5t8 -47.5q0 -40 -15.5 -69 t-40 -48.5t-56 -29t-62.5 -9.5q-48 0 -86.5 16.5t-65.5 45.5t-41 68t-14 83q0 104 43.5 181.5t116 129.5t167 77.5t195.5 25.5q91 0 150 -12t96 -32t58 -47.5t36 -57.5q61 -124 118.5 -244t111 -234t104 -219.5t98.5 -199.5v143v309q0 83 4.5 162.5t19 150t43.5 129.5 t77.5 102t120.5 67t173 24q51 0 94 -7.5t74.5 -21.5t49.5 -34.5t18 -45.5q0 -16 -4.5 -33.5t-13.5 -31.5t-22.5 -23.5t-31.5 -9.5q-15 0 -27.5 21t-31 46.5t-49 46.5t-82.5 21q-81 0 -134.5 -28.5t-86.5 -80.5t-48.5 -126.5t-19.5 -165.5q-2 -63 -3.5 -122.5t-2 -120.5 t-0.5 -126.5v-140.5q0 -106 1 -190t3 -138q45 -77 89 -138.5t86.5 -104t85.5 -65.5t87 -23q14 0 27 4t23 9q11 5 22 13l32 -39q-14 -10 -39.5 -24t-62 -27t-83.5 -22t-103 -9q-81 0 -155.5 39.5t-143.5 108.5t-132 161.5t-121.5 198.5t-112.5 221t-104.5 227.5t-97 218 t-90.5 193.5q0 -58 1 -120t1 -125v-310q0 -83 -4 -162t-19 -149.5t-43.5 -130t-77.5 -102.5t-121 -67t-173 -24q-51 0 -94 7.5t-74.5 21.5t-49 34t-17.5 46q0 16 4.5 33.5t13.5 31.5t22 23.5t31 9.5q10 0 18.5 -10t18 -25t22 -32.5t30 -32.5t42.5 -25t60 -10 q81 0 134.5 28.5t86.5 81t48 126.5t19 166q3 63 4 122t2 120t1 127v141z"/>
<glyph unicode="O" glyph-name="O" horiz-adv-x="1473" d="M645 1178q0 -35 11 -57.5t27.5 -38t35.5 -25.5t35.5 -21t27.5 -25t11 -36q0 -37 -26 -56.5t-60 -19.5q-32 0 -59.5 20t-48 54.5t-32.5 81t-12 98.5q0 64 20 122.5t59 103t96.5 70.5t131.5 26q50 0 109 -16.5t117.5 -52.5t113 -93t97 -139t67.5 -190t25 -245 q0 -177 -52.5 -317t-142 -237.5t-207.5 -149t-250 -51.5q-131 0 -250 45t-209.5 137.5t-144 235t-53.5 337.5q0 151 40.5 275t109 220t159.5 161.5t193 99.5l34 -43q-29 -29 -54 -60t-46 -70.5t-37.5 -91t-27.5 -121t-17 -160.5t-6 -210q0 -154 16.5 -263t43 -182.5t60 -117 t67.5 -65.5t66 -28.5t56 -6.5t55.5 6.5t65 28.5t66.5 65.5t58.5 117t41.5 182.5t16 263q0 135 -12 235t-31.5 171t-45 116.5t-53 72t-55 36.5t-50.5 10q-36 0 -64 -17t-47 -45.5t-29 -65t-10 -74.5z"/>
<glyph unicode="P" glyph-name="P" horiz-adv-x="1462" d="M836 131q0 -77 -40 -112t-124 -35t-124 35t-40 112v1196q0 55 -76 55q-56 0 -112 -16t-102 -46q-46 -28 -74 -68q-29 -40 -29 -85q1 -32 9 -51q8 -18 19 -28t23 -12t16 -3q25 1 41 9t29 18q12 10 24 18t27 8q11 0 25 -6t26 -17t19 -31q8 -20 8 -48q1 -40 -15 -69t-40 -49 t-56 -28q-32 -10 -63 -10q-49 0 -87 16t-65 46q-27 29 -41 68t-14 83q0 83 31 147t87 109q56 47 136 77q79 30 175 48q95 18 205 26t228 7q286 1 433 -109t147 -315q0 -100 -26 -177q-26 -76 -72 -132q-44 -56 -102 -90t-120 -50q-52 -12 -104 -12h-20q-62 3 -117 23l14 43 q39 -12 70 -12q29 0 53 10q48 22 76 77t38 139t11 185q0 77 -16 139q-15 62 -43 106t-64 68t-78 25q-32 1 -52 -9t-32 -24t-16 -32q-4 -16 -6 -31v-1186z"/>
<glyph unicode="Q" glyph-name="Q" horiz-adv-x="1466" d="M733 1415q-23 1 -55 -7t-66 -32t-66 -70q-32 -45 -58 -120q-26 -74 -42 -184t-16 -263t16 -261t42 -182t58 -116q32 -44 66 -66t66 -30q32 -6 55 -6t55 6t66 30q34 22 66 66t58 116q26 74 42 182t16 261t-16 263t-42 184q-26 75 -58 120q-32 46 -66 70t-66 32t-55 7z M733 -16q-15 0 -30 1t-29 3q56 -14 124 -42t139 -61t145 -67t142 -62t125 -46q58 -18 101 -17q38 1 64 9t44 20q16 12 24 28t11 31l31 -6q-4 -57 -22 -109t-50 -92t-79 -62q-47 -24 -111 -24q-54 0 -127 26t-155 64t-170 84q-86 46 -168 84t-152 64q-71 26 -123 26 q-61 0 -84 -51l-31 10q1 11 7 31q5 20 17 42t30 46t42 42t58 30q32 12 74 14q-105 23 -196 79q-91 55 -158 147q-68 92 -106 220t-38 293q0 195 52 337t142 236q90 93 208 138t249 45t249 -45t208 -138q90 -94 142 -236t52 -337t-52 -337t-142 -236q-90 -92 -208 -137 t-249 -45z"/>
<glyph unicode="R" glyph-name="R" horiz-adv-x="1618" d="M862 1495q272 0 415.5 -96.5t143.5 -276.5q0 -88 -20.5 -150.5t-57 -106t-87 -72t-109.5 -48.5q41 -11 82.5 -59t84.5 -118.5t87 -156.5t88.5 -174t90 -171t91 -148t92 -104t92.5 -39q20 0 39.5 8t30.5 16l21 -39q-20 -11 -49 -24.5t-68 -25.5t-87.5 -20.5t-107.5 -8.5 q-97 0 -175 53.5t-134 150.5q-57 100 -112 210t-109.5 220t-109 215t-109.5 197l8 41q24 -6 45 -6q32 0 58 13q44 22 71.5 71.5t41 121.5t13.5 156q0 60 -13 112.5t-36.5 92t-56.5 62t-74 22.5q-32 0 -52.5 -9.5t-32.5 -24t-16.5 -31t-4.5 -31.5v-1186q0 -77 -40.5 -112 t-123.5 -35q-84 0 -124 35t-40 112v1196q0 55 -76 55q-55 0 -111.5 -16.5t-102 -45t-74.5 -68t-29 -85.5q0 -32 8.5 -51t19.5 -28.5t22.5 -12t16.5 -2.5q25 0 41 8.5t29 18t24.5 18t26.5 8.5q12 0 25.5 -5.5t25 -17.5t19.5 -31.5t8 -47.5q0 -40 -15.5 -69t-40 -48.5t-56 -29 t-62.5 -9.5q-48 0 -86.5 16.5t-65.5 45.5t-41 68t-14 83q0 83 31 146.5t87.5 109.5t135.5 76.5t175 48.5t205.5 25.5t227.5 7.5z"/>
<glyph unicode="S" glyph-name="S" horiz-adv-x="1053" d="M436 -145q40 0 79 14.5t69.5 48t49.5 87.5t19 132q0 84 -41.5 163t-104 155.5t-135 152t-135 154t-104 162t-41.5 174.5t33.5 164.5t91 125t134 79.5t163.5 28q93 0 165.5 -19.5t123 -53t76.5 -79t26 -96.5q0 -24 -7 -49.5t-22 -46.5t-38 -35t-54 -14q-37 0 -54.5 22.5 t-26 55.5t-14.5 72.5t-19 72.5t-39 55.5t-76 22.5q-27 0 -53.5 -12t-48 -36.5t-34.5 -62.5t-13 -90q0 -60 25 -117t66 -112.5t93.5 -111t107 -112t107 -116t93.5 -123.5t66 -134t25 -147q0 -113 -43.5 -201.5t-118 -149t-174.5 -92.5t-213 -32q-102 0 -180.5 25.5 t-132.5 67.5t-81.5 95.5t-27.5 110.5q0 24 7.5 51.5t22 50.5t36.5 38.5t51 15.5q30 0 48.5 -15t29.5 -40t18 -57t15 -65t20 -65t33 -57t54 -40t83 -15z"/>
<glyph unicode="T" glyph-name="T" horiz-adv-x="1192" d="M748 -16q-84 0 -124 35t-40 112v1270q-32 -3 -79.5 -11.5t-99.5 -24.5t-104 -38.5t-93 -52t-67 -66.5t-26 -82q0 -32 8.5 -51t19.5 -28.5t22.5 -12t16.5 -2.5q25 0 41 8.5t29 18t24.5 18t26.5 8.5q12 0 25.5 -5.5t25 -17.5t19.5 -31.5t8 -47.5q0 -40 -15.5 -69t-40 -48.5 t-56 -29t-62.5 -9.5q-48 0 -86.5 16.5t-65.5 45.5t-41 68t-14 83q0 117 64.5 202.5t176.5 142t261 83.5t319 27q81 0 158 -1.5t140.5 -4.5t109.5 -7t67 -9q20 -5 32 -14.5t18 -21.5t8 -25.5t2 -27.5q0 -11 -3 -25.5t-9 -27.5t-15 -22t-22 -9q-8 0 -16.5 7t-23.5 17t-40.5 23 t-67 24t-102 20t-146.5 12v-1272q0 -77 -40 -112t-123 -35z"/>
<glyph unicode="U" glyph-name="U" horiz-adv-x="1716" d="M1411 -16q-51 0 -84 9.5t-53.5 25.5t-30.5 35.5t-14 39.5q-63 -46 -145 -78t-185 -32q-92 0 -170.5 26t-137 80.5t-91.5 140t-33 205.5q0 88 3 158t7.5 131.5t10 118.5t10 119t7.5 133t3 161q0 28 -5.5 53.5t-18 45t-34.5 31.5t-55 12q-32 0 -80 -15.5t-92.5 -45t-76 -73 t-31.5 -98.5q0 -32 8.5 -51t19.5 -28.5t22.5 -12t16.5 -2.5q25 0 41 8.5t29 18t24.5 18t26.5 8.5q12 0 25.5 -5.5t25 -17.5t19.5 -31.5t8 -47.5q0 -40 -15.5 -69t-40 -48.5t-56 -29t-62.5 -9.5q-48 0 -86.5 16.5t-65.5 45.5t-41 68t-14 83q0 69 23 126.5t63 103.5t92.5 80.5 t112.5 57.5t123 34.5t123 11.5q69 0 117.5 -14.5t82 -37.5t53 -51t30 -54.5t13.5 -48t3 -32.5q0 -81 -3 -148.5t-7.5 -129.5t-10 -121.5t-10 -124t-7.5 -137t-3 -160.5q0 -109 21.5 -175.5t53.5 -102.5t68.5 -48t65.5 -12q55 0 111.5 18t109.5 52v1159q0 29 -12.5 46.5 t-38.5 17.5q-28 0 -52 -10t-43 -19l-16 37q25 13 61 29.5t77 31.5t84 25t81 10q68 0 105.5 -17.5t55.5 -43t21.5 -54.5t3.5 -51v-1177q0 -29 13 -46.5t39 -17.5q27 0 51 9.5t43 19.5l16 -37q-25 -13 -61 -29.5t-77 -31.5t-84 -25t-81 -10z"/>
<glyph unicode="V" glyph-name="V" horiz-adv-x="1513" d="M1110 344q36 94 76 208t74 232t55 228q22 111 22 198q0 66 -9 110q-8 44 -20 74t-21 48q-9 19 -9 35q0 21 12 35t28 25q17 11 37 15t38 4q39 0 67 -12t39 -41q5 -15 8 -31t5 -32t1 -30v-21q0 -42 -14 -115q-13 -73 -37 -165t-55 -197q-31 -106 -64 -212t-67 -208 t-64 -188t-54 -152q-24 -65 -36 -97q-8 -23 -22 -37t-31 -22t-37 -10t-43 -2q-40 0 -65 8q-24 8 -40 20t-23 26t-11 25l-379 1190q-11 33 -23 57t-28 39t-39 22t-57 7q-28 0 -65 -14t-71 -40t-56 -66q-23 -40 -23 -91q1 -32 9 -51q8 -18 19 -28t23 -12t16 -3q25 1 41 9 t29 18q12 10 24 18t27 8q11 0 25 -6t26 -17t19 -31q8 -20 8 -48q1 -40 -15 -69t-40 -49t-56 -28q-32 -10 -63 -10q-47 0 -85 17t-64 46t-38 67q-14 38 -14 83q0 103 40 181t106 130t150 78t173 25q100 -1 164 -31q63 -30 103 -78t63 -108t41 -117z"/>
<glyph unicode="W" glyph-name="W" horiz-adv-x="2157" d="M1090 350q22 59 46 127t47 140.5t44.5 147t38.5 146.5l-97 318q-10 33 1.5 57.5t36.5 41t59.5 24.5t72.5 8q33 0 59 -3.5t45.5 -12.5t32.5 -25.5t21 -42.5l287 -924q23 62 48 134t49 148t46 154t38.5 153t26 143.5t9.5 125.5q0 66 -9 110t-20.5 73.5t-20.5 48.5t-9 35 q0 21 11 35.5t28 24.5t37 14.5t38 4.5q40 0 68 -12t39 -41q5 -15 8 -31.5t4.5 -32t1.5 -29v-21.5q0 -42 -13.5 -115t-37 -164.5t-53.5 -196.5t-62.5 -211.5t-65.5 -208.5t-62.5 -188.5t-52 -152t-34.5 -97.5q-8 -24 -21.5 -38t-31 -21.5t-38 -9.5t-42.5 -2q-40 0 -65.5 8 t-40.5 20t-22 26t-11 25l-199 654q-33 -109 -67 -214.5t-64.5 -194.5t-54.5 -155.5t-37 -97.5q-10 -24 -24.5 -38t-32 -21.5t-37.5 -9.5t-41 -2q-40 0 -65.5 8t-40.5 20t-22.5 26t-11.5 25l-356 1190q-10 34 -21.5 57.5t-28 38.5t-40 22t-57.5 7q-28 0 -65 -13.5t-70.5 -40 t-56.5 -66t-23 -91.5q0 -32 8.5 -51t19.5 -28.5t22.5 -12t16.5 -2.5q25 0 41 8.5t29 18t24.5 18t26.5 8.5q12 0 25.5 -5.5t25 -17.5t19.5 -31.5t8 -47.5q0 -40 -15.5 -69t-40 -48.5t-56 -29t-62.5 -9.5q-48 0 -85.5 17t-63 46t-39 67.5t-13.5 82.5q0 104 40 181.5t106 129.5 t150 77.5t173 25.5q100 0 164 -30.5t103.5 -78.5t62.5 -107.5t41 -117.5z"/>
<glyph unicode="X" glyph-name="X" horiz-adv-x="1333" d="M741 1012q25 102 61 190t83 154t111 102q64 37 145 37q51 -1 95 -9t78 -23t55 -35t24 -46q1 -18 -2 -36t-11 -34q-8 -14 -22 -24t-31 -10q-11 0 -19 11t-16 27t-20 36t-30 35q-18 16 -43 27q-26 11 -64 11q-60 -1 -107 -49q-48 -48 -84 -130t-64 -188t-49 -224l336 -656 q19 -40 43 -60t56 -20t56 14t44 29l25 -30q-21 -21 -51 -43t-69 -42q-37 -18 -81 -30t-92 -12t-89 9t-79 33t-73 68q-35 43 -71 111l-149 291q-27 -108 -65 -202t-90 -162t-118 -108q-67 -40 -151 -40q-51 0 -99 8t-84 24q-38 16 -62 36t-27 44q-3 18 1 36t12 34q8 15 21 25 t31 10q10 0 20 -11q10 -12 21 -28t25 -35t34 -35t48 -28q28 -11 65 -11q61 -1 111 51t91 138t71 199t53 235l-318 624q-20 40 -43 60t-55 20t-57 -14t-43 -29l-25 31q22 21 52 43t68 41t81 31q44 12 92 12t89 -9q40 -10 78 -34t74 -67t70 -111z"/>
<glyph unicode="Y" glyph-name="Y" horiz-adv-x="1225" d="M168 -467q73 0 136.5 38.5t120 106t107 160.5t95.5 201q-109 360 -221 645t-218 483q-55 106 -114.5 159.5t-112.5 53.5q-32 0 -57 -13.5t-43 -29.5l-25 31q21 21 52 43t72 41t92.5 31t113.5 12q31 0 69 -5.5t77.5 -22t78.5 -46t74 -78.5q77 -108 163 -304.5t183 -477.5 q31 93 61 185.5t61 180t62.5 168.5t65.5 152q35 75 71.5 132.5t80 96.5t97.5 59.5t124 20.5q52 0 85 -22.5t33 -67.5q0 -40 -13 -66t-36 -26q-19 0 -29.5 14.5t-21 31.5t-25 31.5t-41.5 14.5q-61 0 -112.5 -56t-97 -152t-88 -224.5t-85.5 -272.5t-90 -296.5t-101 -296.5 t-118.5 -272.5t-143.5 -224.5t-175 -152t-213 -56q-51 0 -98.5 8.5t-85 23.5t-62 36t-27.5 45q-2 18 1.5 36.5t11.5 33.5t21.5 25t31.5 10q11 0 20.5 -11t20.5 -27.5t24.5 -35.5t33.5 -35.5t47.5 -27.5t66.5 -11z"/>
<glyph unicode="Z" glyph-name="Z" horiz-adv-x="1192" d="M664 70q54 0 112 8.5t106 29.5t79.5 55.5t31.5 86.5q0 31 -11.5 46t-25.5 21q-16 7 -36 5q-15 0 -27 -3.5t-22.5 -8t-20 -8t-19.5 -3.5q-11 0 -22 5t-21 15t-16 25.5t-6 36.5q0 40 15 68t38 46t51 26.5t54 8.5q51 0 89.5 -17t64.5 -45t39 -64.5t13 -75.5 q0 -99 -42 -164.5t-119.5 -104.5t-187.5 -55t-246 -16q-162 0 -263 12.5t-157 33t-75.5 46.5t-19.5 53q0 23 7 48t22.5 56t39.5 71.5t58 94.5l500 799q12 20 25 40.5t23.5 40t17 36.5t6.5 29q0 26 -25 39.5t-59 19t-69 6t-56 0.5q-54 0 -113 -10t-108.5 -32.5t-82 -59 t-32.5 -90.5q0 -30 11.5 -45t25.5 -20q16 -7 37 -5q14 0 25.5 3.5t21.5 8t19.5 8t19.5 3.5q7 0 18 -5t21 -15t17 -25.5t7 -36.5q0 -39 -14.5 -66.5t-37 -45t-49.5 -26t-52 -8.5q-50 0 -88 18t-63.5 47t-38.5 64t-13 70q0 70 26 123.5t70.5 91.5t103 63.5t123.5 40.5t132 21 t129 6q119 0 204.5 -10t140.5 -28t81 -43t26 -56q0 -21 -5 -44t-17.5 -53t-34 -68.5t-53.5 -90.5l-516 -834q-20 -32 -35 -62.5t-15 -56.5q0 -22 14.5 -36.5t46 -23t81.5 -12t121 -3.5z"/>
<glyph unicode="[" glyph-name="bracketleft" horiz-adv-x="737" d="M655 -369h-362q-53 1 -83 13t-45 30t-19 35q-4 18 -3 29v1718q0 12 5 30t21 34t47 26t83 10h356v-77h-204v-1770h204v-78z"/>
<glyph unicode="\" glyph-name="backslash" horiz-adv-x="748" d="M707 -41l-115 -41l-551 1600l115 38z"/>
<glyph unicode="]" glyph-name="bracketright" horiz-adv-x="758" d="M82 -291h205v1770h-205v77h356q52 0 83 -10t47 -26t22 -34q4 -18 4 -30v-1718q0 -11 -4 -29q-4 -17 -18 -35q-15 -18 -45 -30t-83 -13h-362v78z"/>
<glyph unicode="^" glyph-name="asciicircum" horiz-adv-x="1024" d="M565 1475l387 -463l-147 -129l-293 358l-293 -358l-147 129l383 463h110z"/>
<glyph unicode="_" glyph-name="underscore" horiz-adv-x="823" d="M0 -186h823v-203h-823v203z"/>
<glyph unicode="`" glyph-name="grave" horiz-adv-x="819" d="M545 1139l-355 151q-24 11 -41.5 30.5t-17.5 45.5q0 18 7 35.5t19 31.5t28 22.5t34 8.5q19 0 38 -9.5t36 -24.5l272 -263z"/>
<glyph unicode="a" glyph-name="a" horiz-adv-x="1020" d="M416 956q-34 0 -63 -8t-50 -20t-33 -26.5t-12 -27.5q0 -15 15.5 -21.5t34.5 -15t34.5 -24t15.5 -47.5q0 -21 -8.5 -38.5t-23 -31t-34 -21t-40.5 -7.5q-56 0 -90.5 38t-34.5 101q0 61 32 104.5t83.5 71.5t116.5 41.5t130 13.5q78 0 149 -17t125.5 -54t87 -94t32.5 -138 v-565q0 -9 1 -20t5 -20t12 -15t23 -6q18 0 33.5 13.5t27.5 27.5l25 -21q-15 -21 -36 -46t-51 -47t-70 -37t-91 -15q-63 0 -112 37.5t-64 115.5q-32 -43 -66.5 -72t-70.5 -47t-72.5 -26t-73.5 -8q-48 0 -93 15t-80.5 47.5t-57 84.5t-21.5 127q0 91 36 149t94.5 97.5t133 67.5 t152.5 59q58 23 84.5 68.5t26.5 93.5q0 74 -43.5 118.5t-118.5 44.5zM575 518q0 25 -16 38t-41 13q-35 0 -66.5 -16t-55.5 -47t-38 -76.5t-14 -105.5q0 -58 8.5 -96t23 -60.5t33.5 -31.5t40 -9q26 0 49 13.5t40 34.5t27 47t10 52v244z"/>
<glyph unicode="b" glyph-name="b" horiz-adv-x="1069" d="M92 1380q0 28 -14 50t-45 22q-17 0 -29 -6t-27 -16l-20 24q23 20 51 38t62 32q33 14 71 23t80 9q57 0 93 -18t54 -42q18 -26 25 -56q6 -30 6 -54v-446q12 12 31 28t48 32q30 16 70 27t95 11q64 0 128 -30t115 -92q51 -63 83 -162t32 -238q1 -109 -29 -206 q-30 -98 -88 -170t-145 -114t-202 -42q-125 0 -211 40t-137 110q-53 68 -75 159t-22 192v895zM688 498q0 88 -9 164t-29 134t-51 90q-31 34 -75 34q-34 0 -58 -16t-38 -38q-15 -22 -22 -42t-7 -27v-299q1 -218 37 -317t107 -99q75 0 110 101t35 315z"/>
<glyph unicode="c" glyph-name="c" d="M760 692q-31 0 -52 9.5t-34 25.5t-19 35.5t-6 40.5q0 27 3.5 52t1 45t-15.5 32t-46 12q-35 0 -74 -20t-71 -63t-53 -110.5t-21 -162.5q0 -105 19.5 -191.5t58.5 -147.5t97 -94.5t136 -33.5q35 0 66.5 8t59.5 22t53.5 32.5t49.5 39.5l25 -24q-23 -31 -59 -68t-87 -69.5 t-119 -54t-155 -21.5t-169.5 33.5t-146.5 97.5t-102.5 155.5t-38.5 208.5q0 91 23 167.5t62.5 138.5t92 109t110.5 78.5t118.5 47.5t116.5 16q74 0 129 -17t91.5 -45t54.5 -64.5t18 -75.5q0 -29 -7.5 -55.5t-22 -46t-36.5 -31t-51 -11.5z"/>
<glyph unicode="d" glyph-name="d" horiz-adv-x="1053" d="M668 983q-19 100 -53 186.5t-81.5 149.5t-108 99t-130.5 36q-40 0 -72.5 -10t-56.5 -23.5t-39.5 -26t-22.5 -18.5l-26 35q24 31 58.5 58t75.5 46t86.5 30t90.5 11q148 0 260 -64.5t187 -182.5t113 -285t38 -371q0 -165 -33.5 -290t-95.5 -209.5t-150.5 -127t-199.5 -42.5 q-77 0 -156.5 27.5t-144 89.5t-105.5 162.5t-41 246.5q0 126 35.5 224t95.5 165.5t139 103t167 35.5q34 0 61 -5.5t47 -13.5t35 -17.5t27 -18.5zM680 543v44.5t-2 77t-7 92.5t-16 91q-24 31 -53.5 55.5t-75.5 24.5q-78 0 -114.5 -102t-36.5 -316q0 -94 8.5 -172t26 -134 t45 -87t65.5 -31q160 0 160 457z"/>
<glyph unicode="e" glyph-name="e" d="M584 662q13 8 21.5 15.5t13.5 18t7.5 26t2.5 38.5q0 25 -5.5 55.5t-18.5 57.5t-33 45t-48 18q-36 0 -61.5 -21.5t-42 -55.5t-26 -77.5t-14.5 -87.5t-6 -84.5t-1 -68.5zM383 459q0 -32 9.5 -69.5t27.5 -75.5t44.5 -72.5t61 -61.5t76.5 -43t92 -16q35 0 65 8t56 22t50 32.5 t48 39.5l25 -24q-23 -31 -59 -68t-87 -69.5t-119 -54t-155 -21.5t-169.5 31.5t-146.5 94.5t-102.5 157t-38.5 220q0 91 23 167t62.5 137t92 107t110.5 76.5t118.5 46t116.5 15.5q74 0 129 -16t91.5 -43t54.5 -62.5t18 -74.5q0 -47 -27 -84.5t-72 -65.5z"/>
<glyph unicode="f" glyph-name="f" horiz-adv-x="666" d="M618 1487q-28 0 -53 -12q-25 -13 -43 -39t-30 -67q-11 -41 -11 -99v-246h219v-72h-219v-788q1 -136 -35 -251t-108 -199t-180 -130q-108 -47 -252 -47q-51 1 -98 9t-83 23q-35 15 -57 35t-22 46q0 18 5 36t15 34q10 14 24 24t34 10q12 0 20 -11t17 -27t21 -36t29 -35 q19 -16 45 -27t64 -11q51 1 90 21t67 56t47 85t30 105q12 56 16 117t4 122v839h-184v72h184v117q0 87 22 153t56 112q36 46 81 75t91 46t91 23q44 6 77 6q71 0 126 -10t92 -28t56 -41t19 -47q1 -18 -5 -36t-16 -34t-24 -26t-33 -9q-11 0 -20 12t-19 30t-22 39t-30 39t-41 30 q-24 12 -57 12z"/>
<glyph unicode="g" glyph-name="g" horiz-adv-x="1044" d="M805 -258q0 32 -25 52.5t-65.5 33t-92 19t-104.5 10t-103 6.5t-87 8q-21 -15 -40.5 -32.5t-34 -37t-23.5 -41t-9 -43.5q0 -38 22 -63.5t59.5 -40.5t87 -21t104.5 -6q73 0 131 12.5t98 34t61 49.5t21 60zM653 637q0 58 -6 113t-21 98t-41 69.5t-67 26.5t-67 -27.5t-41 -72 t-21 -101t-6 -114.5q0 -59 6 -116t21 -102t41 -72.5t67 -27.5t67 29t41 75.5t21 104.5t6 117zM82 629q0 102 35.5 178.5t95.5 128t139 77t166 25.5t165 -23t138 -71q19 29 31 61t12 64q0 42 -22.5 67t-57.5 25v29q22 7 39 12.5t31 8.5t28 4.5t31 1.5q47 0 72 -29t25 -80 q0 -30 -14 -59.5t-35 -56.5t-46.5 -51t-48.5 -42q42 -48 65 -112t23 -146q0 -103 -35.5 -182t-95.5 -133t-139 -81.5t-166 -27.5q-51 0 -100 9t-92 26q-16 -12 -27.5 -30t-11.5 -40q0 -37 32 -55t85 -26t120 -10t137.5 -6.5t137.5 -17t120 -41t85 -77.5t32 -127 q0 -57 -24 -102.5t-64.5 -80t-94 -59t-113 -40t-121 -22.5t-117.5 -7q-102 0 -183.5 10.5t-138.5 32.5t-88 57t-31 84q0 35 16 64.5t42.5 54t59.5 44t67 36.5q-50 21 -83.5 63.5t-33.5 112.5q0 37 13 68.5t33.5 58t45 48t47.5 36.5q-41 24 -75.5 58.5t-59 78t-38 96.5 t-13.5 115z"/>
<glyph unicode="h" glyph-name="h" horiz-adv-x="1092" d="M434 848q37 53 84 95q19 18 42.5 35t50 30.5t56 21.5t60.5 8q67 0 120 -26t89 -87t55 -161.5t19 -249.5q0 -145 -26 -252t-68 -182t-95 -122.5t-107 -74.5t-104 -37.5t-86 -11.5l-10 41q45 11 80 41t59 98.5t36.5 184.5t12.5 299q0 126 -11.5 201.5t-30 115t-42 52 t-47.5 12.5q-29 0 -51 -15.5t-38.5 -35.5t-28 -40t-19.5 -30v-668q0 -13 -4 -31.5t-19.5 -35t-46 -28t-83.5 -11.5t-84 12.5t-46.5 29.5t-19.5 35t-4 29v1290q0 29 -13.5 50.5t-45.5 21.5q-17 0 -29.5 -5.5t-26.5 -16.5l-20 24q23 19 51 37.5t61.5 32.5t71.5 23t80 9 q65 0 101 -17.5t53 -43t20.5 -54t3.5 -50.5v-543z"/>
<glyph unicode="i" glyph-name="i" horiz-adv-x="571" d="M106 1266q0 28 12.5 53.5t35 44.5t52 30t64.5 11q34 0 63.5 -11t51.5 -30t34.5 -44.5t12.5 -53.5q0 -29 -12.5 -54t-34.5 -43.5t-51.5 -29.5t-63.5 -11q-35 0 -64.5 11t-52 29.5t-35 43.5t-12.5 54zM444 90q0 -13 -4.5 -31.5t-21 -35t-47.5 -28t-84 -11.5t-83 12.5 t-45 29.5t-18.5 35t-3.5 29v772q0 29 -13.5 50.5t-45.5 21.5q-17 0 -29 -6t-26 -17l-21 25q23 19 51.5 37.5t61.5 32.5t71 23t80 9q65 0 101 -17.5t53 -43t20.5 -54.5t3.5 -51v-782z"/>
<glyph unicode="j" glyph-name="j" horiz-adv-x="571" d="M137 862q0 29 -13.5 50.5t-45.5 21.5q-17 0 -29 -6t-26 -17l-21 25q23 19 51.5 37.5t61.5 32.5t71 23t80 9q65 0 101 -17.5t53 -43t20.5 -54.5t3.5 -51v-708q0 -136 -35.5 -251t-107.5 -198.5t-180 -130.5t-252 -47q-51 0 -98 8.5t-83 23.5t-57.5 35.5t-21.5 45.5 q0 18 5.5 36.5t15.5 33.5t24.5 24.5t32.5 9.5q11 0 19.5 -11t17.5 -27t20.5 -35.5t29.5 -35.5t44.5 -27t64.5 -11q51 0 90 20.5t67 56.5t47 85t30 105t15.5 117t4.5 122v749zM106 1266q0 28 12.5 53.5t35 44.5t52 30t64.5 11q34 0 63.5 -11t51.5 -30t34.5 -44.5t12.5 -53.5 q0 -29 -12.5 -54t-34.5 -43.5t-51.5 -29.5t-63.5 -11q-35 0 -64.5 11t-52 29.5t-35 43.5t-12.5 54z"/>
<glyph unicode="k" glyph-name="k" horiz-adv-x="1087" d="M434 766q35 47 75 95.5t86 87.5t100 64t118 25q57 0 95 -22.5t61.5 -54t33 -65.5t9.5 -58q0 -44 -11.5 -91.5t-39 -94t-73.5 -90t-116 -79.5q94 -199 183 -342.5t171.5 -236t158.5 -136.5t145 -44q12 0 24 3t22 7q11 4 23 10l19 -35q-27 -15 -55 -28.5t-64 -23.5t-83 -16 t-112 -6q-59 0 -116.5 14t-115.5 50t-117.5 96t-122 152t-128.5 219t-137 297q96 71 151 131.5t83 109.5t35 87t7 65q0 4 -1 13.5t-6.5 18.5t-16 16t-29.5 7q-37 0 -75 -31.5t-72.5 -78t-62.5 -100t-46 -97.5v-516q0 -13 -4.5 -31t-21 -34t-48 -27.5t-84.5 -11.5t-83 12.5 t-44.5 29.5t-18 35t-3.5 29v1290q0 29 -13.5 50.5t-45.5 21.5q-17 0 -29.5 -5.5t-26.5 -16.5l-20 24q23 19 51 37.5t61.5 32.5t71.5 23t80 9q65 0 101 -17.5t53 -43t20.5 -54t3.5 -50.5v-625z"/>
<glyph unicode="l" glyph-name="l" horiz-adv-x="561" d="M434 88q0 -13 -4.5 -31t-21 -34t-48 -27.5t-84.5 -11.5t-83 12.5t-44.5 29.5t-18 35t-3.5 29v1290q0 29 -13.5 50.5t-45.5 21.5q-17 0 -29.5 -5.5t-26.5 -16.5l-20 24q23 19 51 37.5t61.5 32.5t71.5 23t80 9q65 0 101 -17.5t53 -43t20.5 -54t3.5 -50.5v-1303z"/>
<glyph unicode="m" glyph-name="m" horiz-adv-x="1651" d="M979 88q0 -13 -4 -31q-3 -18 -19 -34q-16 -15 -47 -27t-84 -12t-83 12t-46 30q-16 17 -20 35t-4 29v707q0 15 -4 29t-12 26t-20 20t-28 7q-27 1 -53 -15q-27 -16 -49 -36t-38 -40l-24 -30v-670q0 -13 -4 -31t-20 -34q-16 -15 -46 -27t-83 -12t-83 12t-47 30 q-16 17 -20 35t-4 29v772q1 28 -13 50t-46 22q-17 0 -29 -6t-26 -17l-21 25q24 20 52 38t61 32t71 23t80 9q65 0 101 -22t53 -51q16 -31 20 -63t4 -54q47 53 101 95q23 18 49 35q26 16 54 30t58 22t60 8q58 0 99 -21t66 -51t37 -62t11 -56q48 53 101 95q22 18 48 35 q26 16 54 30t58 22t60 8q58 0 99 -22t66 -56q25 -35 37 -79t11 -88v-619q0 -10 1 -20t5 -20q5 -10 13 -15q8 -6 22 -6q19 -1 34 13t28 28l24 -21q-14 -21 -37 -47t-55 -48t-72 -38q-42 -16 -94 -16q-44 0 -76 12t-56 30q-22 20 -33 46t-11 57v668q0 15 -4 29t-12 26t-19 20 q-12 8 -28 7q-27 1 -53 -15t-50 -36q-22 -20 -38 -40t-23 -30v-670z"/>
<glyph unicode="n" glyph-name="n" horiz-adv-x="1102" d="M713 498q0 126 -11.5 201.5t-30.5 115t-42 52t-47 12.5q-29 0 -51.5 -15.5t-39 -35.5t-28 -40t-19.5 -30v-668q0 -13 -4 -31.5t-19.5 -35t-46 -28t-83.5 -11.5t-83.5 12.5t-46.5 29.5t-20 35t-4 29v772q0 29 -13.5 50.5t-45.5 21.5q-17 0 -29 -6t-26 -17l-21 25 q23 19 51.5 37.5t61.5 32.5t71 23t80 9q65 0 101 -21.5t53 -51.5t20.5 -62.5t3.5 -54.5q37 53 84 95q19 18 42.5 35t50 30.5t56 21.5t60.5 8q68 0 120.5 -26t88.5 -87t55 -161.5t19 -249.5q0 -145 -26 -252t-68 -182t-95 -122.5t-107 -74.5t-103.5 -37.5t-85.5 -11.5l-11 41 q30 7 55.5 22t46.5 44t37 73.5t27.5 111.5t17 158.5t5.5 213.5z"/>
<glyph unicode="o" glyph-name="o" horiz-adv-x="1049" d="M676 522q0 80 -5.5 154.5t-21.5 132.5t-46 92.5t-79 34.5t-79 -36.5t-46 -96t-21 -135.5t-5 -156t5 -156.5t21 -136.5t46 -96.5t79 -36.5t79 38t46 100t21.5 140t5.5 158zM61 512q0 131 38 229.5t101.5 164.5t147.5 99t176 33t176 -30.5t147.5 -93.5t101.5 -159.5 t38 -228.5q0 -131 -38 -232t-101.5 -170t-147.5 -104.5t-176 -35.5t-176 33.5t-147.5 99.5t-101.5 165t-38 230z"/>
<glyph unicode="p" glyph-name="p" horiz-adv-x="1112" d="M444 225q0 -8 7 -28t22 -41q15 -22 39 -38t57 -16q44 0 75 34t51 90q20 58 29 134t9 164q1 107 -11 181q-12 73 -34 119t-52 66t-69 21q-22 -1 -44 -13q-21 -12 -39 -30t-29 -42q-11 -23 -11 -44v-557zM137 862q1 28 -13 50t-46 22q-17 0 -29 -6t-26 -17l-21 25 q24 20 52 38t61 32t71 23t80 9q45 0 77 -14q31 -14 53 -34t33 -40q11 -22 13 -37q20 28 48 51q28 24 60 40t68 25t76 9q80 0 145 -33t111 -98t72 -161q25 -96 25 -222q-1 -146 -31 -248t-80 -168q-50 -64 -112 -94q-64 -30 -130 -30q-54 0 -96 11t-72 27t-50 32t-32 28v-488 q0 -13 -4 -31q-4 -19 -20 -35t-46 -28t-83 -12t-83 12t-47 30q-16 18 -20 36t-4 28v1268z"/>
<glyph unicode="q" glyph-name="q" horiz-adv-x="1049" d="M676 522q0 80 -6 154t-21 133q-16 59 -46 93t-79 34t-79 -36t-46 -96t-21 -136t-5 -156t5 -156t21 -137t46 -97t79 -36t79 38t46 100q15 62 21 140t6 158zM61 512q0 132 38 230q37 98 101 164t148 99t176 33t176 -30t148 -94t101 -160q38 -96 38 -228q0 -131 -38 -232 q-37 -101 -101 -170q-64 -68 -148 -104t-176 -36h-6q56 -16 122 -44t138 -60t144 -66t141 -60q69 -27 129 -44t108 -17q32 0 54 5t38 14t24 21t14 27l30 -6q-6 -58 -24 -104t-50 -80t-75 -52q-44 -18 -99 -18q-65 0 -141 26q-75 26 -157 64t-166 84t-162 84q-80 38 -152 64 t-131 26t-84 -51l-31 10q3 17 15 48t37 62q24 31 64 55t97 28q-71 18 -133 60t-108 105q-46 64 -72 151t-27 196z"/>
<glyph unicode="r" glyph-name="r" horiz-adv-x="813" d="M444 827q38 58 81 105q18 20 39 39t43.5 34t46.5 24t48 9q51 0 80 -30.5t29 -85.5q0 -34 -5.5 -65.5t-21.5 -76.5h-28q-6 31 -28 51.5t-64 20.5q-31 0 -61 -11.5t-58.5 -28.5t-54 -37t-46.5 -38v-649q0 -13 -4 -31t-19.5 -34t-46 -27.5t-83.5 -11.5t-83.5 12.5 t-46.5 29.5t-20 35t-4 29v772q0 29 -13.5 50.5t-45.5 21.5q-17 0 -29 -6t-26 -17l-21 25q23 19 51.5 37.5t61.5 32.5t71 23t80 9q43 0 73.5 -11.5t50 -30t30.5 -41.5t16.5 -46.5t6.5 -45t1 -36.5z"/>
<glyph unicode="s" glyph-name="s" horiz-adv-x="776" d="M446 958q-23 0 -43.5 -6t-36.5 -19.5t-25 -34t-9 -48.5q0 -39 28.5 -77.5t71 -80t92 -86t92 -94t71 -105.5t28.5 -120q0 -72 -24.5 -128t-70 -95t-110 -59.5t-143.5 -20.5q-69 0 -125 19.5t-99.5 48t-74.5 60.5t-48 58l35 25q13 -15 33 -32.5t44.5 -32.5t52.5 -24.5 t57 -9.5q72 0 118 34.5t46 102.5q0 38 -25 78.5t-63 83.5t-82 89t-82 95t-63 101t-25 108q0 63 25.5 110t68 78t97 46.5t112.5 15.5q67 0 122 -12t94.5 -36.5t61 -61.5t21.5 -86q0 -38 -25 -66t-70 -28q-43 0 -65.5 18.5t-22.5 50.5q0 21 10.5 33t23.5 19.5t23.5 13 t10.5 14.5q0 28 -30 44.5t-77 16.5z"/>
<glyph unicode="t" glyph-name="t" horiz-adv-x="690" d="M449 952v-739q0 -53 20 -73.5t55 -20.5q27 0 48 15t36 34q18 21 31 49l31 -14q-15 -32 -35.5 -70t-54.5 -70.5t-85.5 -54.5t-129.5 -22q-44 0 -84.5 13t-72 41t-50.5 70t-19 101v741h-112v72q28 0 78 14.5t102.5 48.5t97.5 91t64 141h80v-295h163q80 0 80 27 q0 10 -10 13.5t-22.5 9t-22.5 15.5t-10 33q0 28 17.5 44t45.5 16q18 0 31.5 -7.5t22.5 -20t13.5 -28.5t4.5 -32q0 -65 -37.5 -103.5t-120.5 -38.5h-155z"/>
<glyph unicode="u" glyph-name="u" horiz-adv-x="1137" d="M999 174q0 -9 1 -19.5t5 -20t12 -15.5t23 -6q19 0 34 13.5t28 27.5l24 -21q-15 -21 -37.5 -46.5t-54.5 -48.5t-73 -38.5t-93 -15.5q-44 0 -76.5 11.5t-55 31t-33.5 46t-11 56.5v45q-50 -54 -105 -95q-24 -18 -51 -35t-56 -30.5t-60 -21.5t-62 -8q-60 0 -102.5 21.5 t-68.5 56.5t-38 79t-12 88v619q0 9 -1 19.5t-5 20t-12 15.5t-23 6q-18 0 -33.5 -13.5t-27.5 -27.5l-25 21q15 21 37.5 46.5t54.5 48.5t73.5 38.5t92.5 15.5q44 0 77 -11.5t55 -31t33 -46t11 -56.5v-668q0 -14 4.5 -28.5t13 -26.5t21.5 -19.5t31 -7.5q29 0 58 15t53 35.5 t41.5 40.5t25.5 30v584q0 9 -1 19.5t-5 20t-12 15.5t-23 6q-18 0 -33.5 -13.5t-27.5 -27.5l-25 21q15 21 37.5 46.5t54.5 48.5t73.5 38.5t92.5 15.5q44 0 77 -11.5t55 -31t33 -46t11 -56.5v-719z"/>
<glyph unicode="v" glyph-name="v" horiz-adv-x="977" d="M98 850q-6 40 -20 62t-45 22q-17 0 -29 -6t-27 -17l-20 25q23 20 51 38t62 32q33 14 71 23t80 9q60 0 97 -20q36 -20 58 -52q22 -30 31 -65t13 -63q37 -303 83 -459t109 -156q36 0 68 38t56 104t40 154q15 88 15 188q0 65 -9 111t-20 77t-20 51t-9 37q0 15 12 25 q13 10 29 17t34 10t28 3q29 0 42 -8t21 -31q9 -29 13 -77t3 -101q-1 -77 -11 -169t-32 -185t-54 -180t-78 -155t-104 -108t-128 -40q-83 0 -144 48q-62 48 -104 125t-70 173t-46 192t-28 184q-10 86 -18 144z"/>
<glyph unicode="w" glyph-name="w" horiz-adv-x="1538" d="M1343 721q0 66 -9 109t-19.5 71.5t-19.5 47t-9 34.5q0 15 12 25t28.5 17t34 10t28.5 3q29 0 42 -8t21 -31q9 -29 12.5 -76.5t3.5 -101.5q0 -77 -9 -169t-28.5 -185t-50 -180t-73.5 -154.5t-99 -108t-127 -40.5q-56 0 -100.5 22.5t-79.5 61.5t-61.5 91.5t-46.5 112.5 q-23 -61 -53 -113.5t-66.5 -91.5t-80.5 -61t-95 -22q-63 0 -111.5 27.5t-85.5 75t-64 110.5t-46.5 133t-32.5 144t-22 143t-15 129t-12 104q-7 40 -20.5 62t-45.5 22q-17 0 -29 -6t-26 -17l-21 25q23 19 51.5 37.5t61.5 32.5t71 23t80 9q60 0 97 -20.5t58.5 -51t30.5 -65.5 t13 -63q18 -151 35.5 -266t37.5 -192.5t43.5 -117t55.5 -39.5q21 0 41 18t38 50t34 77.5t28 100.5q-10 55 -17 109t-12.5 103.5t-10.5 92.5t-11 76q-5 30 -5 55q1 54 23 86q32 47 130 47q43 0 72.5 -7.5t49 -28t31.5 -56t19 -90.5q19 -150 37 -268t38 -199t43.5 -123.5 t55.5 -42.5q34 0 63 42t50 111t32.5 159t11.5 186z"/>
<glyph unicode="x" glyph-name="x" horiz-adv-x="985" d="M571 664l111 165q14 23 24 45t16 44t10 40t9 31q8 25 27 37t59 12q23 0 41 -8t17 -26q0 -30 -20 -72t-54 -90l-186 -267l260 -434q11 -18 19 -29t16 -17q8 -7 16 -9t18 -2q11 0 22 6t25 16l21 -24q-23 -20 -48 -38q-26 -18 -56 -32t-66 -23t-82 -9q-51 0 -88 18 q-36 18 -64 43q-28 26 -48 56t-33 55l-146 243l-135 -202q-14 -23 -24 -45t-16 -44t-10 -40t-9 -31q-8 -25 -27 -37t-59 -12q-23 0 -41 8t-17 26q0 30 18 68t56 94l213 303l-240 404q-12 19 -22 33t-31 14q-19 0 -47 -23l-20 25q23 20 50 38q26 18 58 32t69 23t79 9 q48 0 80 -14t54 -37q22 -22 39 -49q16 -27 31 -51z"/>
<glyph unicode="y" glyph-name="y" horiz-adv-x="983" d="M922 881q0 -183 -35.5 -353.5t-98 -320t-148.5 -273t-187 -211.5t-213.5 -137t-227.5 -49q-88 0 -136 29.5t-48 79.5q0 19 6 37t16 32t24 22.5t30 8.5q19 0 31.5 -19t26.5 -41.5t34 -41.5t55 -19q45 0 94 15.5t98.5 44.5t99 70.5t97.5 92.5q-28 101 -64.5 220.5 t-77 240.5t-83 233.5t-83 199.5t-78 139.5t-66.5 52.5q-19 0 -29.5 -6t-24.5 -17l-20 25q20 17 42 35t52 33t70 24.5t96 9.5q61 0 113.5 -27.5t95.5 -101.5q31 -55 64.5 -132t67.5 -172t68.5 -205.5t69.5 -231.5q62 130 100 275.5t38 299.5q0 55 -7 94t-16 66.5t-16 47 t-7 34.5t12 25.5t29 16.5t34.5 8.5t29.5 2.5q27 0 41.5 -11t21.5 -31.5t8 -49.5t1 -65z"/>
<glyph unicode="z" glyph-name="z" horiz-adv-x="874" d="M485 870q10 13 17.5 28t7.5 28q0 19 -30 27t-111 8q-50 0 -83 -12t-54.5 -29.5t-35 -38.5t-23.5 -38.5t-19.5 -29.5t-24.5 -12q-17 0 -29.5 11t-20.5 27.5t-12 36t-4 37.5q0 27 23 50t67 39.5t107.5 26t145.5 9.5q133 0 216.5 -11t130.5 -29.5t64 -44.5t17 -56 q0 -16 -7.5 -35.5t-18 -37.5t-21 -33.5t-15.5 -22.5l-416 -637q-3 -5 -9.5 -15.5t-6.5 -23.5q0 -8 5.5 -14t21 -10t44.5 -5.5t76 -1.5q60 0 99.5 13t64.5 33t40 42.5t26 42.5t21.5 33t27.5 13t30 -12.5t22 -31.5t13.5 -41t4.5 -40q0 -27 -24 -50.5t-73 -41t-124.5 -27.5 t-178.5 -10q-111 0 -189 9t-127 26.5t-71 44.5t-22 63q0 29 13.5 57.5t39.5 65.5z"/>
<glyph unicode="{" glyph-name="braceleft" horiz-adv-x="799" d="M385 592q77 -32 111 -79t34 -124q0 -53 -6 -107t-14 -118q-8 -62 -14 -134t-7 -159q0 -65 24 -100t69 -35q21 0 48 10t46 18l16 -36l-60 -30t-73 -32t-80 -25t-80 -10q-64 0 -106 23q-43 23 -67 59t-34 80t-10 86q0 71 8 143t16 138t16 124q8 56 7 95q0 23 -2 53 q-1 30 -17 60q-16 29 -50 51t-99 28v47q65 6 99 28t50 52t17 60q2 30 2 53q1 39 -7 95t-16 122t-16 138t-8 143q0 42 10 86q10 43 34 79t67 59q42 23 106 23q39 0 80 -10t80 -25t73 -31t60 -30l-16 -37q-19 9 -46 19t-48 10q-45 0 -69 -35t-24 -100q1 -87 7 -159t14 -134 t14 -116t6 -107q0 -77 -34 -124t-111 -79v-6z"/>
<glyph unicode="|" glyph-name="bar" horiz-adv-x="512" d="M172 -512v2048h168v-2048h-168z"/>
<glyph unicode="}" glyph-name="braceright" horiz-adv-x="799" d="M414 598q-78 32 -112 79t-34 124q0 53 6 107t14 116t14 134t7 159q1 65 -23 100t-69 35q-22 0 -49 -10t-45 -19l-17 37q25 14 60 30t74 31t80 25t79 10q63 0 105 -23t67 -59t35 -79q10 -44 10 -86q0 -71 -8 -143t-16 -138t-16 -122t-7 -95q0 -23 2 -53q1 -30 17 -60 t50 -52t99 -28v-47q-65 -6 -99 -28t-50 -51q-16 -30 -17 -60q-2 -30 -2 -53q-1 -39 7 -95t16 -124q8 -66 16 -138t8 -143q0 -42 -10 -86t-35 -80t-67 -59t-105 -23q-38 0 -79 10t-80 25t-74 32t-60 30l17 36q18 -8 45 -18t49 -10q45 0 69 35t23 100q-1 87 -7 159t-14 134 t-14 118q-6 54 -6 107q0 77 34 124t112 79v6z"/>
<glyph unicode="~" glyph-name="asciitilde" horiz-adv-x="1024" d="M934 713q-14 -65 -42 -112t-64 -77t-78 -44t-86 -15q-45 -1 -91 21q-47 22 -87 48t-74 46q-34 22 -54 22q-26 0 -46 -16t-32 -40q-14 -22 -22 -46t-8 -37l-154 72q12 62 38 109t62 79q36 33 78 49t86 16t88 -22t83 -48t73 -48t62 -21q24 0 42 16t32 38q14 21 23 45t15 38 z"/>
<glyph unicode="" glyph-name="nonbreakingspace" horiz-adv-x="461"/>
<glyph unicode="" glyph-name="exclamdown" horiz-adv-x="748" d="M532 -332q0 -12 -4 -28t-19 -32t-45 -28t-83 -12t-85 10t-49 26t-22 34t-4 30q6 86 14 173t17 171t19 162t19 147q22 161 46 308h74q26 -147 50 -308q10 -69 20 -147t20 -162t18 -171t14 -173zM541 913q0 -35 -13 -66q-14 -31 -36 -54t-53 -37t-66 -13q-35 -1 -66 13 t-54 37t-37 54t-13 66q-1 37 13 67t37 52t54 36q31 13 66 13t66 -13q31 -14 53 -36t36 -52q13 -30 13 -67z"/>
<glyph unicode="" glyph-name="cent" horiz-adv-x="973" d="M373 754q0 -140 34 -243t105 -157v723q-28 -15 -53 -42t-44 -67t-31 -92q-12 -54 -11 -122zM748 854q-30 0 -50 9t-33 25t-19 34q-6 20 -5 41q0 23 3 44t3 40q-1 23 -11 37t-44 14h-6t-7 -1q-4 -1 -6 -1v-777q46 -18 103 -18q68 0 122 29t99 69l25 -22q-21 -29 -52 -61 q-32 -32 -74 -62t-98 -52t-125 -30v-285h-61v283q-84 0 -164 32t-140 94q-62 62 -99 151t-37 202q0 119 40 213t103 162t141 108t156 52v248h61v-242q75 0 129 -16t90 -44t52 -64q18 -36 18 -73q0 -27 -8 -53t-21 -45t-35 -30t-50 -11z"/>
<glyph unicode="" glyph-name="sterling" horiz-adv-x="1112" d="M561 1495q95 1 171 -21t128 -58t81 -80q28 -44 28 -89q0 -21 -7 -43t-21 -42q-13 -18 -35 -30t-50 -12q-33 0 -47 22t-20 53q-7 31 -9 69t-12 70t-35 54q-24 22 -71 21q-53 1 -90 -23t-60 -62t-33 -87q-10 -48 -10 -96q-1 -65 13 -124t32 -115t36 -110t28 -110h233v-78 h-225q-1 -65 -19 -125q-19 -60 -47 -112q-28 -51 -62 -93t-69 -69h461q60 0 86 25t33 77h41q0 -31 -1 -67t-6 -70t-15 -65t-29 -54t-48 -37t-71 -14h-736v57q128 93 194 189t67 182q1 48 -11 91t-30 85h-222v78h183q-27 46 -55 92t-52 93q-24 48 -38 101q-15 53 -15 113 q-1 97 35 173t96 130t139 82t166 29z"/>
<glyph unicode="" glyph-name="currency" horiz-adv-x="1024" d="M336 772q0 -37 14 -69t37 -56q24 -23 56 -37t69 -14t69 14t56 37q23 24 37 56t14 69t-14 69t-37 56q-24 23 -56 37t-69 14t-69 -14t-56 -37q-23 -24 -37 -56t-14 -69zM72 436l166 164q-22 36 -36 80t-14 92t14 91t36 81l-166 166l102 102l166 -165q38 23 81 37t91 14 t91 -14t81 -37l164 165l104 -102l-166 -166q22 -36 36 -80t14 -92t-14 -92t-36 -80l166 -164l-104 -102l-164 164q-38 -23 -81 -36t-91 -13t-92 13t-80 36l-166 -166z"/>
<glyph unicode="" glyph-name="yen" horiz-adv-x="1102" d="M1022 719h-285l-12 -33v-80h297v-71h-297v-404q0 -77 -40 -112t-124 -35q-83 0 -121 35t-39 112v404h-297v71h297v17l-43 96h-254v72h224l-236 536q-14 32 -26 48t-39 16q-19 0 -36 -8t-36 -17l-16 37q25 13 60 29t74 30t81 24t79 9q42 1 72 -5t51 -18t36 -33 q15 -20 28 -50l246 -562q40 93 72 171t56 140t40 112q16 48 26 85q8 28 16 57q8 30 22 52t36 36t59 15q28 0 48 -14t20 -39q1 -12 -5 -28t-20 -45q-14 -28 -34 -72q-22 -45 -54 -113t-77 -164q-44 -96 -101 -229h252v-72z"/>
<glyph unicode="" glyph-name="brokenbar" horiz-adv-x="512" d="M172 -512v776h168v-776h-168zM172 760v776h168v-776h-168z"/>
<glyph unicode="" glyph-name="section" horiz-adv-x="922" d="M618 657q0 39 -20 75t-54 69q-34 34 -76 68t-85 69q-34 -8 -57 -34t-23 -70q1 -39 23 -74q22 -34 58 -68t81 -68t90 -69q27 11 45 35t18 67zM567 197q0 41 -33 83t-82 84t-107 86t-107 93t-82 103t-33 116q0 49 15 89q15 39 41 69t61 50t75 27q-29 25 -53 53t-42 56 t-28 60t-10 67q0 57 20 103t56 76q34 30 80 47q46 16 94 16q35 1 70 -9q34 -10 66 -26t58 -39q26 -22 46 -47l-27 -25q-11 10 -27 22t-38 22t-48 17t-57 7q-23 0 -43 -8q-20 -9 -36 -23t-25 -34t-9 -42q0 -41 32 -79q32 -39 82 -77q48 -38 104 -80t106 -91q48 -49 80 -107 t33 -129q0 -47 -13 -85t-36 -68q-22 -30 -54 -50t-69 -30q53 -50 87 -108t34 -130q0 -60 -20 -108t-55 -82q-36 -34 -87 -54t-113 -20q-51 0 -91 15t-74 37t-60 50t-47 53l26 27q21 -18 43 -36t48 -32t55 -24q30 -10 65 -10q65 0 97 36t32 89z"/>
<glyph unicode="" glyph-name="dieresis" horiz-adv-x="819" d="M477 1311q0 22 8.5 41.5t23.5 34.5t34.5 23.5t42.5 8.5q22 0 41.5 -8.5t34.5 -23.5t23.5 -34.5t8.5 -41.5q0 -23 -8.5 -42.5t-23.5 -34.5t-34.5 -23.5t-41.5 -8.5q-23 0 -42.5 8.5t-34.5 23.5t-23.5 34.5t-8.5 42.5zM125 1311q0 22 8.5 41.5t23.5 34.5t34.5 23.5 t41.5 8.5t42 -8.5t35 -23.5t23.5 -34.5t8.5 -41.5q0 -23 -8.5 -42.5t-23.5 -34.5t-35 -23.5t-42 -8.5t-41.5 8.5t-34.5 23.5t-23.5 34.5t-8.5 42.5z"/>
<glyph unicode="" glyph-name="copyright" horiz-adv-x="1806" d="M1001 1143q-35 1 -74 -19t-71 -68t-54 -128t-22 -201q0 -117 24 -191t62 -116t80 -58t78 -16t70 8t64 23q30 14 54 33t45 39l31 -29q-19 -32 -57 -64q-37 -32 -87 -58t-108 -44q-58 -16 -118 -16q-98 0 -184 30t-148 92q-64 62 -100 154t-37 215q1 121 41 213t109 152 q69 62 161 94t192 31q68 0 126 -13t98 -37q40 -25 64 -59q22 -34 22 -76q0 -18 -6 -40t-17 -39q-11 -18 -25 -30t-32 -12q-25 0 -39 17q-13 16 -23 42t-17 56t-19 56t-31 42q-19 17 -52 17zM246 725q0 -91 24 -175t66 -157q43 -73 103 -133t133 -102q72 -42 156 -66t175 -24 q136 0 256 52t209 140q89 90 141 210t52 255q1 90 -23 174t-67 157t-103 133t-133 103q-73 42 -157 66t-175 24q-90 0 -174 -24t-157 -66q-73 -43 -133 -103t-103 -133q-42 -73 -66 -157t-24 -174zM143 725q0 105 27 202q26 97 76 181t120 154t154 120t181 76q97 27 202 27 t202 -27q97 -26 181 -76t154 -120t120 -154t76 -181q27 -97 27 -202t-27 -202q-26 -97 -76 -181t-120 -154t-154 -120t-181 -76q-97 -27 -202 -27q-158 -1 -296 59q-137 60 -241 164t-164 241q-60 138 -59 296z"/>
<glyph unicode="" glyph-name="ordfeminine" horiz-adv-x="813" d="M315 1434q-26 0 -48 -6q-23 -6 -39 -15t-26 -19t-9 -20q0 -12 12 -17q13 -5 27 -11t26 -18q12 -11 12 -34q0 -31 -25 -52t-59 -21q-44 0 -70 28t-26 74q0 45 25 77t65 52t92 31q50 10 101 10q61 -1 117 -13t98 -38t67 -69q25 -42 25 -101v-404q0 -7 1 -15q1 -9 4 -15 t9 -10t17 -5q15 0 25 10t20 19l22 -27q-12 -15 -28 -33t-40 -35q-24 -16 -54 -27t-70 -11q-50 -1 -88 27t-49 85q-51 -63 -108 -87t-114 -25q-37 0 -72 11t-63 35t-44 62q-17 38 -17 93q0 68 28 110t74 72q45 30 103 50t118 42q23 9 38 22q15 12 24 28q8 16 12 34t4 35 q0 53 -32 87t-85 34zM434 1104q0 18 -11 28t-28 9q-27 1 -51 -11t-40 -34q-18 -22 -28 -55q-10 -32 -10 -72q0 -39 6 -67t16 -45t26 -25q14 -8 30 -7q22 -1 38 9t28 26t18 34q6 20 6 40v170z"/>
<glyph unicode="" glyph-name="guillemotleft" horiz-adv-x="895" d="M627 520l196 -262l-55 -59l-348 288v66l348 289l55 -60zM258 520l197 -262l-56 -59l-348 288v66l348 289l56 -60z"/>
<glyph unicode="" glyph-name="logicalnot" horiz-adv-x="969" d="M123 780h723v-461h-174v287h-549v174z"/>
<glyph unicode="" glyph-name="uni00AD" horiz-adv-x="717" d="M102 641h512v-242h-512v242z"/>
<glyph unicode="" glyph-name="registered" horiz-adv-x="1274" d="M627 1239q-15 0 -23 -4q-8 -5 -14 -11q-4 -6 -6 -13t-2 -13v-225q37 1 60 9q22 8 36 26t19 44q5 28 5 66q0 51 -19 86t-56 35zM582 936v-234q0 -32 -22 -46t-60 -15q-38 1 -60 15t-22 46v488q0 12 -3 20t-14 7q-14 0 -25 -5t-18 -8l-10 23q32 15 98 32t175 17 q115 0 174 -41t59 -117q0 -32 -10 -58t-24 -44q-16 -18 -37 -32t-44 -23q13 -4 23 -12t18 -25l88 -199q8 -17 19 -29t28 -12q10 0 16 4t11 6l12 -20q-14 -9 -43 -21t-80 -12q-51 -1 -81 17t-45 49l-78 204q-5 11 -11 16t-11 7q-6 3 -13 2h-10zM195 950q1 -92 35 -172 t94 -140t140 -95t173 -35q91 0 171 35t141 95q60 60 95 140t35 172q0 91 -35 172t-95 141q-61 60 -141 95t-171 35q-93 0 -173 -35t-140 -95t-94 -141t-35 -172zM102 950q0 111 42 208t115 170t170 115t208 42t208 -42t169 -115t115 -170q42 -97 42 -208t-42 -208 q-43 -98 -115 -170t-169 -114t-208 -42t-208 42t-170 114t-115 170q-42 97 -42 208z"/>
<glyph unicode="" glyph-name="macron" horiz-adv-x="819" d="M143 1382h533v-141h-533v141z"/>
<glyph unicode="" glyph-name="degree" horiz-adv-x="592" d="M170 1251q0 -27 10 -50t27 -40t41 -27t49 -10q27 0 50 10t41 27t26 40q10 23 10 50q0 26 -10 49q-10 22 -26 40q-18 18 -41 28t-50 10q-25 0 -49 -10t-41 -28t-27 -40q-10 -23 -10 -49zM51 1249q-1 51 19 95t54 78t78 54t95 19q51 1 95 -19t78 -54q33 -34 52 -78t19 -95 t-19 -95t-52 -77q-34 -33 -78 -52t-95 -19t-95 19t-78 52t-54 77t-19 95z"/>
<glyph unicode="" glyph-name="plusminus" horiz-adv-x="969" d="M123 201h723v-174h-723v174zM123 692h274v254h174v-254h275v-174h-275v-254h-174v254h-274v174z"/>
<glyph unicode="" glyph-name="twosuperior" horiz-adv-x="672" d="M322 1495q40 -1 90 -11t94 -37t74 -74t30 -120q0 -45 -20 -89t-51 -88q-33 -42 -73 -82t-82 -75q-42 -36 -84 -68q-40 -32 -71 -58h293q38 0 54 15t22 44h33q1 -28 -1 -66t-12 -73t-32 -59t-62 -25h-504v43q19 17 50 49q30 32 66 75t72 94t64 106q30 56 48 112t18 111 q0 31 -8 61t-23 55q-15 24 -41 39t-63 15q-30 -1 -52 -7q-23 -6 -39 -17t-30 -25t-25 -31l-24 20q13 27 37 57t60 54t82 40q48 16 110 15z"/>
<glyph unicode="" glyph-name="threesuperior" horiz-adv-x="717" d="M338 1495q48 1 94 -11t82 -35t58 -58t22 -82q0 -39 -12 -66t-32 -46q-18 -19 -42 -31t-45 -21v-2q33 -7 71 -24t70 -47t52 -74t20 -105q0 -46 -19 -95t-59 -89q-40 -39 -102 -65t-150 -26q-75 0 -130 17q-56 17 -94 41t-62 52q-24 26 -40 44l29 25q35 -42 75 -65t103 -23 q28 0 59 10q30 10 56 33t42 61t17 94q0 42 -12 77q-13 36 -39 62t-70 41t-106 17v33q30 -1 58 9t49 29t33 47t12 62q0 22 -7 44t-21 40t-34 28q-20 11 -47 11q-35 1 -61 -11t-52 -46l-24 22q42 54 104 88t154 35z"/>
<glyph unicode="" glyph-name="acute" horiz-adv-x="819" d="M252 1167l272 263q17 15 36 24.5t38 9.5q18 0 34 -8.5t28 -22.5t19 -31.5t7 -35.5q0 -26 -17.5 -45.5t-41.5 -30.5l-355 -151z"/>
<glyph unicode="" glyph-name="micro" horiz-adv-x="1126" d="M682 924q0 13 4 30q4 16 20 32t46 27q31 11 84 11q54 0 84 -12t46 -30t19 -36q4 -18 4 -28v-744q0 -10 1 -20t5 -20t12 -15q8 -6 23 -6q19 -1 34 13t28 28l24 -21q-14 -22 -36 -48q-22 -27 -50 -49t-61 -37q-34 -15 -74 -15q-39 0 -70 10t-55 29q-24 18 -39 41 q-16 23 -24 49q-13 -37 -34 -65q-18 -24 -47 -44t-71 -20q-53 0 -94 32t-66 82l39 -401q1 -13 -3 -31t-20 -36q-17 -16 -47 -28t-83 -12t-84 12t-47 30t-19 36q-4 18 -4 29v1227q0 13 4 30q3 16 19 32t47 27t84 11t83 -12t46 -30t20 -36t4 -28v-625q0 -41 10 -69t24 -47 q16 -18 38 -26t45 -8q59 0 95 39t36 113v629z"/>
<glyph unicode="" glyph-name="paragraph" horiz-adv-x="1100" d="M512 -201v860q-78 6 -152 26q-74 19 -132 63t-92 117t-34 186q0 73 19 130t53 99t78 73t95 49t106 26t108 8h375v-70h-127v-1567h-92v1567h-113v-1567h-92z"/>
<glyph unicode="" glyph-name="periodcentered" horiz-adv-x="584" d="M158 606q0 28 10.5 53t28.5 44t42 29.5t52 10.5t53 -10.5t44 -29.5t29.5 -44t10.5 -53t-10.5 -52t-29.5 -42t-44 -28.5t-53 -10.5t-52 10.5t-42 28.5t-28.5 42t-10.5 52z"/>
<glyph unicode="" glyph-name="cedilla" horiz-adv-x="819" d="M397 -96q63 0 110 -15t78 -40t47 -57t15 -64q-1 -61 -25 -101q-24 -39 -62 -63t-85 -34q-46 -10 -88 -9q-41 0 -77 7t-66 18t-52 24q-23 13 -38 24l18 33q40 -21 84 -31q37 -8 72 -8h14q65 3 105 33t40 96q0 41 -15 67q-16 26 -40 42t-55 23t-62 8l39 153h70z"/>
<glyph unicode="" glyph-name="onesuperior" horiz-adv-x="522" d="M397 725q1 -45 -33 -76t-106 -31q-62 0 -94 31t-33 76v580q0 21 -10 37t-39 16q-20 0 -39 -11t-35 -20l-20 27q42 28 82 54t79 45q38 19 73 31t67 11q46 1 77 -17t31 -57v-696z"/>
<glyph unicode="" glyph-name="ordmasculine" horiz-adv-x="817" d="M518 1114q0 60 -4 114t-14 96q-12 42 -34 66q-22 25 -56 25q-36 0 -58 -26t-33 -69q-12 -43 -16 -99t-4 -115t4 -115q4 -55 16 -99q11 -44 33 -70t58 -27q34 -1 56 27t34 73t14 103q4 58 4 116zM47 1106q-1 97 29 170t80 122t116 73t138 24q70 -1 136 -23t116 -69 t78 -119q30 -72 30 -168q0 -98 -30 -172t-78 -125q-50 -51 -116 -77t-136 -27q-72 1 -138 25t-116 73t-80 122t-29 171z"/>
<glyph unicode="" glyph-name="guillemotright" horiz-adv-x="895" d="M268 520l-196 262l55 60l348 -289v-66l-348 -288l-55 59zM637 520l-197 262l56 60l348 -289v-66l-348 -288l-56 59z"/>
<glyph unicode="" glyph-name="onequarter" horiz-adv-x="1305" d="M893 238v350l-203 -350h203zM1001 1497l68 -39l-821 -1474l-68 39zM410 788q0 -22 -6 -42t-22 -33q-16 -15 -40 -23t-61 -8q-61 0 -89 31t-28 75v519q0 21 -10 37t-39 16q-19 0 -39 -11t-35 -20l-21 27l81 54t75 45t70 31t65 11q47 1 73 -17t26 -57v-635zM893 174h-283 v64l283 487q7 11 16 25t23 24t36 18q22 7 54 7q31 -1 53 -9t36 -22t20 -30q6 -18 6 -36v-464h127v-64h-127v-84q-1 -22 -7 -42t-20 -33q-14 -15 -40 -23q-24 -8 -60 -8q-62 0 -90 31t-27 75v84z"/>
<glyph unicode="" glyph-name="onehalf" horiz-adv-x="1360" d="M1001 1497l68 -39l-821 -1474l-68 39zM410 788q0 -22 -6 -42t-22 -33q-16 -15 -40 -23t-61 -8q-61 0 -89 31t-28 75v519q0 21 -10 37t-39 16q-19 0 -39 -11t-35 -20l-21 27l81 54t75 45t70 31t65 11q47 1 73 -17t26 -57v-635zM1010 799q40 -1 86 -11t88 -37 q40 -27 67 -74t27 -120q0 -41 -18 -78t-46 -72t-65 -67t-76 -63t-77 -59t-70 -54h264q38 0 54 15t22 44h32q0 -27 -2 -65t-11 -74t-31 -60t-62 -24h-483v43q19 17 49 45t66 64t72 78t64 90t48 100q18 52 18 106q0 31 -8 61q-8 29 -23 53t-41 38t-63 14q-30 0 -52 -6 q-23 -6 -39 -18t-30 -26t-25 -30l-24 21q13 27 37 57t60 54t82 40q48 16 110 15z"/>
<glyph unicode="" glyph-name="threequarters" horiz-adv-x="1454" d="M1042 238v350l-202 -350h202zM1151 1497l68 -39l-822 -1474l-67 39zM365 1495q45 0 87 -9t73 -29q31 -19 49 -51t18 -77q0 -35 -12 -60t-31 -42t-43 -28t-45 -17v-2q36 -2 72 -15q35 -13 65 -39t48 -66t18 -99q0 -45 -16 -91t-52 -82t-96 -58t-146 -23q-75 0 -128 16 t-89 39q-37 22 -59 48t-37 44l29 25q17 -21 34 -37q16 -16 36 -25q20 -10 44 -15t56 -5q29 0 59 9q30 8 55 28q24 20 40 51t16 76q0 89 -50 133t-167 47v33q29 0 57 7t49 23t33 40t12 61q0 45 -28 73t-74 29q-37 1 -65 -11t-54 -46l-25 22q42 54 109 88t158 35zM1042 174 h-282v64l282 487q8 11 17 25t23 24t36 18q22 7 53 7q31 -1 53 -9t36 -22t20 -30q6 -18 6 -36v-464h127v-64h-127v-84q0 -22 -6 -42t-22 -33q-14 -15 -38 -23t-61 -8q-61 0 -89 31t-28 75v84z"/>
<glyph unicode="" glyph-name="questiondown" horiz-adv-x="1118" d="M788 918q0 -36 -13 -67t-35 -54t-54 -36q-30 -13 -65 -13q-36 0 -67 13t-54 36t-36 54t-13 67t13 66t36 52t54 36q31 13 67 13q35 0 65 -13q30 -14 54 -36q22 -22 35 -52t13 -66zM664 -336q50 0 93 18t75 50t49 70q18 38 18 79q0 28 -8 45q-8 18 -19 26q-12 8 -22 10 t-14 3q-23 1 -38 -7t-27 -16q-13 -8 -23 -16t-25 -8q-11 0 -23 4t-24 16q-11 10 -18 28t-7 42q-1 32 15 56t40 41t56 27q30 10 59 9q91 -1 143 -59t52 -166q0 -88 -36 -152t-97 -106q-60 -42 -138 -64q-78 -20 -161 -20q-96 0 -177 26t-139 74t-92 114q-33 67 -33 149 q0 89 30 155q31 66 77 118t101 96t105 89t90 96q38 51 50 119h80q0 -62 -16 -116t-40 -104t-50 -101q-28 -50 -52 -105q-24 -56 -39 -118q-16 -62 -16 -138q-1 -60 11 -108t37 -83t63 -54t90 -19z"/>
<glyph unicode="" glyph-name="Agrave" horiz-adv-x="1528" d="M750 1098q-41 -167 -79.5 -314t-76.5 -274h326zM944 422h-377q-42 -132 -90.5 -229t-107.5 -161t-129.5 -95t-157.5 -31q-48 0 -92.5 8.5t-78.5 23.5t-54.5 35.5t-20.5 44.5q0 18 5.5 36.5t15.5 34t24.5 25t32.5 9.5q16 0 28 -22t30.5 -48.5t47.5 -48.5t80 -22 q52 0 99 25t90.5 78.5t83.5 136.5t78 200h-236v88h262q33 112 64.5 226t59.5 219t50 196.5t37 159.5q-20 56 -54.5 75t-92.5 19q-54 0 -111.5 -16.5t-104.5 -47t-77.5 -75t-30.5 -99.5q0 -32 8.5 -51t20 -28.5t22.5 -12t17 -2.5q24 0 40.5 8.5t29 18t24.5 18t27 8.5 q11 0 24.5 -5.5t25 -17.5t19.5 -31.5t8 -47.5q0 -40 -15.5 -69t-40 -48.5t-56 -29t-62.5 -9.5q-48 0 -86.5 17.5t-65.5 47.5t-41 70t-14 84q0 66 22 121.5t61 101t92 80t114.5 58t128.5 35.5t135 12q96 0 162.5 -15.5t111.5 -46t72.5 -77t45.5 -107.5l215 -739h217v-88h-193 l78 -262q4 -15 8 -28t9.5 -22.5t14 -15.5t21.5 -6q28 0 52 9.5t42 19.5l17 -37q-18 -13 -45.5 -29.5t-63 -31.5t-78.5 -25t-92 -10q-68 0 -109.5 17t-65 42t-34 53t-16.5 49zM914 1579l-355 151q-24 11 -41.5 30.5t-17.5 45.5q0 18 7 35.5t19 31.5t28 22.5t34 8.5 q19 0 38 -9.5t36 -24.5l272 -263z"/>
<glyph unicode="" glyph-name="Aacute" horiz-adv-x="1528" d="M750 1098q-41 -167 -79.5 -314t-76.5 -274h326zM944 422h-377q-42 -132 -90.5 -229t-107.5 -161t-129.5 -95t-157.5 -31q-48 0 -92.5 8.5t-78.5 23.5t-54.5 35.5t-20.5 44.5q0 18 5.5 36.5t15.5 34t24.5 25t32.5 9.5q16 0 28 -22t30.5 -48.5t47.5 -48.5t80 -22 q52 0 99 25t90.5 78.5t83.5 136.5t78 200h-236v88h262q33 112 64.5 226t59.5 219t50 196.5t37 159.5q-20 56 -54.5 75t-92.5 19q-54 0 -111.5 -16.5t-104.5 -47t-77.5 -75t-30.5 -99.5q0 -32 8.5 -51t20 -28.5t22.5 -12t17 -2.5q24 0 40.5 8.5t29 18t24.5 18t27 8.5 q11 0 24.5 -5.5t25 -17.5t19.5 -31.5t8 -47.5q0 -40 -15.5 -69t-40 -48.5t-56 -29t-62.5 -9.5q-48 0 -86.5 17.5t-65.5 47.5t-41 70t-14 84q0 66 22 121.5t61 101t92 80t114.5 58t128.5 35.5t135 12q96 0 162.5 -15.5t111.5 -46t72.5 -77t45.5 -107.5l215 -739h217v-88h-193 l78 -262q4 -15 8 -28t9.5 -22.5t14 -15.5t21.5 -6q28 0 52 9.5t42 19.5l17 -37q-18 -13 -45.5 -29.5t-63 -31.5t-78.5 -25t-92 -10q-68 0 -109.5 17t-65 42t-34 53t-16.5 49zM621 1607l272 263q17 15 36 24.5t38 9.5q18 0 34 -8.5t28 -22.5t19 -31.5t7 -35.5 q0 -26 -17.5 -45.5t-41.5 -30.5l-355 -151z"/>
<glyph unicode="" glyph-name="Acircumflex" horiz-adv-x="1528" d="M750 1098q-41 -167 -79.5 -314t-76.5 -274h326zM944 422h-377q-42 -132 -90.5 -229t-107.5 -161t-129.5 -95t-157.5 -31q-48 0 -92.5 8.5t-78.5 23.5t-54.5 35.5t-20.5 44.5q0 18 5.5 36.5t15.5 34t24.5 25t32.5 9.5q16 0 28 -22t30.5 -48.5t47.5 -48.5t80 -22 q52 0 99 25t90.5 78.5t83.5 136.5t78 200h-236v88h262q33 112 64.5 226t59.5 219t50 196.5t37 159.5q-20 56 -54.5 75t-92.5 19q-54 0 -111.5 -16.5t-104.5 -47t-77.5 -75t-30.5 -99.5q0 -32 8.5 -51t20 -28.5t22.5 -12t17 -2.5q24 0 40.5 8.5t29 18t24.5 18t27 8.5 q11 0 24.5 -5.5t25 -17.5t19.5 -31.5t8 -47.5q0 -40 -15.5 -69t-40 -48.5t-56 -29t-62.5 -9.5q-48 0 -86.5 17.5t-65.5 47.5t-41 70t-14 84q0 66 22 121.5t61 101t92 80t114.5 58t128.5 35.5t135 12q96 0 162.5 -15.5t111.5 -46t72.5 -77t45.5 -107.5l215 -739h217v-88h-193 l78 -262q4 -15 8 -28t9.5 -22.5t14 -15.5t21.5 -6q28 0 52 9.5t42 19.5l17 -37q-18 -13 -45.5 -29.5t-63 -31.5t-78.5 -25t-92 -10q-68 0 -109.5 17t-65 42t-34 53t-16.5 49zM836 1904l225 -293l-30 -30l-252 172l-252 -172l-31 30l225 293h115z"/>
<glyph unicode="" glyph-name="Atilde" horiz-adv-x="1528" d="M750 1098q-41 -167 -79.5 -314t-76.5 -274h326zM944 422h-377q-42 -132 -90.5 -229t-107.5 -161t-129.5 -95t-157.5 -31q-48 0 -92.5 8.5t-78.5 23.5t-54.5 35.5t-20.5 44.5q0 18 5.5 36.5t15.5 34t24.5 25t32.5 9.5q16 0 28 -22t30.5 -48.5t47.5 -48.5t80 -22 q52 0 99 25t90.5 78.5t83.5 136.5t78 200h-236v88h262q33 112 64.5 226t59.5 219t50 196.5t37 159.5q-20 56 -54.5 75t-92.5 19q-54 0 -111.5 -16.5t-104.5 -47t-77.5 -75t-30.5 -99.5q0 -32 8.5 -51t20 -28.5t22.5 -12t17 -2.5q24 0 40.5 8.5t29 18t24.5 18t27 8.5 q11 0 24.5 -5.5t25 -17.5t19.5 -31.5t8 -47.5q0 -40 -15.5 -69t-40 -48.5t-56 -29t-62.5 -9.5q-48 0 -86.5 17.5t-65.5 47.5t-41 70t-14 84q0 66 22 121.5t61 101t92 80t114.5 58t128.5 35.5t135 12q96 0 162.5 -15.5t111.5 -46t72.5 -77t45.5 -107.5l215 -739h217v-88h-193 l78 -262q4 -15 8 -28t9.5 -22.5t14 -15.5t21.5 -6q28 0 52 9.5t42 19.5l17 -37q-18 -13 -45.5 -29.5t-63 -31.5t-78.5 -25t-92 -10q-68 0 -109.5 17t-65 42t-34 53t-16.5 49zM650 1726q-22 0 -40 -9.5t-31.5 -25t-22.5 -36t-13 -41.5h-45q5 63 22.5 109.5t42 77.5t53 46.5 t56.5 15.5q35 0 67 -15.5t61.5 -33.5t56 -33.5t51.5 -15.5q21 0 39 9.5t31.5 25t22.5 36t13 42.5h45q-5 -63 -22.5 -110t-42 -78t-53 -46.5t-56.5 -15.5q-35 0 -67 15.5t-61.5 33.5t-56 33.5t-50.5 15.5z"/>
<glyph unicode="" glyph-name="Adieresis" horiz-adv-x="1528" d="M750 1098q-41 -167 -79.5 -314t-76.5 -274h326zM944 422h-377q-42 -132 -90.5 -229t-107.5 -161t-129.5 -95t-157.5 -31q-48 0 -92.5 8.5t-78.5 23.5t-54.5 35.5t-20.5 44.5q0 18 5.5 36.5t15.5 34t24.5 25t32.5 9.5q16 0 28 -22t30.5 -48.5t47.5 -48.5t80 -22 q52 0 99 25t90.5 78.5t83.5 136.5t78 200h-236v88h262q33 112 64.5 226t59.5 219t50 196.5t37 159.5q-20 56 -54.5 75t-92.5 19q-54 0 -111.5 -16.5t-104.5 -47t-77.5 -75t-30.5 -99.5q0 -32 8.5 -51t20 -28.5t22.5 -12t17 -2.5q24 0 40.5 8.5t29 18t24.5 18t27 8.5 q11 0 24.5 -5.5t25 -17.5t19.5 -31.5t8 -47.5q0 -40 -15.5 -69t-40 -48.5t-56 -29t-62.5 -9.5q-48 0 -86.5 17.5t-65.5 47.5t-41 70t-14 84q0 66 22 121.5t61 101t92 80t114.5 58t128.5 35.5t135 12q96 0 162.5 -15.5t111.5 -46t72.5 -77t45.5 -107.5l215 -739h217v-88h-193 l78 -262q4 -15 8 -28t9.5 -22.5t14 -15.5t21.5 -6q28 0 52 9.5t42 19.5l17 -37q-18 -13 -45.5 -29.5t-63 -31.5t-78.5 -25t-92 -10q-68 0 -109.5 17t-65 42t-34 53t-16.5 49zM846 1751q0 22 8.5 41.5t23.5 34.5t34.5 23.5t42.5 8.5q22 0 41.5 -8.5t34.5 -23.5t23.5 -34.5 t8.5 -41.5q0 -23 -8.5 -42.5t-23.5 -34.5t-34.5 -23.5t-41.5 -8.5q-23 0 -42.5 8.5t-34.5 23.5t-23.5 34.5t-8.5 42.5zM494 1751q0 22 8.5 41.5t23.5 34.5t34.5 23.5t41.5 8.5t42 -8.5t35 -23.5t23.5 -34.5t8.5 -41.5q0 -23 -8.5 -42.5t-23.5 -34.5t-35 -23.5t-42 -8.5 t-41.5 8.5t-34.5 23.5t-23.5 34.5t-8.5 42.5z"/>
<glyph unicode="" glyph-name="Aring" horiz-adv-x="1528" d="M750 1098q-41 -167 -79.5 -314t-76.5 -274h326zM944 422h-377q-42 -132 -90.5 -229t-107.5 -161t-129.5 -95t-157.5 -31q-48 0 -92.5 8.5t-78.5 23.5t-54.5 35.5t-20.5 44.5q0 18 5.5 36.5t15.5 34t24.5 25t32.5 9.5q16 0 28 -22t30.5 -48.5t47.5 -48.5t80 -22 q52 0 99 25t90.5 78.5t83.5 136.5t78 200h-236v88h262q33 112 64.5 226t59.5 219t50 196.5t37 159.5q-20 56 -54.5 75t-92.5 19q-54 0 -111.5 -16.5t-104.5 -47t-77.5 -75t-30.5 -99.5q0 -32 8.5 -51t20 -28.5t22.5 -12t17 -2.5q24 0 40.5 8.5t29 18t24.5 18t27 8.5 q11 0 24.5 -5.5t25 -17.5t19.5 -31.5t8 -47.5q0 -40 -15.5 -69t-40 -48.5t-56 -29t-62.5 -9.5q-48 0 -86.5 17.5t-65.5 47.5t-41 70t-14 84q0 66 22 121.5t61 101t92 80t114.5 58t128.5 35.5t135 12q96 0 162.5 -15.5t111.5 -46t72.5 -77t45.5 -107.5l215 -739h217v-88h-193 l78 -262q4 -15 8 -28t9.5 -22.5t14 -15.5t21.5 -6q28 0 52 9.5t42 19.5l17 -37q-18 -13 -45.5 -29.5t-63 -31.5t-78.5 -25t-92 -10q-68 0 -109.5 17t-65 42t-34 53t-16.5 49zM668 1783q0 -23 8.5 -43t23.5 -35t35.5 -23.5t43.5 -8.5t43 8.5t35 23.5t23.5 35t8.5 43 t-8.5 43.5t-23.5 35.5t-35 23.5t-43 8.5t-43.5 -8.5t-35.5 -23.5t-23.5 -35.5t-8.5 -43.5zM555 1783q0 46 17.5 87t48 71.5t71.5 48t87 17.5t86.5 -17.5t71 -48t48 -71.5t17.5 -87t-17.5 -86.5t-48 -71t-71 -48t-86.5 -17.5t-87 17.5t-71.5 48t-48 71t-17.5 86.5z"/>
<glyph unicode="" glyph-name="AE" horiz-adv-x="1827" d="M864 1409q-63 -263 -124.5 -488t-121.5 -411h302v899h-56zM1663 688h-416v-391q0 -47 14.5 -80.5t40.5 -55.5t62.5 -32t81.5 -10q51 0 102 10.5t96.5 26.5t83 36t60.5 39l39 -43q-26 -20 -67.5 -54.5t-102.5 -67.5t-141.5 -57.5t-182.5 -24.5q-33 0 -76.5 3.5t-89.5 14 t-90.5 31t-79 54.5t-56 83.5t-21.5 118.5v133h-332q-46 -130 -97 -226.5t-111 -161t-131 -96.5t-157 -32q-51 0 -97 8.5t-81.5 23.5t-56.5 35.5t-21 44.5q0 18 5.5 36.5t15.5 34t24.5 25t32.5 9.5q11 0 19.5 -11t17.5 -27.5t20.5 -35.5t30 -35.5t44.5 -27.5t65 -11 q112 0 199 109t165 338h-239v88h268q30 91 58 183.5t52.5 181t46 170t38.5 150.5t28.5 123t17.5 87q-126 -10 -216 -35t-147.5 -60.5t-84.5 -79t-27 -91.5q0 -32 8.5 -49.5t20 -25.5t23 -9.5t16.5 -1.5q24 0 40.5 8.5t29 18t24.5 18t27 8.5q11 0 24.5 -5.5t25.5 -17.5 t20 -31.5t8 -47.5q0 -40 -15.5 -69.5t-40.5 -48.5t-56.5 -28.5t-62.5 -9.5q-48 0 -86.5 17t-65 46t-40.5 68t-14 84q0 114 55.5 195.5t160.5 134t256.5 77.5t344.5 25q166 0 290.5 -1.5t213 -4.5t142.5 -7t79 -9q23 -5 36.5 -11t21 -14t9.5 -18.5t2 -24.5q0 -12 -2.5 -26.5 t-8.5 -27t-15.5 -21.5t-22.5 -9q-8 0 -17 7t-26.5 18t-47.5 23t-79.5 23t-123 18t-177.5 7v-641h416v-88z"/>
<glyph unicode="" glyph-name="Ccedilla" horiz-adv-x="1116" d="M768 1409q-27 0 -63 -10q-35 -10 -73 -38t-74 -78t-64 -130q-28 -79 -46 -193t-18 -270q0 -148 18 -256t46 -186q30 -76 68 -124t80 -75t84 -37t79 -10q39 0 79 10t78 29t74 47t66 62l45 -46q-30 -38 -72 -76q-41 -38 -97 -70t-125 -51q-69 -20 -153 -20h-32l-11 -45 q63 0 110 -14t78 -37t47 -53t15 -60q-1 -56 -25 -92t-62 -59t-85 -31q-46 -8 -88 -8q-41 0 -77 7t-66 18t-52 24q-23 13 -38 25l18 32q40 -20 84 -30q36 -8 71 -8h15q32 0 59 8t47 22t30 34q10 21 10 50q0 36 -15 60t-40 38t-56 20t-62 7l25 101q-112 16 -207 70t-164 152 q-69 97 -108 239t-39 333q0 200 50 350t136 252t202 152q116 51 247 51q87 -1 159 -17t123 -48q53 -32 81 -78t28 -105q0 -27 -9 -57t-27 -54t-46 -40q-27 -16 -63 -15q-31 0 -49 14t-26 37q-8 22 -12 52q-2 30 -3 61t-5 61t-14 52q-10 23 -30 37t-56 14z"/>
<glyph unicode="" glyph-name="Egrave" horiz-adv-x="1415" d="M0 1061q0 117 64.5 199t176.5 134.5t261 76.5t319 24q81 0 158 -1.5t140.5 -4.5t109.5 -7t67 -9q20 -5 32 -11t18 -14t8 -18.5t2 -24.5q0 -12 -3 -26.5t-9 -27t-15 -21.5t-22 -9q-8 0 -17.5 7t-27 18t-47 23t-79 23t-123 18t-177.5 7v-641h415v-88h-415v-391 q0 -47 14 -80.5t40 -55.5t62.5 -32t81.5 -10q51 0 102 10.5t96.5 26.5t83 36t60.5 39l39 -43q-25 -20 -67 -54.5t-102.5 -67.5t-141 -57.5t-182.5 -24.5q-34 0 -77.5 3.5t-89.5 14t-90.5 31t-79 54.5t-56 83.5t-21.5 118.5v399h-156v88h156v629q-32 -3 -73.5 -11.5t-85 -24 t-85.5 -36.5t-75 -49t-53.5 -62.5t-20.5 -74.5q0 -32 8.5 -51t19.5 -28.5t22.5 -12t16.5 -2.5q25 0 41 8.5t29 18t24.5 18t26.5 8.5q12 0 25.5 -5.5t25 -17.5t19.5 -31.5t8 -47.5q0 -40 -15.5 -69.5t-40 -48.5t-56 -28.5t-62.5 -9.5q-48 0 -86.5 16.5t-65.5 45.5t-41 67.5 t-14 83.5zM989 1579l-355 151q-24 11 -41.5 30.5t-17.5 45.5q0 18 7 35.5t19 31.5t28 22.5t34 8.5q19 0 38 -9.5t36 -24.5l272 -263z"/>
<glyph unicode="" glyph-name="Eacute" horiz-adv-x="1415" d="M0 1061q0 117 64.5 199t176.5 134.5t261 76.5t319 24q81 0 158 -1.5t140.5 -4.5t109.5 -7t67 -9q20 -5 32 -11t18 -14t8 -18.5t2 -24.5q0 -12 -3 -26.5t-9 -27t-15 -21.5t-22 -9q-8 0 -17.5 7t-27 18t-47 23t-79 23t-123 18t-177.5 7v-641h415v-88h-415v-391 q0 -47 14 -80.5t40 -55.5t62.5 -32t81.5 -10q51 0 102 10.5t96.5 26.5t83 36t60.5 39l39 -43q-25 -20 -67 -54.5t-102.5 -67.5t-141 -57.5t-182.5 -24.5q-34 0 -77.5 3.5t-89.5 14t-90.5 31t-79 54.5t-56 83.5t-21.5 118.5v399h-156v88h156v629q-32 -3 -73.5 -11.5t-85 -24 t-85.5 -36.5t-75 -49t-53.5 -62.5t-20.5 -74.5q0 -32 8.5 -51t19.5 -28.5t22.5 -12t16.5 -2.5q25 0 41 8.5t29 18t24.5 18t26.5 8.5q12 0 25.5 -5.5t25 -17.5t19.5 -31.5t8 -47.5q0 -40 -15.5 -69.5t-40 -48.5t-56 -28.5t-62.5 -9.5q-48 0 -86.5 16.5t-65.5 45.5t-41 67.5 t-14 83.5zM696 1607l272 263q17 15 36 24.5t38 9.5q18 0 34 -8.5t28 -22.5t19 -31.5t7 -35.5q0 -26 -17.5 -45.5t-41.5 -30.5l-355 -151z"/>
<glyph unicode="" glyph-name="Ecircumflex" horiz-adv-x="1415" d="M0 1061q0 117 64.5 199t176.5 134.5t261 76.5t319 24q81 0 158 -1.5t140.5 -4.5t109.5 -7t67 -9q20 -5 32 -11t18 -14t8 -18.5t2 -24.5q0 -12 -3 -26.5t-9 -27t-15 -21.5t-22 -9q-8 0 -17.5 7t-27 18t-47 23t-79 23t-123 18t-177.5 7v-641h415v-88h-415v-391 q0 -47 14 -80.5t40 -55.5t62.5 -32t81.5 -10q51 0 102 10.5t96.5 26.5t83 36t60.5 39l39 -43q-25 -20 -67 -54.5t-102.5 -67.5t-141 -57.5t-182.5 -24.5q-34 0 -77.5 3.5t-89.5 14t-90.5 31t-79 54.5t-56 83.5t-21.5 118.5v399h-156v88h156v629q-32 -3 -73.5 -11.5t-85 -24 t-85.5 -36.5t-75 -49t-53.5 -62.5t-20.5 -74.5q0 -32 8.5 -51t19.5 -28.5t22.5 -12t16.5 -2.5q25 0 41 8.5t29 18t24.5 18t26.5 8.5q12 0 25.5 -5.5t25 -17.5t19.5 -31.5t8 -47.5q0 -40 -15.5 -69.5t-40 -48.5t-56 -28.5t-62.5 -9.5q-48 0 -86.5 16.5t-65.5 45.5t-41 67.5 t-14 83.5zM911 1904l225 -293l-30 -30l-252 172l-252 -172l-31 30l225 293h115z"/>
<glyph unicode="" glyph-name="Edieresis" horiz-adv-x="1415" d="M0 1061q0 117 64.5 199t176.5 134.5t261 76.5t319 24q81 0 158 -1.5t140.5 -4.5t109.5 -7t67 -9q20 -5 32 -11t18 -14t8 -18.5t2 -24.5q0 -12 -3 -26.5t-9 -27t-15 -21.5t-22 -9q-8 0 -17.5 7t-27 18t-47 23t-79 23t-123 18t-177.5 7v-641h415v-88h-415v-391 q0 -47 14 -80.5t40 -55.5t62.5 -32t81.5 -10q51 0 102 10.5t96.5 26.5t83 36t60.5 39l39 -43q-25 -20 -67 -54.5t-102.5 -67.5t-141 -57.5t-182.5 -24.5q-34 0 -77.5 3.5t-89.5 14t-90.5 31t-79 54.5t-56 83.5t-21.5 118.5v399h-156v88h156v629q-32 -3 -73.5 -11.5t-85 -24 t-85.5 -36.5t-75 -49t-53.5 -62.5t-20.5 -74.5q0 -32 8.5 -51t19.5 -28.5t22.5 -12t16.5 -2.5q25 0 41 8.5t29 18t24.5 18t26.5 8.5q12 0 25.5 -5.5t25 -17.5t19.5 -31.5t8 -47.5q0 -40 -15.5 -69.5t-40 -48.5t-56 -28.5t-62.5 -9.5q-48 0 -86.5 16.5t-65.5 45.5t-41 67.5 t-14 83.5zM921 1751q0 22 8.5 41.5t23.5 34.5t34.5 23.5t42.5 8.5q22 0 41.5 -8.5t34.5 -23.5t23.5 -34.5t8.5 -41.5q0 -23 -8.5 -42.5t-23.5 -34.5t-34.5 -23.5t-41.5 -8.5q-23 0 -42.5 8.5t-34.5 23.5t-23.5 34.5t-8.5 42.5zM569 1751q0 22 8.5 41.5t23.5 34.5t34.5 23.5 t41.5 8.5t42 -8.5t35 -23.5t23.5 -34.5t8.5 -41.5q0 -23 -8.5 -42.5t-23.5 -34.5t-35 -23.5t-42 -8.5t-41.5 8.5t-34.5 23.5t-23.5 34.5t-8.5 42.5z"/>
<glyph unicode="" glyph-name="Igrave" horiz-adv-x="987" d="M836 131q0 -77 -40.5 -112t-123.5 -35q-84 0 -124 35t-40 112v1204q0 22 -5 35t-14 20.5t-21.5 10t-27.5 2.5q-22 0 -54.5 -7t-68.5 -21t-72.5 -34.5t-65 -46.5t-46.5 -58t-18 -69q0 -32 8.5 -51t19.5 -28.5t22.5 -12t16.5 -2.5q25 0 41 8.5t29 18t24.5 18t26.5 8.5 q12 0 25.5 -5.5t25 -17.5t19.5 -31.5t8 -47.5q0 -40 -15.5 -69t-40 -48.5t-56 -29t-62.5 -9.5q-48 0 -86.5 16.5t-65.5 45.5t-41 68t-14 83q0 69 25 126.5t68.5 103.5t102 80.5t126.5 57.5t142 34.5t148 11.5q82 0 127.5 -15.5t67 -37.5t25.5 -46t4 -40v-1225zM764 1579 l-355 151q-24 11 -41.5 30.5t-17.5 45.5q0 18 7 35.5t19 31.5t28 22.5t34 8.5q19 0 38 -9.5t36 -24.5l272 -263z"/>
<glyph unicode="" glyph-name="Iacute" horiz-adv-x="987" d="M836 131q0 -77 -40.5 -112t-123.5 -35q-84 0 -124 35t-40 112v1204q0 22 -5 35t-14 20.5t-21.5 10t-27.5 2.5q-22 0 -54.5 -7t-68.5 -21t-72.5 -34.5t-65 -46.5t-46.5 -58t-18 -69q0 -32 8.5 -51t19.5 -28.5t22.5 -12t16.5 -2.5q25 0 41 8.5t29 18t24.5 18t26.5 8.5 q12 0 25.5 -5.5t25 -17.5t19.5 -31.5t8 -47.5q0 -40 -15.5 -69t-40 -48.5t-56 -29t-62.5 -9.5q-48 0 -86.5 16.5t-65.5 45.5t-41 68t-14 83q0 69 25 126.5t68.5 103.5t102 80.5t126.5 57.5t142 34.5t148 11.5q82 0 127.5 -15.5t67 -37.5t25.5 -46t4 -40v-1225zM471 1607 l272 263q17 15 36 24.5t38 9.5q18 0 34 -8.5t28 -22.5t19 -31.5t7 -35.5q0 -26 -17.5 -45.5t-41.5 -30.5l-355 -151z"/>
<glyph unicode="" glyph-name="Icircumflex" horiz-adv-x="987" d="M836 131q0 -77 -40.5 -112t-123.5 -35q-84 0 -124 35t-40 112v1204q0 22 -5 35t-14 20.5t-21.5 10t-27.5 2.5q-22 0 -54.5 -7t-68.5 -21t-72.5 -34.5t-65 -46.5t-46.5 -58t-18 -69q0 -32 8.5 -51t19.5 -28.5t22.5 -12t16.5 -2.5q25 0 41 8.5t29 18t24.5 18t26.5 8.5 q12 0 25.5 -5.5t25 -17.5t19.5 -31.5t8 -47.5q0 -40 -15.5 -69t-40 -48.5t-56 -29t-62.5 -9.5q-48 0 -86.5 16.5t-65.5 45.5t-41 68t-14 83q0 69 25 126.5t68.5 103.5t102 80.5t126.5 57.5t142 34.5t148 11.5q82 0 127.5 -15.5t67 -37.5t25.5 -46t4 -40v-1225zM686 1904 l225 -293l-30 -30l-252 172l-252 -172l-31 30l225 293h115z"/>
<glyph unicode="" glyph-name="Idieresis" horiz-adv-x="987" d="M836 131q0 -77 -40.5 -112t-123.5 -35q-84 0 -124 35t-40 112v1204q0 22 -5 35t-14 20.5t-21.5 10t-27.5 2.5q-22 0 -54.5 -7t-68.5 -21t-72.5 -34.5t-65 -46.5t-46.5 -58t-18 -69q0 -32 8.5 -51t19.5 -28.5t22.5 -12t16.5 -2.5q25 0 41 8.5t29 18t24.5 18t26.5 8.5 q12 0 25.5 -5.5t25 -17.5t19.5 -31.5t8 -47.5q0 -40 -15.5 -69t-40 -48.5t-56 -29t-62.5 -9.5q-48 0 -86.5 16.5t-65.5 45.5t-41 68t-14 83q0 69 25 126.5t68.5 103.5t102 80.5t126.5 57.5t142 34.5t148 11.5q82 0 127.5 -15.5t67 -37.5t25.5 -46t4 -40v-1225zM696 1751 q0 22 8.5 41.5t23.5 34.5t34.5 23.5t42.5 8.5q22 0 41.5 -8.5t34.5 -23.5t23.5 -34.5t8.5 -41.5q0 -23 -8.5 -42.5t-23.5 -34.5t-34.5 -23.5t-41.5 -8.5q-23 0 -42.5 8.5t-34.5 23.5t-23.5 34.5t-8.5 42.5zM344 1751q0 22 8.5 41.5t23.5 34.5t34.5 23.5t41.5 8.5t42 -8.5 t35 -23.5t23.5 -34.5t8.5 -41.5q0 -23 -8.5 -42.5t-23.5 -34.5t-35 -23.5t-42 -8.5t-41.5 8.5t-34.5 23.5t-23.5 34.5t-8.5 42.5z"/>
<glyph unicode="" glyph-name="Eth" horiz-adv-x="1694" d="M1061 686h-244v-496q-1 -58 25 -82t76 -24q74 0 138 33t110 113t72 215q26 134 26 337q0 136 -16 236t-44 168q-28 70 -62 114t-70 68t-70 32t-62 9q-65 0 -94 -29t-29 -104v-502h244v-88zM487 686h-217v88h217v545q1 31 -23 47t-52 16q-56 0 -109 -16t-95 -46 q-42 -28 -68 -68t-25 -85q1 -32 9 -51q8 -18 19 -28t23 -12t16 -3q25 1 41 9t29 18q12 10 24 18t27 8q11 0 25 -6t26 -17t19 -31q8 -20 8 -48q1 -40 -15 -69t-40 -49t-56 -28q-32 -10 -63 -10q-49 0 -87 16t-65 46q-27 29 -41 68t-14 83q0 125 63 205t171 128q108 46 254 64 q144 18 307 17q187 1 337 -37t257 -122t165 -220t58 -330q0 -195 -62 -346q-62 -152 -168 -254t-250 -156t-307 -53q-109 1 -175 11t-103 36q-36 26 -48 68t-12 107v487z"/>
<glyph unicode="" glyph-name="Ntilde" horiz-adv-x="1669" d="M496 961q0 91 -1.5 167t-3 132.5t-3 89.5t-1.5 39q-20 14 -45.5 15t-50.5 1q-35 0 -84 -16.5t-95 -47t-78 -75t-32 -99.5q0 -32 8.5 -51t20 -28.5t23 -12t16.5 -2.5q25 0 41 8.5t29 18t24.5 18t26.5 8.5q12 0 25.5 -5.5t25 -17.5t19.5 -31.5t8 -47.5q0 -40 -15.5 -69 t-40 -48.5t-56 -29t-62.5 -9.5q-48 0 -86.5 16.5t-65.5 45.5t-41 68t-14 83q0 104 43.5 181.5t116 129.5t167 77.5t195.5 25.5q91 0 150 -12t96 -32t58 -47.5t36 -57.5q61 -124 118.5 -244t111 -234t104 -219.5t98.5 -199.5v143v309q0 83 4.5 162.5t19 150t43.5 129.5 t77.5 102t120.5 67t173 24q51 0 94 -7.5t74.5 -21.5t49.5 -34.5t18 -45.5q0 -16 -4.5 -33.5t-13.5 -31.5t-22.5 -23.5t-31.5 -9.5q-15 0 -27.5 21t-31 46.5t-49 46.5t-82.5 21q-81 0 -134.5 -28.5t-86.5 -80.5t-48.5 -126.5t-19.5 -165.5q-2 -63 -3.5 -122.5t-2 -120.5 t-0.5 -126.5v-140.5q0 -106 1 -190t3 -138q45 -77 89 -138.5t86.5 -104t85.5 -65.5t87 -23q14 0 27 4t23 9q11 5 22 13l32 -39q-14 -10 -39.5 -24t-62 -27t-83.5 -22t-103 -9q-81 0 -155.5 39.5t-143.5 108.5t-132 161.5t-121.5 198.5t-112.5 221t-104.5 227.5t-97 218 t-90.5 193.5q0 -58 1 -120t1 -125v-310q0 -83 -4 -162t-19 -149.5t-43.5 -130t-77.5 -102.5t-121 -67t-173 -24q-51 0 -94 7.5t-74.5 21.5t-49 34t-17.5 46q0 16 4.5 33.5t13.5 31.5t22 23.5t31 9.5q10 0 18.5 -10t18 -25t22 -32.5t30 -32.5t42.5 -25t60 -10 q81 0 134.5 28.5t86.5 81t48 126.5t19 166q3 63 4 122t2 120t1 127v141zM889 1726q-22 0 -40 -9.5t-31.5 -25t-22.5 -36t-13 -41.5h-45q5 63 22.5 109.5t42 77.5t53 46.5t56.5 15.5q35 0 67 -15.5t61.5 -33.5t56 -33.5t51.5 -15.5q21 0 39 9.5t31.5 25t22.5 36t13 42.5h45 q-5 -63 -22.5 -110t-42 -78t-53 -46.5t-56.5 -15.5q-35 0 -67 15.5t-61.5 33.5t-56 33.5t-50.5 15.5z"/>
<glyph unicode="" glyph-name="Ograve" horiz-adv-x="1473" d="M645 1178q0 -35 11 -57.5t27.5 -38t35.5 -25.5t35.5 -21t27.5 -25t11 -36q0 -37 -26 -56.5t-60 -19.5q-32 0 -59.5 20t-48 54.5t-32.5 81t-12 98.5q0 64 20 122.5t59 103t96.5 70.5t131.5 26q50 0 109 -16.5t117.5 -52.5t113 -93t97 -139t67.5 -190t25 -245 q0 -177 -52.5 -317t-142 -237.5t-207.5 -149t-250 -51.5q-131 0 -250 45t-209.5 137.5t-144 235t-53.5 337.5q0 151 40.5 275t109 220t159.5 161.5t193 99.5l34 -43q-29 -29 -54 -60t-46 -70.5t-37.5 -91t-27.5 -121t-17 -160.5t-6 -210q0 -154 16.5 -263t43 -182.5t60 -117 t67.5 -65.5t66 -28.5t56 -6.5t55.5 6.5t65 28.5t66.5 65.5t58.5 117t41.5 182.5t16 263q0 135 -12 235t-31.5 171t-45 116.5t-53 72t-55 36.5t-50.5 10q-36 0 -64 -17t-47 -45.5t-29 -65t-10 -74.5zM895 1579l-355 151q-24 11 -41.5 30.5t-17.5 45.5q0 18 7 35.5t19 31.5 t28 22.5t34 8.5q19 0 38 -9.5t36 -24.5l272 -263z"/>
<glyph unicode="" glyph-name="Oacute" horiz-adv-x="1473" d="M645 1178q0 -35 11 -57.5t27.5 -38t35.5 -25.5t35.5 -21t27.5 -25t11 -36q0 -37 -26 -56.5t-60 -19.5q-32 0 -59.5 20t-48 54.5t-32.5 81t-12 98.5q0 64 20 122.5t59 103t96.5 70.5t131.5 26q50 0 109 -16.5t117.5 -52.5t113 -93t97 -139t67.5 -190t25 -245 q0 -177 -52.5 -317t-142 -237.5t-207.5 -149t-250 -51.5q-131 0 -250 45t-209.5 137.5t-144 235t-53.5 337.5q0 151 40.5 275t109 220t159.5 161.5t193 99.5l34 -43q-29 -29 -54 -60t-46 -70.5t-37.5 -91t-27.5 -121t-17 -160.5t-6 -210q0 -154 16.5 -263t43 -182.5t60 -117 t67.5 -65.5t66 -28.5t56 -6.5t55.5 6.5t65 28.5t66.5 65.5t58.5 117t41.5 182.5t16 263q0 135 -12 235t-31.5 171t-45 116.5t-53 72t-55 36.5t-50.5 10q-36 0 -64 -17t-47 -45.5t-29 -65t-10 -74.5zM602 1607l272 263q17 15 36 24.5t38 9.5q18 0 34 -8.5t28 -22.5t19 -31.5 t7 -35.5q0 -26 -17.5 -45.5t-41.5 -30.5l-355 -151z"/>
<glyph unicode="" glyph-name="Ocircumflex" horiz-adv-x="1473" d="M645 1178q0 -35 11 -57.5t27.5 -38t35.5 -25.5t35.5 -21t27.5 -25t11 -36q0 -37 -26 -56.5t-60 -19.5q-32 0 -59.5 20t-48 54.5t-32.5 81t-12 98.5q0 64 20 122.5t59 103t96.5 70.5t131.5 26q50 0 109 -16.5t117.5 -52.5t113 -93t97 -139t67.5 -190t25 -245 q0 -177 -52.5 -317t-142 -237.5t-207.5 -149t-250 -51.5q-131 0 -250 45t-209.5 137.5t-144 235t-53.5 337.5q0 151 40.5 275t109 220t159.5 161.5t193 99.5l34 -43q-29 -29 -54 -60t-46 -70.5t-37.5 -91t-27.5 -121t-17 -160.5t-6 -210q0 -154 16.5 -263t43 -182.5t60 -117 t67.5 -65.5t66 -28.5t56 -6.5t55.5 6.5t65 28.5t66.5 65.5t58.5 117t41.5 182.5t16 263q0 135 -12 235t-31.5 171t-45 116.5t-53 72t-55 36.5t-50.5 10q-36 0 -64 -17t-47 -45.5t-29 -65t-10 -74.5zM817 1904l225 -293l-30 -30l-252 172l-252 -172l-31 30l225 293h115z"/>
<glyph unicode="" glyph-name="Otilde" horiz-adv-x="1473" d="M645 1178q0 -35 11 -57.5t27.5 -38t35.5 -25.5t35.5 -21t27.5 -25t11 -36q0 -37 -26 -56.5t-60 -19.5q-32 0 -59.5 20t-48 54.5t-32.5 81t-12 98.5q0 64 20 122.5t59 103t96.5 70.5t131.5 26q50 0 109 -16.5t117.5 -52.5t113 -93t97 -139t67.5 -190t25 -245 q0 -177 -52.5 -317t-142 -237.5t-207.5 -149t-250 -51.5q-131 0 -250 45t-209.5 137.5t-144 235t-53.5 337.5q0 151 40.5 275t109 220t159.5 161.5t193 99.5l34 -43q-29 -29 -54 -60t-46 -70.5t-37.5 -91t-27.5 -121t-17 -160.5t-6 -210q0 -154 16.5 -263t43 -182.5t60 -117 t67.5 -65.5t66 -28.5t56 -6.5t55.5 6.5t65 28.5t66.5 65.5t58.5 117t41.5 182.5t16 263q0 135 -12 235t-31.5 171t-45 116.5t-53 72t-55 36.5t-50.5 10q-36 0 -64 -17t-47 -45.5t-29 -65t-10 -74.5zM631 1726q-22 0 -40 -9.5t-31.5 -25t-22.5 -36t-13 -41.5h-45 q5 63 22.5 109.5t42 77.5t53 46.5t56.5 15.5q35 0 67 -15.5t61.5 -33.5t56 -33.5t51.5 -15.5q21 0 39 9.5t31.5 25t22.5 36t13 42.5h45q-5 -63 -22.5 -110t-42 -78t-53 -46.5t-56.5 -15.5q-35 0 -67 15.5t-61.5 33.5t-56 33.5t-50.5 15.5z"/>
<glyph unicode="" glyph-name="Odieresis" horiz-adv-x="1473" d="M645 1178q0 -35 11 -57.5t27.5 -38t35.5 -25.5t35.5 -21t27.5 -25t11 -36q0 -37 -26 -56.5t-60 -19.5q-32 0 -59.5 20t-48 54.5t-32.5 81t-12 98.5q0 64 20 122.5t59 103t96.5 70.5t131.5 26q50 0 109 -16.5t117.5 -52.5t113 -93t97 -139t67.5 -190t25 -245 q0 -177 -52.5 -317t-142 -237.5t-207.5 -149t-250 -51.5q-131 0 -250 45t-209.5 137.5t-144 235t-53.5 337.5q0 151 40.5 275t109 220t159.5 161.5t193 99.5l34 -43q-29 -29 -54 -60t-46 -70.5t-37.5 -91t-27.5 -121t-17 -160.5t-6 -210q0 -154 16.5 -263t43 -182.5t60 -117 t67.5 -65.5t66 -28.5t56 -6.5t55.5 6.5t65 28.5t66.5 65.5t58.5 117t41.5 182.5t16 263q0 135 -12 235t-31.5 171t-45 116.5t-53 72t-55 36.5t-50.5 10q-36 0 -64 -17t-47 -45.5t-29 -65t-10 -74.5zM827 1751q0 22 8.5 41.5t23.5 34.5t34.5 23.5t42.5 8.5q22 0 41.5 -8.5 t34.5 -23.5t23.5 -34.5t8.5 -41.5q0 -23 -8.5 -42.5t-23.5 -34.5t-34.5 -23.5t-41.5 -8.5q-23 0 -42.5 8.5t-34.5 23.5t-23.5 34.5t-8.5 42.5zM475 1751q0 22 8.5 41.5t23.5 34.5t34.5 23.5t41.5 8.5t42 -8.5t35 -23.5t23.5 -34.5t8.5 -41.5q0 -23 -8.5 -42.5t-23.5 -34.5 t-35 -23.5t-42 -8.5t-41.5 8.5t-34.5 23.5t-23.5 34.5t-8.5 42.5z"/>
<glyph unicode="" glyph-name="multiply" horiz-adv-x="969" d="M137 383l223 223l-223 223l123 123l223 -223l224 223l122 -123l-223 -223l223 -223l-122 -123l-224 223l-223 -223z"/>
<glyph unicode="" glyph-name="Oslash" horiz-adv-x="1473" d="M1042 739q0 121 -9.5 212.5t-26.5 160.5l-504 -854q27 -62 59 -98t64 -54.5t62 -24t52 -5.5q24 0 55.5 6.5t65 28.5t66.5 65.5t58.5 117t41.5 182.5t16 263zM645 1202q0 -31 11 -50.5t27.5 -33t35.5 -22.5t35.5 -18.5t27.5 -22t11 -31.5q0 -37 -26 -56.5t-60 -19.5 q-32 0 -59.5 18.5t-48 50t-32.5 73.5t-12 90q0 59 20 112.5t59 94t96.5 64.5t131.5 24q48 0 105 -16t114 -50l86 147l76 -43l-92 -153q49 -42 92.5 -99.5t76.5 -134t52 -173t19 -214.5q0 -177 -52.5 -317t-142 -237.5t-207.5 -149t-250 -51.5q-94 0 -181 21.5t-163 68.5 l-90 -152l-76 43l95 160q-55 45 -99.5 106t-76 137.5t-49 169t-17.5 201.5q0 151 40.5 275t109 220t159.5 161.5t193 99.5l34 -43q-29 -29 -54 -60t-46 -70.5t-37.5 -91t-27.5 -121t-17 -160.5t-6 -210q0 -120 10 -210.5t27 -159.5l504 856q-19 46 -41.5 76t-46 47.5 t-46 24.5t-42.5 7q-36 0 -64 -15t-47 -40t-29 -57t-10 -66z"/>
<glyph unicode="" glyph-name="Ugrave" horiz-adv-x="1716" d="M1411 -16q-51 0 -84 9.5t-53.5 25.5t-30.5 35.5t-14 39.5q-63 -46 -145 -78t-185 -32q-92 0 -170.5 26t-137 80.5t-91.5 140t-33 205.5q0 88 3 158t7.5 131.5t10 118.5t10 119t7.5 133t3 161q0 28 -5.5 53.5t-18 45t-34.5 31.5t-55 12q-32 0 -80 -15.5t-92.5 -45t-76 -73 t-31.5 -98.5q0 -32 8.5 -51t19.5 -28.5t22.5 -12t16.5 -2.5q25 0 41 8.5t29 18t24.5 18t26.5 8.5q12 0 25.5 -5.5t25 -17.5t19.5 -31.5t8 -47.5q0 -40 -15.5 -69t-40 -48.5t-56 -29t-62.5 -9.5q-48 0 -86.5 16.5t-65.5 45.5t-41 68t-14 83q0 69 23 126.5t63 103.5t92.5 80.5 t112.5 57.5t123 34.5t123 11.5q69 0 117.5 -14.5t82 -37.5t53 -51t30 -54.5t13.5 -48t3 -32.5q0 -81 -3 -148.5t-7.5 -129.5t-10 -121.5t-10 -124t-7.5 -137t-3 -160.5q0 -109 21.5 -175.5t53.5 -102.5t68.5 -48t65.5 -12q55 0 111.5 18t109.5 52v1159q0 29 -12.5 46.5 t-38.5 17.5q-28 0 -52 -10t-43 -19l-16 37q25 13 61 29.5t77 31.5t84 25t81 10q68 0 105.5 -17.5t55.5 -43t21.5 -54.5t3.5 -51v-1177q0 -29 13 -46.5t39 -17.5q27 0 51 9.5t43 19.5l16 -37q-25 -13 -61 -29.5t-77 -31.5t-84 -25t-81 -10zM1104 1579l-355 151 q-24 11 -41.5 30.5t-17.5 45.5q0 18 7 35.5t19 31.5t28 22.5t34 8.5q19 0 38 -9.5t36 -24.5l272 -263z"/>
<glyph unicode="" glyph-name="Uacute" horiz-adv-x="1716" d="M1411 -16q-51 0 -84 9.5t-53.5 25.5t-30.5 35.5t-14 39.5q-63 -46 -145 -78t-185 -32q-92 0 -170.5 26t-137 80.5t-91.5 140t-33 205.5q0 88 3 158t7.5 131.5t10 118.5t10 119t7.5 133t3 161q0 28 -5.5 53.5t-18 45t-34.5 31.5t-55 12q-32 0 -80 -15.5t-92.5 -45t-76 -73 t-31.5 -98.5q0 -32 8.5 -51t19.5 -28.5t22.5 -12t16.5 -2.5q25 0 41 8.5t29 18t24.5 18t26.5 8.5q12 0 25.5 -5.5t25 -17.5t19.5 -31.5t8 -47.5q0 -40 -15.5 -69t-40 -48.5t-56 -29t-62.5 -9.5q-48 0 -86.5 16.5t-65.5 45.5t-41 68t-14 83q0 69 23 126.5t63 103.5t92.5 80.5 t112.5 57.5t123 34.5t123 11.5q69 0 117.5 -14.5t82 -37.5t53 -51t30 -54.5t13.5 -48t3 -32.5q0 -81 -3 -148.5t-7.5 -129.5t-10 -121.5t-10 -124t-7.5 -137t-3 -160.5q0 -109 21.5 -175.5t53.5 -102.5t68.5 -48t65.5 -12q55 0 111.5 18t109.5 52v1159q0 29 -12.5 46.5 t-38.5 17.5q-28 0 -52 -10t-43 -19l-16 37q25 13 61 29.5t77 31.5t84 25t81 10q68 0 105.5 -17.5t55.5 -43t21.5 -54.5t3.5 -51v-1177q0 -29 13 -46.5t39 -17.5q27 0 51 9.5t43 19.5l16 -37q-25 -13 -61 -29.5t-77 -31.5t-84 -25t-81 -10zM811 1607l272 263q17 15 36 24.5 t38 9.5q18 0 34 -8.5t28 -22.5t19 -31.5t7 -35.5q0 -26 -17.5 -45.5t-41.5 -30.5l-355 -151z"/>
<glyph unicode="" glyph-name="Ucircumflex" horiz-adv-x="1716" d="M1411 -16q-51 0 -84 9.5t-53.5 25.5t-30.5 35.5t-14 39.5q-63 -46 -145 -78t-185 -32q-92 0 -170.5 26t-137 80.5t-91.5 140t-33 205.5q0 88 3 158t7.5 131.5t10 118.5t10 119t7.5 133t3 161q0 28 -5.5 53.5t-18 45t-34.5 31.5t-55 12q-32 0 -80 -15.5t-92.5 -45t-76 -73 t-31.5 -98.5q0 -32 8.5 -51t19.5 -28.5t22.5 -12t16.5 -2.5q25 0 41 8.5t29 18t24.5 18t26.5 8.5q12 0 25.5 -5.5t25 -17.5t19.5 -31.5t8 -47.5q0 -40 -15.5 -69t-40 -48.5t-56 -29t-62.5 -9.5q-48 0 -86.5 16.5t-65.5 45.5t-41 68t-14 83q0 69 23 126.5t63 103.5t92.5 80.5 t112.5 57.5t123 34.5t123 11.5q69 0 117.5 -14.5t82 -37.5t53 -51t30 -54.5t13.5 -48t3 -32.5q0 -81 -3 -148.5t-7.5 -129.5t-10 -121.5t-10 -124t-7.5 -137t-3 -160.5q0 -109 21.5 -175.5t53.5 -102.5t68.5 -48t65.5 -12q55 0 111.5 18t109.5 52v1159q0 29 -12.5 46.5 t-38.5 17.5q-28 0 -52 -10t-43 -19l-16 37q25 13 61 29.5t77 31.5t84 25t81 10q68 0 105.5 -17.5t55.5 -43t21.5 -54.5t3.5 -51v-1177q0 -29 13 -46.5t39 -17.5q27 0 51 9.5t43 19.5l16 -37q-25 -13 -61 -29.5t-77 -31.5t-84 -25t-81 -10zM1026 1904l225 -293l-30 -30 l-252 172l-252 -172l-31 30l225 293h115z"/>
<glyph unicode="" glyph-name="Udieresis" horiz-adv-x="1716" d="M1411 -16q-51 0 -84 9.5t-53.5 25.5t-30.5 35.5t-14 39.5q-63 -46 -145 -78t-185 -32q-92 0 -170.5 26t-137 80.5t-91.5 140t-33 205.5q0 88 3 158t7.5 131.5t10 118.5t10 119t7.5 133t3 161q0 28 -5.5 53.5t-18 45t-34.5 31.5t-55 12q-32 0 -80 -15.5t-92.5 -45t-76 -73 t-31.5 -98.5q0 -32 8.5 -51t19.5 -28.5t22.5 -12t16.5 -2.5q25 0 41 8.5t29 18t24.5 18t26.5 8.5q12 0 25.5 -5.5t25 -17.5t19.5 -31.5t8 -47.5q0 -40 -15.5 -69t-40 -48.5t-56 -29t-62.5 -9.5q-48 0 -86.5 16.5t-65.5 45.5t-41 68t-14 83q0 69 23 126.5t63 103.5t92.5 80.5 t112.5 57.5t123 34.5t123 11.5q69 0 117.5 -14.5t82 -37.5t53 -51t30 -54.5t13.5 -48t3 -32.5q0 -81 -3 -148.5t-7.5 -129.5t-10 -121.5t-10 -124t-7.5 -137t-3 -160.5q0 -109 21.5 -175.5t53.5 -102.5t68.5 -48t65.5 -12q55 0 111.5 18t109.5 52v1159q0 29 -12.5 46.5 t-38.5 17.5q-28 0 -52 -10t-43 -19l-16 37q25 13 61 29.5t77 31.5t84 25t81 10q68 0 105.5 -17.5t55.5 -43t21.5 -54.5t3.5 -51v-1177q0 -29 13 -46.5t39 -17.5q27 0 51 9.5t43 19.5l16 -37q-25 -13 -61 -29.5t-77 -31.5t-84 -25t-81 -10zM1036 1751q0 22 8.5 41.5 t23.5 34.5t34.5 23.5t42.5 8.5q22 0 41.5 -8.5t34.5 -23.5t23.5 -34.5t8.5 -41.5q0 -23 -8.5 -42.5t-23.5 -34.5t-34.5 -23.5t-41.5 -8.5q-23 0 -42.5 8.5t-34.5 23.5t-23.5 34.5t-8.5 42.5zM684 1751q0 22 8.5 41.5t23.5 34.5t34.5 23.5t41.5 8.5t42 -8.5t35 -23.5 t23.5 -34.5t8.5 -41.5q0 -23 -8.5 -42.5t-23.5 -34.5t-35 -23.5t-42 -8.5t-41.5 8.5t-34.5 23.5t-23.5 34.5t-8.5 42.5z"/>
<glyph unicode="" glyph-name="Yacute" horiz-adv-x="1225" d="M168 -467q73 0 136.5 38.5t120 106t107 160.5t95.5 201q-109 360 -221 645t-218 483q-55 106 -114.5 159.5t-112.5 53.5q-32 0 -57 -13.5t-43 -29.5l-25 31q21 21 52 43t72 41t92.5 31t113.5 12q31 0 69 -5.5t77.5 -22t78.5 -46t74 -78.5q77 -108 163 -304.5t183 -477.5 q31 93 61 185.5t61 180t62.5 168.5t65.5 152q35 75 71.5 132.5t80 96.5t97.5 59.5t124 20.5q52 0 85 -22.5t33 -67.5q0 -40 -13 -66t-36 -26q-19 0 -29.5 14.5t-21 31.5t-25 31.5t-41.5 14.5q-61 0 -112.5 -56t-97 -152t-88 -224.5t-85.5 -272.5t-90 -296.5t-101 -296.5 t-118.5 -272.5t-143.5 -224.5t-175 -152t-213 -56q-51 0 -98.5 8.5t-85 23.5t-62 36t-27.5 45q-2 18 1.5 36.5t11.5 33.5t21.5 25t31.5 10q11 0 20.5 -11t20.5 -27.5t24.5 -35.5t33.5 -35.5t47.5 -27.5t66.5 -11zM635 1607l272 263q17 15 36 24.5t38 9.5q18 0 34 -8.5 t28 -22.5t19 -31.5t7 -35.5q0 -26 -17.5 -45.5t-41.5 -30.5l-355 -151z"/>
<glyph unicode="" glyph-name="Thorn" horiz-adv-x="1462" d="M836 131q0 -77 -40 -112t-124 -35t-124 35t-40 112v909q0 56 -76 56q-56 0 -112 -16t-102 -46q-46 -28 -74 -68q-29 -40 -29 -85q1 -32 9 -51t19 -29q11 -11 23 -13t16 -2q25 0 41 8t29 19q12 11 24 19t27 8q11 0 25 -6t26 -17q12 -12 19 -32q8 -20 8 -48q1 -40 -15 -69 t-40 -48q-24 -18 -56 -28t-63 -10q-49 0 -87 16t-65 46t-41 68t-14 83q0 91 38 158t104 114t160 77t206 44v139q0 29 -12 47t-39 17q-28 0 -52 -10t-43 -19l-16 37q26 13 62 29t77 32q41 15 83 25t81 10q68 1 106 -17t56 -44q17 -26 21 -54q4 -29 4 -51v-121h26 q286 0 433 -109t147 -315q0 -100 -26 -177t-72 -133q-44 -56 -102 -90t-120 -49q-52 -13 -104 -13q-10 0 -20 1q-62 3 -117 23l14 43q39 -12 70 -12q29 1 53 11q48 22 76 76q28 56 38 140t11 184q0 76 -16 138q-15 62 -43 107t-64 69t-78 24q-32 0 -52 -10t-32 -24t-16 -30 t-6 -32v-899z"/>
<glyph unicode="" glyph-name="germandbls" horiz-adv-x="1112" d="M127 1171q1 78 19 137q18 60 50 102t74 70t88 46q46 16 94 23t91 7q98 0 172 -26q73 -26 123 -72t75 -110t25 -138q0 -84 -24 -140t-56 -91q-34 -35 -70 -52t-63 -22v-16q91 -12 163 -64q30 -22 60 -55q30 -34 52 -80q23 -46 37 -108t14 -142q-1 -106 -29 -190t-78 -143 t-117 -91q-68 -32 -147 -32q-56 0 -104 12t-93 37l17 37q20 -10 38 -12t35 -3q41 -1 70 23t47 74t26 124q8 76 9 181q-1 101 -13 177t-39 127t-71 79t-104 32v39q46 7 75 31t45 62t23 90q6 52 6 116q0 130 -36 198t-93 67q-40 0 -62 -24t-22 -77v-1106q0 -146 -26 -252 t-68 -182t-95 -122q-53 -48 -107 -75t-104 -37t-85 -12l-10 41q29 7 55 22t46 44q21 29 37 73q15 44 27 112q12 66 18 158t5 214v919z"/>
<glyph unicode="" glyph-name="agrave" horiz-adv-x="1020" d="M416 956q-34 0 -63 -8t-50 -20t-33 -26.5t-12 -27.5q0 -15 15.5 -21.5t34.5 -15t34.5 -24t15.5 -47.5q0 -21 -8.5 -38.5t-23 -31t-34 -21t-40.5 -7.5q-56 0 -90.5 38t-34.5 101q0 61 32 104.5t83.5 71.5t116.5 41.5t130 13.5q78 0 149 -17t125.5 -54t87 -94t32.5 -138 v-565q0 -9 1 -20t5 -20t12 -15t23 -6q18 0 33.5 13.5t27.5 27.5l25 -21q-15 -21 -36 -46t-51 -47t-70 -37t-91 -15q-63 0 -112 37.5t-64 115.5q-32 -43 -66.5 -72t-70.5 -47t-72.5 -26t-73.5 -8q-48 0 -93 15t-80.5 47.5t-57 84.5t-21.5 127q0 91 36 149t94.5 97.5t133 67.5 t152.5 59q58 23 84.5 68.5t26.5 93.5q0 74 -43.5 118.5t-118.5 44.5zM575 518q0 25 -16 38t-41 13q-35 0 -66.5 -16t-55.5 -47t-38 -76.5t-14 -105.5q0 -58 8.5 -96t23 -60.5t33.5 -31.5t40 -9q26 0 49 13.5t40 34.5t27 47t10 52v244zM645 1139l-355 151q-24 11 -41.5 30.5 t-17.5 45.5q0 18 7 35.5t19 31.5t28 22.5t34 8.5q19 0 38 -9.5t36 -24.5l272 -263z"/>
<glyph unicode="" glyph-name="aacute" horiz-adv-x="1020" d="M416 956q-34 0 -63 -8t-50 -20t-33 -26.5t-12 -27.5q0 -15 15.5 -21.5t34.5 -15t34.5 -24t15.5 -47.5q0 -21 -8.5 -38.5t-23 -31t-34 -21t-40.5 -7.5q-56 0 -90.5 38t-34.5 101q0 61 32 104.5t83.5 71.5t116.5 41.5t130 13.5q78 0 149 -17t125.5 -54t87 -94t32.5 -138 v-565q0 -9 1 -20t5 -20t12 -15t23 -6q18 0 33.5 13.5t27.5 27.5l25 -21q-15 -21 -36 -46t-51 -47t-70 -37t-91 -15q-63 0 -112 37.5t-64 115.5q-32 -43 -66.5 -72t-70.5 -47t-72.5 -26t-73.5 -8q-48 0 -93 15t-80.5 47.5t-57 84.5t-21.5 127q0 91 36 149t94.5 97.5t133 67.5 t152.5 59q58 23 84.5 68.5t26.5 93.5q0 74 -43.5 118.5t-118.5 44.5zM575 518q0 25 -16 38t-41 13q-35 0 -66.5 -16t-55.5 -47t-38 -76.5t-14 -105.5q0 -58 8.5 -96t23 -60.5t33.5 -31.5t40 -9q26 0 49 13.5t40 34.5t27 47t10 52v244zM352 1167l272 263q17 15 36 24.5 t38 9.5q18 0 34 -8.5t28 -22.5t19 -31.5t7 -35.5q0 -26 -17.5 -45.5t-41.5 -30.5l-355 -151z"/>
<glyph unicode="" glyph-name="acircumflex" horiz-adv-x="1020" d="M416 956q-34 0 -63 -8t-50 -20t-33 -26.5t-12 -27.5q0 -15 15.5 -21.5t34.5 -15t34.5 -24t15.5 -47.5q0 -21 -8.5 -38.5t-23 -31t-34 -21t-40.5 -7.5q-56 0 -90.5 38t-34.5 101q0 61 32 104.5t83.5 71.5t116.5 41.5t130 13.5q78 0 149 -17t125.5 -54t87 -94t32.5 -138 v-565q0 -9 1 -20t5 -20t12 -15t23 -6q18 0 33.5 13.5t27.5 27.5l25 -21q-15 -21 -36 -46t-51 -47t-70 -37t-91 -15q-63 0 -112 37.5t-64 115.5q-32 -43 -66.5 -72t-70.5 -47t-72.5 -26t-73.5 -8q-48 0 -93 15t-80.5 47.5t-57 84.5t-21.5 127q0 91 36 149t94.5 97.5t133 67.5 t152.5 59q58 23 84.5 68.5t26.5 93.5q0 74 -43.5 118.5t-118.5 44.5zM575 518q0 25 -16 38t-41 13q-35 0 -66.5 -16t-55.5 -47t-38 -76.5t-14 -105.5q0 -58 8.5 -96t23 -60.5t33.5 -31.5t40 -9q26 0 49 13.5t40 34.5t27 47t10 52v244zM567 1464l225 -293l-30 -30l-252 172 l-252 -172l-31 30l225 293h115z"/>
<glyph unicode="" glyph-name="atilde" horiz-adv-x="1020" d="M416 956q-34 0 -63 -8t-50 -20t-33 -26.5t-12 -27.5q0 -15 15.5 -21.5t34.5 -15t34.5 -24t15.5 -47.5q0 -21 -8.5 -38.5t-23 -31t-34 -21t-40.5 -7.5q-56 0 -90.5 38t-34.5 101q0 61 32 104.5t83.5 71.5t116.5 41.5t130 13.5q78 0 149 -17t125.5 -54t87 -94t32.5 -138 v-565q0 -9 1 -20t5 -20t12 -15t23 -6q18 0 33.5 13.5t27.5 27.5l25 -21q-15 -21 -36 -46t-51 -47t-70 -37t-91 -15q-63 0 -112 37.5t-64 115.5q-32 -43 -66.5 -72t-70.5 -47t-72.5 -26t-73.5 -8q-48 0 -93 15t-80.5 47.5t-57 84.5t-21.5 127q0 91 36 149t94.5 97.5t133 67.5 t152.5 59q58 23 84.5 68.5t26.5 93.5q0 74 -43.5 118.5t-118.5 44.5zM575 518q0 25 -16 38t-41 13q-35 0 -66.5 -16t-55.5 -47t-38 -76.5t-14 -105.5q0 -58 8.5 -96t23 -60.5t33.5 -31.5t40 -9q26 0 49 13.5t40 34.5t27 47t10 52v244zM381 1286q-22 0 -40 -9.5t-31.5 -25 t-22.5 -36t-13 -41.5h-45q5 63 22.5 109.5t42 77.5t53 46.5t56.5 15.5q35 0 67 -15.5t61.5 -33.5t56 -33.5t51.5 -15.5q21 0 39 9.5t31.5 25t22.5 36t13 42.5h45q-5 -63 -22.5 -110t-42 -78t-53 -46.5t-56.5 -15.5q-35 0 -67 15.5t-61.5 33.5t-56 33.5t-50.5 15.5z"/>
<glyph unicode="" glyph-name="adieresis" horiz-adv-x="1020" d="M416 956q-34 0 -63 -8t-50 -20t-33 -26.5t-12 -27.5q0 -15 15.5 -21.5t34.5 -15t34.5 -24t15.5 -47.5q0 -21 -8.5 -38.5t-23 -31t-34 -21t-40.5 -7.5q-56 0 -90.5 38t-34.5 101q0 61 32 104.5t83.5 71.5t116.5 41.5t130 13.5q78 0 149 -17t125.5 -54t87 -94t32.5 -138 v-565q0 -9 1 -20t5 -20t12 -15t23 -6q18 0 33.5 13.5t27.5 27.5l25 -21q-15 -21 -36 -46t-51 -47t-70 -37t-91 -15q-63 0 -112 37.5t-64 115.5q-32 -43 -66.5 -72t-70.5 -47t-72.5 -26t-73.5 -8q-48 0 -93 15t-80.5 47.5t-57 84.5t-21.5 127q0 91 36 149t94.5 97.5t133 67.5 t152.5 59q58 23 84.5 68.5t26.5 93.5q0 74 -43.5 118.5t-118.5 44.5zM575 518q0 25 -16 38t-41 13q-35 0 -66.5 -16t-55.5 -47t-38 -76.5t-14 -105.5q0 -58 8.5 -96t23 -60.5t33.5 -31.5t40 -9q26 0 49 13.5t40 34.5t27 47t10 52v244zM577 1311q0 22 8.5 41.5t23.5 34.5 t34.5 23.5t42.5 8.5q22 0 41.5 -8.5t34.5 -23.5t23.5 -34.5t8.5 -41.5q0 -23 -8.5 -42.5t-23.5 -34.5t-34.5 -23.5t-41.5 -8.5q-23 0 -42.5 8.5t-34.5 23.5t-23.5 34.5t-8.5 42.5zM225 1311q0 22 8.5 41.5t23.5 34.5t34.5 23.5t41.5 8.5t42 -8.5t35 -23.5t23.5 -34.5 t8.5 -41.5q0 -23 -8.5 -42.5t-23.5 -34.5t-35 -23.5t-42 -8.5t-41.5 8.5t-34.5 23.5t-23.5 34.5t-8.5 42.5z"/>
<glyph unicode="" glyph-name="aring" horiz-adv-x="1020" d="M416 956q-34 0 -63 -8t-50 -20t-33 -26.5t-12 -27.5q0 -15 15.5 -21.5t34.5 -15t34.5 -24t15.5 -47.5q0 -21 -8.5 -38.5t-23 -31t-34 -21t-40.5 -7.5q-56 0 -90.5 38t-34.5 101q0 61 32 104.5t83.5 71.5t116.5 41.5t130 13.5q78 0 149 -17t125.5 -54t87 -94t32.5 -138 v-565q0 -9 1 -20t5 -20t12 -15t23 -6q18 0 33.5 13.5t27.5 27.5l25 -21q-15 -21 -36 -46t-51 -47t-70 -37t-91 -15q-63 0 -112 37.5t-64 115.5q-32 -43 -66.5 -72t-70.5 -47t-72.5 -26t-73.5 -8q-48 0 -93 15t-80.5 47.5t-57 84.5t-21.5 127q0 91 36 149t94.5 97.5t133 67.5 t152.5 59q58 23 84.5 68.5t26.5 93.5q0 74 -43.5 118.5t-118.5 44.5zM575 518q0 25 -16 38t-41 13q-35 0 -66.5 -16t-55.5 -47t-38 -76.5t-14 -105.5q0 -58 8.5 -96t23 -60.5t33.5 -31.5t40 -9q26 0 49 13.5t40 34.5t27 47t10 52v244zM399 1343q0 -23 8.5 -43t23.5 -35 t35.5 -23.5t43.5 -8.5t43 8.5t35 23.5t23.5 35t8.5 43t-8.5 43.5t-23.5 35.5t-35 23.5t-43 8.5t-43.5 -8.5t-35.5 -23.5t-23.5 -35.5t-8.5 -43.5zM286 1343q0 46 17.5 87t48 71.5t71.5 48t87 17.5t86.5 -17.5t71 -48t48 -71.5t17.5 -87t-17.5 -86.5t-48 -71t-71 -48 t-86.5 -17.5t-87 17.5t-71.5 48t-48 71t-17.5 86.5z"/>
<glyph unicode="" glyph-name="ae" horiz-adv-x="1448" d="M1092 662q13 8 21.5 15.5t13.5 18t7.5 26t2.5 38.5q0 25 -5.5 55.5t-18.5 57.5t-33 45t-48 18q-36 0 -61.5 -21.5t-42 -55.5t-26 -77.5t-14.5 -87.5t-6 -84.5t-1 -68.5zM449 127q27 0 51 15t43 37.5t32.5 50t18.5 53.5q-16 45 -24.5 96.5t-8.5 109.5q0 28 1.5 54t6.5 51 q-47 -10 -88 -25t-71.5 -44.5t-48 -77t-17.5 -123.5q0 -58 8.5 -96t23 -60.5t33.5 -31.5t40 -9zM489 1038q93 0 167 -25t122 -81q71 52 151 79t154 27q75 0 130 -16t91 -43t54 -62.5t18 -74.5q0 -47 -26.5 -84.5t-71.5 -65.5l-395 -233q0 -32 9 -69.5t27 -75.5t44.5 -72.5 t61 -61.5t77 -43t92.5 -16q35 0 65 8t56 22t50 32.5t48 39.5l25 -24q-23 -31 -59 -68t-87.5 -69.5t-119 -54t-154.5 -21.5q-110 0 -208 47t-163 143q-54 -66 -105 -104.5t-95.5 -58t-81.5 -24.5t-62 -5q-48 0 -93 15t-80.5 47.5t-57 84.5t-21.5 127q0 91 36 149.5t94.5 99 t133 69t152.5 59.5q58 23 84.5 67t26.5 89q0 83 -45 124t-117 41q-34 0 -63 -8t-50 -20t-33 -26.5t-12 -27.5q0 -15 15.5 -21.5t34.5 -15t34.5 -24t15.5 -47.5q0 -21 -8.5 -38.5t-23 -31t-34 -21t-40.5 -7.5q-56 0 -90.5 38t-34.5 101q0 61 32 104.5t83.5 71.5t116.5 41.5 t130 13.5z"/>
<glyph unicode="" glyph-name="ccedilla" d="M760 692q-31 0 -52 10t-34 25t-19 35t-6 41q-1 27 3 52t2 45t-16 32q-13 12 -46 12q-35 0 -74 -20t-71 -63t-53 -111t-21 -162q-1 -106 19 -192t59 -147t97 -95t136 -33q34 0 66 8t60 22q28 15 54 33t49 39l25 -24q-23 -31 -59 -68t-87 -69t-119 -54t-155 -22h-6l-20 -82 q64 0 110 -15t77 -40t47 -57t15 -64q-1 -61 -25 -101q-24 -39 -62 -63t-85 -34q-46 -10 -88 -9q-41 0 -77 7t-66 18t-52 24q-23 13 -38 24l18 33q40 -21 84 -31q37 -8 72 -8h14q66 3 106 33t40 96q0 41 -15 67t-39 42t-56 23q-31 7 -62 8l32 135q-76 13 -145 52 q-69 40 -121 102t-84 146q-31 84 -31 189q0 91 23 167q22 76 62 139q40 62 92 109q52 46 111 78t119 48t116 16q74 0 129 -17t91 -45t55 -64q18 -36 18 -76q1 -30 -7 -56t-22 -46t-37 -30q-22 -12 -51 -12z"/>
<glyph unicode="" glyph-name="egrave" d="M584 662q13 8 21.5 15.5t13.5 18t7.5 26t2.5 38.5q0 25 -5.5 55.5t-18.5 57.5t-33 45t-48 18q-36 0 -61.5 -21.5t-42 -55.5t-26 -77.5t-14.5 -87.5t-6 -84.5t-1 -68.5zM383 459q0 -32 9.5 -69.5t27.5 -75.5t44.5 -72.5t61 -61.5t76.5 -43t92 -16q35 0 65 8t56 22t50 32.5 t48 39.5l25 -24q-23 -31 -59 -68t-87 -69.5t-119 -54t-155 -21.5t-169.5 31.5t-146.5 94.5t-102.5 157t-38.5 220q0 91 23 167t62.5 137t92 107t110.5 76.5t118.5 46t116.5 15.5q74 0 129 -16t91.5 -43t54.5 -62.5t18 -74.5q0 -47 -27 -84.5t-72 -65.5zM678 1139l-355 151 q-24 11 -41.5 30.5t-17.5 45.5q0 18 7 35.5t19 31.5t28 22.5t34 8.5q19 0 38 -9.5t36 -24.5l272 -263z"/>
<glyph unicode="" glyph-name="eacute" d="M584 662q13 8 21.5 15.5t13.5 18t7.5 26t2.5 38.5q0 25 -5.5 55.5t-18.5 57.5t-33 45t-48 18q-36 0 -61.5 -21.5t-42 -55.5t-26 -77.5t-14.5 -87.5t-6 -84.5t-1 -68.5zM383 459q0 -32 9.5 -69.5t27.5 -75.5t44.5 -72.5t61 -61.5t76.5 -43t92 -16q35 0 65 8t56 22t50 32.5 t48 39.5l25 -24q-23 -31 -59 -68t-87 -69.5t-119 -54t-155 -21.5t-169.5 31.5t-146.5 94.5t-102.5 157t-38.5 220q0 91 23 167t62.5 137t92 107t110.5 76.5t118.5 46t116.5 15.5q74 0 129 -16t91.5 -43t54.5 -62.5t18 -74.5q0 -47 -27 -84.5t-72 -65.5zM385 1167l272 263 q17 15 36 24.5t38 9.5q18 0 34 -8.5t28 -22.5t19 -31.5t7 -35.5q0 -26 -17.5 -45.5t-41.5 -30.5l-355 -151z"/>
<glyph unicode="" glyph-name="ecircumflex" d="M584 662q13 8 21.5 15.5t13.5 18t7.5 26t2.5 38.5q0 25 -5.5 55.5t-18.5 57.5t-33 45t-48 18q-36 0 -61.5 -21.5t-42 -55.5t-26 -77.5t-14.5 -87.5t-6 -84.5t-1 -68.5zM383 459q0 -32 9.5 -69.5t27.5 -75.5t44.5 -72.5t61 -61.5t76.5 -43t92 -16q35 0 65 8t56 22t50 32.5 t48 39.5l25 -24q-23 -31 -59 -68t-87 -69.5t-119 -54t-155 -21.5t-169.5 31.5t-146.5 94.5t-102.5 157t-38.5 220q0 91 23 167t62.5 137t92 107t110.5 76.5t118.5 46t116.5 15.5q74 0 129 -16t91.5 -43t54.5 -62.5t18 -74.5q0 -47 -27 -84.5t-72 -65.5zM600 1464l225 -293 l-30 -30l-252 172l-252 -172l-31 30l225 293h115z"/>
<glyph unicode="" glyph-name="edieresis" d="M584 662q13 8 21.5 15.5t13.5 18t7.5 26t2.5 38.5q0 25 -5.5 55.5t-18.5 57.5t-33 45t-48 18q-36 0 -61.5 -21.5t-42 -55.5t-26 -77.5t-14.5 -87.5t-6 -84.5t-1 -68.5zM383 459q0 -32 9.5 -69.5t27.5 -75.5t44.5 -72.5t61 -61.5t76.5 -43t92 -16q35 0 65 8t56 22t50 32.5 t48 39.5l25 -24q-23 -31 -59 -68t-87 -69.5t-119 -54t-155 -21.5t-169.5 31.5t-146.5 94.5t-102.5 157t-38.5 220q0 91 23 167t62.5 137t92 107t110.5 76.5t118.5 46t116.5 15.5q74 0 129 -16t91.5 -43t54.5 -62.5t18 -74.5q0 -47 -27 -84.5t-72 -65.5zM610 1311 q0 22 8.5 41.5t23.5 34.5t34.5 23.5t42.5 8.5q22 0 41.5 -8.5t34.5 -23.5t23.5 -34.5t8.5 -41.5q0 -23 -8.5 -42.5t-23.5 -34.5t-34.5 -23.5t-41.5 -8.5q-23 0 -42.5 8.5t-34.5 23.5t-23.5 34.5t-8.5 42.5zM258 1311q0 22 8.5 41.5t23.5 34.5t34.5 23.5t41.5 8.5t42 -8.5 t35 -23.5t23.5 -34.5t8.5 -41.5q0 -23 -8.5 -42.5t-23.5 -34.5t-35 -23.5t-42 -8.5t-41.5 8.5t-34.5 23.5t-23.5 34.5t-8.5 42.5z"/>
<glyph unicode="" glyph-name="igrave" horiz-adv-x="571" d="M444 84q0 -13 -4.5 -30.5t-21 -33t-47.5 -26t-84 -10.5t-83 12.5t-45 29.5t-18.5 35t-3.5 29v772q0 29 -13.5 50.5t-45.5 21.5q-17 0 -29 -6t-26 -17l-21 25q23 19 51.5 37.5t61.5 32.5t71 23t80 9q65 0 101 -17.5t53 -43t20.5 -54.5t3.5 -51v-788zM464 1139l-355 151 q-24 11 -41.5 30.5t-17.5 45.5q0 18 7 35.5t19 31.5t28 22.5t34 8.5q19 0 38 -9.5t36 -24.5l272 -263z"/>
<glyph unicode="" glyph-name="iacute" horiz-adv-x="571" d="M444 84q0 -13 -4.5 -30.5t-21 -33t-47.5 -26t-84 -10.5t-83 12.5t-45 29.5t-18.5 35t-3.5 29v772q0 29 -13.5 50.5t-45.5 21.5q-17 0 -29 -6t-26 -17l-21 25q23 19 51.5 37.5t61.5 32.5t71 23t80 9q65 0 101 -17.5t53 -43t20.5 -54.5t3.5 -51v-788zM50 1167l272 263 q17 15 36 24.5t38 9.5q18 0 34 -8.5t28 -22.5t19 -31.5t7 -35.5q0 -26 -17.5 -45.5t-41.5 -30.5l-355 -151z"/>
<glyph unicode="" glyph-name="icircumflex" horiz-adv-x="571" d="M444 84q0 -13 -4.5 -30.5t-21 -33t-47.5 -26t-84 -10.5t-83 12.5t-45 29.5t-18.5 35t-3.5 29v772q0 29 -13.5 50.5t-45.5 21.5q-17 0 -29 -6t-26 -17l-21 25q23 19 51.5 37.5t61.5 32.5t71 23t80 9q65 0 101 -17.5t53 -43t20.5 -54.5t3.5 -51v-788zM325 1464l225 -293 l-30 -30l-252 172l-252 -172l-31 30l225 293h115z"/>
<glyph unicode="" glyph-name="idieresis" horiz-adv-x="571" d="M444 84q0 -13 -4.5 -30.5t-21 -33t-47.5 -26t-84 -10.5t-83 12.5t-45 29.5t-18.5 35t-3.5 29v772q0 29 -13.5 50.5t-45.5 21.5q-17 0 -29 -6t-26 -17l-21 25q23 19 51.5 37.5t61.5 32.5t71 23t80 9q65 0 101 -17.5t53 -43t20.5 -54.5t3.5 -51v-788zM335 1311 q0 22 8.5 41.5t23.5 34.5t34.5 23.5t42.5 8.5q22 0 41.5 -8.5t34.5 -23.5t23.5 -34.5t8.5 -41.5q0 -23 -8.5 -42.5t-23.5 -34.5t-34.5 -23.5t-41.5 -8.5q-23 0 -42.5 8.5t-34.5 23.5t-23.5 34.5t-8.5 42.5zM-17 1311q0 22 8.5 41.5t23.5 34.5t34.5 23.5t41.5 8.5t42 -8.5 t35 -23.5t23.5 -34.5t8.5 -41.5q0 -23 -8.5 -42.5t-23.5 -34.5t-35 -23.5t-42 -8.5t-41.5 8.5t-34.5 23.5t-23.5 34.5t-8.5 42.5z"/>
<glyph unicode="" glyph-name="eth" horiz-adv-x="1049" d="M676 502q0 50 -1 99t-4 93t-8 82t-12 64q-28 24 -59 40t-68 15q-49 0 -79 -33q-30 -32 -46 -88t-21 -129t-5 -153t5 -154t21 -129t46 -89t79 -34t79 35t46 93q15 58 21 133t6 155zM467 1354q-35 38 -79 72t-97 59l16 37q142 -44 254 -119l238 127l37 -68l-205 -110 q87 -71 153 -161q66 -89 112 -195q45 -106 68 -224t23 -246q0 -131 -38 -232q-37 -101 -101 -170q-64 -68 -148 -104t-176 -36t-176 30t-148 92t-101 158q-38 96 -38 228q0 130 39 226q40 96 102 158t141 92t159 29q54 0 86 -9t53 -21q-14 83 -43 167t-82 158l-235 -127 l-35 70z"/>
<glyph unicode="" glyph-name="ntilde" horiz-adv-x="1102" d="M713 498q0 126 -11.5 201.5t-30.5 115t-42 52t-47 12.5q-29 0 -51.5 -15.5t-39 -35.5t-28 -40t-19.5 -30v-668q0 -13 -4 -31.5t-19.5 -35t-46 -28t-83.5 -11.5t-83.5 12.5t-46.5 29.5t-20 35t-4 29v772q0 29 -13.5 50.5t-45.5 21.5q-17 0 -29 -6t-26 -17l-21 25 q23 19 51.5 37.5t61.5 32.5t71 23t80 9q65 0 101 -21.5t53 -51.5t20.5 -62.5t3.5 -54.5q37 53 84 95q19 18 42.5 35t50 30.5t56 21.5t60.5 8q68 0 120.5 -26t88.5 -87t55 -161.5t19 -249.5q0 -145 -26 -252t-68 -182t-95 -122.5t-107 -74.5t-103.5 -37.5t-85.5 -11.5l-11 41 q30 7 55.5 22t46.5 44t37 73.5t27.5 111.5t17 158.5t5.5 213.5zM416 1286q-22 0 -40 -9.5t-31.5 -25t-22.5 -36t-13 -41.5h-45q5 63 22.5 109.5t42 77.5t53 46.5t56.5 15.5q35 0 67 -15.5t61.5 -33.5t56 -33.5t51.5 -15.5q21 0 39 9.5t31.5 25t22.5 36t13 42.5h45 q-5 -63 -22.5 -110t-42 -78t-53 -46.5t-56.5 -15.5q-35 0 -67 15.5t-61.5 33.5t-56 33.5t-50.5 15.5z"/>
<glyph unicode="" glyph-name="ograve" horiz-adv-x="1049" d="M676 522q0 80 -5.5 154.5t-21.5 132.5t-46 92.5t-79 34.5t-79 -36.5t-46 -96t-21 -135.5t-5 -156t5 -156.5t21 -136.5t46 -96.5t79 -36.5t79 38t46 100t21.5 140t5.5 158zM61 512q0 131 38 229.5t101.5 164.5t147.5 99t176 33t176 -30.5t147.5 -93.5t101.5 -159.5 t38 -228.5q0 -131 -38 -232t-101.5 -170t-147.5 -104.5t-176 -35.5t-176 33.5t-147.5 99.5t-101.5 165t-38 230zM660 1139l-355 151q-24 11 -41.5 30.5t-17.5 45.5q0 18 7 35.5t19 31.5t28 22.5t34 8.5q19 0 38 -9.5t36 -24.5l272 -263z"/>
<glyph unicode="" glyph-name="oacute" horiz-adv-x="1049" d="M676 522q0 80 -5.5 154.5t-21.5 132.5t-46 92.5t-79 34.5t-79 -36.5t-46 -96t-21 -135.5t-5 -156t5 -156.5t21 -136.5t46 -96.5t79 -36.5t79 38t46 100t21.5 140t5.5 158zM61 512q0 131 38 229.5t101.5 164.5t147.5 99t176 33t176 -30.5t147.5 -93.5t101.5 -159.5 t38 -228.5q0 -131 -38 -232t-101.5 -170t-147.5 -104.5t-176 -35.5t-176 33.5t-147.5 99.5t-101.5 165t-38 230zM367 1167l272 263q17 15 36 24.5t38 9.5q18 0 34 -8.5t28 -22.5t19 -31.5t7 -35.5q0 -26 -17.5 -45.5t-41.5 -30.5l-355 -151z"/>
<glyph unicode="" glyph-name="ocircumflex" horiz-adv-x="1049" d="M676 522q0 80 -5.5 154.5t-21.5 132.5t-46 92.5t-79 34.5t-79 -36.5t-46 -96t-21 -135.5t-5 -156t5 -156.5t21 -136.5t46 -96.5t79 -36.5t79 38t46 100t21.5 140t5.5 158zM61 512q0 131 38 229.5t101.5 164.5t147.5 99t176 33t176 -30.5t147.5 -93.5t101.5 -159.5 t38 -228.5q0 -131 -38 -232t-101.5 -170t-147.5 -104.5t-176 -35.5t-176 33.5t-147.5 99.5t-101.5 165t-38 230zM582 1464l225 -293l-30 -30l-252 172l-252 -172l-31 30l225 293h115z"/>
<glyph unicode="" glyph-name="otilde" horiz-adv-x="1049" d="M676 522q0 80 -5.5 154.5t-21.5 132.5t-46 92.5t-79 34.5t-79 -36.5t-46 -96t-21 -135.5t-5 -156t5 -156.5t21 -136.5t46 -96.5t79 -36.5t79 38t46 100t21.5 140t5.5 158zM61 512q0 131 38 229.5t101.5 164.5t147.5 99t176 33t176 -30.5t147.5 -93.5t101.5 -159.5 t38 -228.5q0 -131 -38 -232t-101.5 -170t-147.5 -104.5t-176 -35.5t-176 33.5t-147.5 99.5t-101.5 165t-38 230zM396 1286q-22 0 -40 -9.5t-31.5 -25t-22.5 -36t-13 -41.5h-45q5 63 22.5 109.5t42 77.5t53 46.5t56.5 15.5q35 0 67 -15.5t61.5 -33.5t56 -33.5t51.5 -15.5 q21 0 39 9.5t31.5 25t22.5 36t13 42.5h45q-5 -63 -22.5 -110t-42 -78t-53 -46.5t-56.5 -15.5q-35 0 -67 15.5t-61.5 33.5t-56 33.5t-50.5 15.5z"/>
<glyph unicode="" glyph-name="odieresis" horiz-adv-x="1049" d="M676 522q0 80 -5.5 154.5t-21.5 132.5t-46 92.5t-79 34.5t-79 -36.5t-46 -96t-21 -135.5t-5 -156t5 -156.5t21 -136.5t46 -96.5t79 -36.5t79 38t46 100t21.5 140t5.5 158zM61 512q0 131 38 229.5t101.5 164.5t147.5 99t176 33t176 -30.5t147.5 -93.5t101.5 -159.5 t38 -228.5q0 -131 -38 -232t-101.5 -170t-147.5 -104.5t-176 -35.5t-176 33.5t-147.5 99.5t-101.5 165t-38 230zM592 1311q0 22 8.5 41.5t23.5 34.5t34.5 23.5t42.5 8.5q22 0 41.5 -8.5t34.5 -23.5t23.5 -34.5t8.5 -41.5q0 -23 -8.5 -42.5t-23.5 -34.5t-34.5 -23.5 t-41.5 -8.5q-23 0 -42.5 8.5t-34.5 23.5t-23.5 34.5t-8.5 42.5zM240 1311q0 22 8.5 41.5t23.5 34.5t34.5 23.5t41.5 8.5t42 -8.5t35 -23.5t23.5 -34.5t8.5 -41.5q0 -23 -8.5 -42.5t-23.5 -34.5t-35 -23.5t-42 -8.5t-41.5 8.5t-34.5 23.5t-23.5 34.5t-8.5 42.5z"/>
<glyph unicode="" glyph-name="divide" horiz-adv-x="969" d="M369 309q0 25 9 47q8 22 24 38t36 25t45 9t47 -9t37 -25t25 -38t10 -47q0 -23 -10 -43t-25 -36q-15 -15 -37 -24t-47 -9t-45 9t-36 24q-16 16 -24 36q-9 20 -9 43zM123 692h723v-174h-723v174zM369 895q0 25 9 47q8 22 24 38t36 25t45 9t47 -9t37 -25t25 -38t10 -47 q0 -23 -10 -43t-25 -36t-37 -25t-47 -9t-45 9t-36 25t-24 36q-9 20 -9 43z"/>
<glyph unicode="" glyph-name="oslash" horiz-adv-x="1049" d="M676 522q0 92 -6 172l-271 -479q17 -59 46.5 -94t78.5 -35t79 38t46 100t21.5 140t5.5 158zM373 512q0 -48 0.5 -94.5t5.5 -89.5l270 481q-17 57 -46 92t-79 35q-49 0 -79 -36.5t-46 -96t-21 -135.5t-5 -156zM242 80q-82 65 -131.5 172t-49.5 260q0 131 38 229.5 t101.5 164.5t147.5 99t176 33q121 0 224 -53l63 115l63 -37l-65 -117q40 -31 72.5 -72t56 -93.5t36.5 -116t13 -138.5q0 -131 -38 -232t-101.5 -170t-147.5 -104.5t-176 -35.5q-122 0 -223 55l-63 -117l-64 37z"/>
<glyph unicode="" glyph-name="ugrave" horiz-adv-x="1137" d="M999 174q0 -9 1 -19.5t5 -20t12 -15.5t23 -6q19 0 34 13.5t28 27.5l24 -21q-15 -21 -37.5 -46.5t-54.5 -48.5t-73 -38.5t-93 -15.5q-44 0 -76.5 11.5t-55 31t-33.5 46t-11 56.5v45q-50 -54 -105 -95q-24 -18 -51 -35t-56 -30.5t-60 -21.5t-62 -8q-60 0 -102.5 21.5 t-68.5 56.5t-38 79t-12 88v619q0 9 -1 19.5t-5 20t-12 15.5t-23 6q-18 0 -33.5 -13.5t-27.5 -27.5l-25 21q15 21 37.5 46.5t54.5 48.5t73.5 38.5t92.5 15.5q44 0 77 -11.5t55 -31t33 -46t11 -56.5v-668q0 -14 4.5 -28.5t13 -26.5t21.5 -19.5t31 -7.5q29 0 58 15t53 35.5 t41.5 40.5t25.5 30v584q0 9 -1 19.5t-5 20t-12 15.5t-23 6q-18 0 -33.5 -13.5t-27.5 -27.5l-25 21q15 21 37.5 46.5t54.5 48.5t73.5 38.5t92.5 15.5q44 0 77 -11.5t55 -31t33 -46t11 -56.5v-719zM688 1139l-355 151q-24 11 -41.5 30.5t-17.5 45.5q0 18 7 35.5t19 31.5 t28 22.5t34 8.5q19 0 38 -9.5t36 -24.5l272 -263z"/>
<glyph unicode="" glyph-name="uacute" horiz-adv-x="1137" d="M999 174q0 -9 1 -19.5t5 -20t12 -15.5t23 -6q19 0 34 13.5t28 27.5l24 -21q-15 -21 -37.5 -46.5t-54.5 -48.5t-73 -38.5t-93 -15.5q-44 0 -76.5 11.5t-55 31t-33.5 46t-11 56.5v45q-50 -54 -105 -95q-24 -18 -51 -35t-56 -30.5t-60 -21.5t-62 -8q-60 0 -102.5 21.5 t-68.5 56.5t-38 79t-12 88v619q0 9 -1 19.5t-5 20t-12 15.5t-23 6q-18 0 -33.5 -13.5t-27.5 -27.5l-25 21q15 21 37.5 46.5t54.5 48.5t73.5 38.5t92.5 15.5q44 0 77 -11.5t55 -31t33 -46t11 -56.5v-668q0 -14 4.5 -28.5t13 -26.5t21.5 -19.5t31 -7.5q29 0 58 15t53 35.5 t41.5 40.5t25.5 30v584q0 9 -1 19.5t-5 20t-12 15.5t-23 6q-18 0 -33.5 -13.5t-27.5 -27.5l-25 21q15 21 37.5 46.5t54.5 48.5t73.5 38.5t92.5 15.5q44 0 77 -11.5t55 -31t33 -46t11 -56.5v-719zM395 1167l272 263q17 15 36 24.5t38 9.5q18 0 34 -8.5t28 -22.5t19 -31.5 t7 -35.5q0 -26 -17.5 -45.5t-41.5 -30.5l-355 -151z"/>
<glyph unicode="" glyph-name="ucircumflex" horiz-adv-x="1137" d="M999 174q0 -9 1 -19.5t5 -20t12 -15.5t23 -6q19 0 34 13.5t28 27.5l24 -21q-15 -21 -37.5 -46.5t-54.5 -48.5t-73 -38.5t-93 -15.5q-44 0 -76.5 11.5t-55 31t-33.5 46t-11 56.5v45q-50 -54 -105 -95q-24 -18 -51 -35t-56 -30.5t-60 -21.5t-62 -8q-60 0 -102.5 21.5 t-68.5 56.5t-38 79t-12 88v619q0 9 -1 19.5t-5 20t-12 15.5t-23 6q-18 0 -33.5 -13.5t-27.5 -27.5l-25 21q15 21 37.5 46.5t54.5 48.5t73.5 38.5t92.5 15.5q44 0 77 -11.5t55 -31t33 -46t11 -56.5v-668q0 -14 4.5 -28.5t13 -26.5t21.5 -19.5t31 -7.5q29 0 58 15t53 35.5 t41.5 40.5t25.5 30v584q0 9 -1 19.5t-5 20t-12 15.5t-23 6q-18 0 -33.5 -13.5t-27.5 -27.5l-25 21q15 21 37.5 46.5t54.5 48.5t73.5 38.5t92.5 15.5q44 0 77 -11.5t55 -31t33 -46t11 -56.5v-719zM610 1464l225 -293l-30 -30l-252 172l-252 -172l-31 30l225 293h115z"/>
<glyph unicode="" glyph-name="udieresis" horiz-adv-x="1137" d="M999 174q0 -9 1 -19.5t5 -20t12 -15.5t23 -6q19 0 34 13.5t28 27.5l24 -21q-15 -21 -37.5 -46.5t-54.5 -48.5t-73 -38.5t-93 -15.5q-44 0 -76.5 11.5t-55 31t-33.5 46t-11 56.5v45q-50 -54 -105 -95q-24 -18 -51 -35t-56 -30.5t-60 -21.5t-62 -8q-60 0 -102.5 21.5 t-68.5 56.5t-38 79t-12 88v619q0 9 -1 19.5t-5 20t-12 15.5t-23 6q-18 0 -33.5 -13.5t-27.5 -27.5l-25 21q15 21 37.5 46.5t54.5 48.5t73.5 38.5t92.5 15.5q44 0 77 -11.5t55 -31t33 -46t11 -56.5v-668q0 -14 4.5 -28.5t13 -26.5t21.5 -19.5t31 -7.5q29 0 58 15t53 35.5 t41.5 40.5t25.5 30v584q0 9 -1 19.5t-5 20t-12 15.5t-23 6q-18 0 -33.5 -13.5t-27.5 -27.5l-25 21q15 21 37.5 46.5t54.5 48.5t73.5 38.5t92.5 15.5q44 0 77 -11.5t55 -31t33 -46t11 -56.5v-719zM620 1311q0 22 8.5 41.5t23.5 34.5t34.5 23.5t42.5 8.5q22 0 41.5 -8.5 t34.5 -23.5t23.5 -34.5t8.5 -41.5q0 -23 -8.5 -42.5t-23.5 -34.5t-34.5 -23.5t-41.5 -8.5q-23 0 -42.5 8.5t-34.5 23.5t-23.5 34.5t-8.5 42.5zM268 1311q0 22 8.5 41.5t23.5 34.5t34.5 23.5t41.5 8.5t42 -8.5t35 -23.5t23.5 -34.5t8.5 -41.5q0 -23 -8.5 -42.5t-23.5 -34.5 t-35 -23.5t-42 -8.5t-41.5 8.5t-34.5 23.5t-23.5 34.5t-8.5 42.5z"/>
<glyph unicode="" glyph-name="yacute" horiz-adv-x="983" d="M922 881q0 -183 -35.5 -353.5t-98 -320t-148.5 -273t-187 -211.5t-213.5 -137t-227.5 -49q-88 0 -136 29.5t-48 79.5q0 19 6 37t16 32t24 22.5t30 8.5q19 0 31.5 -19t26.5 -41.5t34 -41.5t55 -19q45 0 94 15.5t98.5 44.5t99 70.5t97.5 92.5q-28 101 -64.5 220.5 t-77 240.5t-83 233.5t-83 199.5t-78 139.5t-66.5 52.5q-19 0 -29.5 -6t-24.5 -17l-20 25q20 17 42 35t52 33t70 24.5t96 9.5q61 0 113.5 -27.5t95.5 -101.5q31 -55 64.5 -132t67.5 -172t68.5 -205.5t69.5 -231.5q62 130 100 275.5t38 299.5q0 55 -7 94t-16 66.5t-16 47 t-7 34.5t12 25.5t29 16.5t34.5 8.5t29.5 2.5q27 0 41.5 -11t21.5 -31.5t8 -49.5t1 -65zM324 1167l272 263q17 15 36 24.5t38 9.5q18 0 34 -8.5t28 -22.5t19 -31.5t7 -35.5q0 -26 -17.5 -45.5t-41.5 -30.5l-355 -151z"/>
<glyph unicode="" glyph-name="thorn" horiz-adv-x="1102" d="M434 225q0 -8 7 -28t22 -41q15 -22 39 -38t57 -16q44 0 75 34t51 90q20 58 29 134t9 164q0 107 -12 181q-11 73 -33 119t-53 66t-68 21q-21 1 -42 -11t-39 -30t-28 -38q-12 -21 -14 -41v-566zM127 1380q1 28 -13 50t-46 22q-18 0 -30 -6t-26 -16l-20 24q23 20 51 38 q27 18 61 32t72 23t80 9q65 0 101 -18t53 -42q16 -26 20 -54t4 -51v-476q40 55 106 89t144 34q80 0 145 -33t111 -98t71 -161t25 -222q0 -146 -30 -248t-80 -168q-50 -64 -113 -94t-129 -30q-54 0 -96 11t-72 27t-50 32t-32 28v-488q0 -13 -4 -31q-4 -19 -20 -35t-46 -28 t-83 -12t-84 12t-47 30t-19 36q-4 18 -4 28v1786z"/>
<glyph unicode="" glyph-name="ydieresis" horiz-adv-x="983" d="M922 881q0 -183 -35.5 -353.5t-98 -320t-148.5 -273t-187 -211.5t-213.5 -137t-227.5 -49q-88 0 -136 29.5t-48 79.5q0 19 6 37t16 32t24 22.5t30 8.5q19 0 31.5 -19t26.5 -41.5t34 -41.5t55 -19q45 0 94 15.5t98.5 44.5t99 70.5t97.5 92.5q-28 101 -64.5 220.5 t-77 240.5t-83 233.5t-83 199.5t-78 139.5t-66.5 52.5q-19 0 -29.5 -6t-24.5 -17l-20 25q20 17 42 35t52 33t70 24.5t96 9.5q61 0 113.5 -27.5t95.5 -101.5q31 -55 64.5 -132t67.5 -172t68.5 -205.5t69.5 -231.5q62 130 100 275.5t38 299.5q0 55 -7 94t-16 66.5t-16 47 t-7 34.5t12 25.5t29 16.5t34.5 8.5t29.5 2.5q27 0 41.5 -11t21.5 -31.5t8 -49.5t1 -65zM549 1311q0 22 8.5 41.5t23.5 34.5t34.5 23.5t42.5 8.5q22 0 41.5 -8.5t34.5 -23.5t23.5 -34.5t8.5 -41.5q0 -23 -8.5 -42.5t-23.5 -34.5t-34.5 -23.5t-41.5 -8.5q-23 0 -42.5 8.5 t-34.5 23.5t-23.5 34.5t-8.5 42.5zM197 1311q0 22 8.5 41.5t23.5 34.5t34.5 23.5t41.5 8.5t42 -8.5t35 -23.5t23.5 -34.5t8.5 -41.5q0 -23 -8.5 -42.5t-23.5 -34.5t-35 -23.5t-42 -8.5t-41.5 8.5t-34.5 23.5t-23.5 34.5t-8.5 42.5z"/>
<glyph unicode="" glyph-name="Amacron" horiz-adv-x="1528" d="M750 1098q-41 -167 -79.5 -314t-76.5 -274h326zM944 422h-377q-42 -132 -90.5 -229t-107.5 -161t-129.5 -95t-157.5 -31q-48 0 -92.5 8.5t-78.5 23.5t-54.5 35.5t-20.5 44.5q0 18 5.5 36.5t15.5 34t24.5 25t32.5 9.5q16 0 28 -22t30.5 -48.5t47.5 -48.5t80 -22 q52 0 99 25t90.5 78.5t83.5 136.5t78 200h-236v88h262q33 112 64.5 226t59.5 219t50 196.5t37 159.5q-20 56 -54.5 75t-92.5 19q-54 0 -111.5 -16.5t-104.5 -47t-77.5 -75t-30.5 -99.5q0 -32 8.5 -51t20 -28.5t22.5 -12t17 -2.5q24 0 40.5 8.5t29 18t24.5 18t27 8.5 q11 0 24.5 -5.5t25 -17.5t19.5 -31.5t8 -47.5q0 -40 -15.5 -69t-40 -48.5t-56 -29t-62.5 -9.5q-48 0 -86.5 17.5t-65.5 47.5t-41 70t-14 84q0 66 22 121.5t61 101t92 80t114.5 58t128.5 35.5t135 12q96 0 162.5 -15.5t111.5 -46t72.5 -77t45.5 -107.5l215 -739h217v-88h-193 l78 -262q4 -15 8 -28t9.5 -22.5t14 -15.5t21.5 -6q28 0 52 9.5t42 19.5l17 -37q-18 -13 -45.5 -29.5t-63 -31.5t-78.5 -25t-92 -10q-68 0 -109.5 17t-65 42t-34 53t-16.5 49zM512 1822h533v-141h-533v141z"/>
<glyph unicode="" glyph-name="amacron" horiz-adv-x="1020" d="M416 956q-34 0 -63 -8t-50 -20t-33 -26.5t-12 -27.5q0 -15 15.5 -21.5t34.5 -15t34.5 -24t15.5 -47.5q0 -21 -8.5 -38.5t-23 -31t-34 -21t-40.5 -7.5q-56 0 -90.5 38t-34.5 101q0 61 32 104.5t83.5 71.5t116.5 41.5t130 13.5q78 0 149 -17t125.5 -54t87 -94t32.5 -138 v-565q0 -9 1 -20t5 -20t12 -15t23 -6q18 0 33.5 13.5t27.5 27.5l25 -21q-15 -21 -36 -46t-51 -47t-70 -37t-91 -15q-63 0 -112 37.5t-64 115.5q-32 -43 -66.5 -72t-70.5 -47t-72.5 -26t-73.5 -8q-48 0 -93 15t-80.5 47.5t-57 84.5t-21.5 127q0 91 36 149t94.5 97.5t133 67.5 t152.5 59q58 23 84.5 68.5t26.5 93.5q0 74 -43.5 118.5t-118.5 44.5zM575 518q0 25 -16 38t-41 13q-35 0 -66.5 -16t-55.5 -47t-38 -76.5t-14 -105.5q0 -58 8.5 -96t23 -60.5t33.5 -31.5t40 -9q26 0 49 13.5t40 34.5t27 47t10 52v244zM243 1382h533v-141h-533v141z"/>
<glyph unicode="" glyph-name="Abreve" horiz-adv-x="1528" d="M750 1098q-41 -167 -79.5 -314t-76.5 -274h326zM944 422h-377q-42 -132 -90.5 -229t-107.5 -161t-129.5 -95t-157.5 -31q-48 0 -92.5 8.5t-78.5 23.5t-54.5 35.5t-20.5 44.5q0 18 5.5 36.5t15.5 34t24.5 25t32.5 9.5q16 0 28 -22t30.5 -48.5t47.5 -48.5t80 -22 q52 0 99 25t90.5 78.5t83.5 136.5t78 200h-236v88h262q33 112 64.5 226t59.5 219t50 196.5t37 159.5q-20 56 -54.5 75t-92.5 19q-54 0 -111.5 -16.5t-104.5 -47t-77.5 -75t-30.5 -99.5q0 -32 8.5 -51t20 -28.5t22.5 -12t17 -2.5q24 0 40.5 8.5t29 18t24.5 18t27 8.5 q11 0 24.5 -5.5t25 -17.5t19.5 -31.5t8 -47.5q0 -40 -15.5 -69t-40 -48.5t-56 -29t-62.5 -9.5q-48 0 -86.5 17.5t-65.5 47.5t-41 70t-14 84q0 66 22 121.5t61 101t92 80t114.5 58t128.5 35.5t135 12q96 0 162.5 -15.5t111.5 -46t72.5 -77t45.5 -107.5l215 -739h217v-88h-193 l78 -262q4 -15 8 -28t9.5 -22.5t14 -15.5t21.5 -6q28 0 52 9.5t42 19.5l17 -37q-18 -13 -45.5 -29.5t-63 -31.5t-78.5 -25t-92 -10q-68 0 -109.5 17t-65 42t-34 53t-16.5 49zM779 1601q-105 0 -175.5 67t-89.5 210h52q5 -21 17.5 -45t36.5 -45t62.5 -34.5t96.5 -13.5 q57 0 95.5 13.5t62.5 34.5t36.5 45t18.5 45h51q-9 -72 -32 -124t-57 -86t-78.5 -50.5t-96.5 -16.5z"/>
<glyph unicode="" glyph-name="abreve" horiz-adv-x="1020" d="M416 956q-34 0 -63 -8t-50 -20t-33 -26.5t-12 -27.5q0 -15 15.5 -21.5t34.5 -15t34.5 -24t15.5 -47.5q0 -21 -8.5 -38.5t-23 -31t-34 -21t-40.5 -7.5q-56 0 -90.5 38t-34.5 101q0 61 32 104.5t83.5 71.5t116.5 41.5t130 13.5q78 0 149 -17t125.5 -54t87 -94t32.5 -138 v-565q0 -9 1 -20t5 -20t12 -15t23 -6q18 0 33.5 13.5t27.5 27.5l25 -21q-15 -21 -36 -46t-51 -47t-70 -37t-91 -15q-63 0 -112 37.5t-64 115.5q-32 -43 -66.5 -72t-70.5 -47t-72.5 -26t-73.5 -8q-48 0 -93 15t-80.5 47.5t-57 84.5t-21.5 127q0 91 36 149t94.5 97.5t133 67.5 t152.5 59q58 23 84.5 68.5t26.5 93.5q0 74 -43.5 118.5t-118.5 44.5zM575 518q0 25 -16 38t-41 13q-35 0 -66.5 -16t-55.5 -47t-38 -76.5t-14 -105.5q0 -58 8.5 -96t23 -60.5t33.5 -31.5t40 -9q26 0 49 13.5t40 34.5t27 47t10 52v244zM510 1161q-105 0 -175.5 67t-89.5 210 h52q5 -21 17.5 -45t36.5 -45t62.5 -34.5t96.5 -13.5q57 0 95.5 13.5t62.5 34.5t36.5 45t18.5 45h51q-9 -72 -32 -124t-57 -86t-78.5 -50.5t-96.5 -16.5z"/>
<glyph unicode="" glyph-name="Aogonek" horiz-adv-x="1528" d="M750 1098q-42 -167 -80 -314t-76 -274h326zM944 422h-377q-43 -132 -91 -229t-107 -161t-129 -95t-158 -31q-48 0 -92 8t-79 24t-55 36t-20 44q0 18 6 36t15 34q11 16 25 26t32 9q16 0 28 -22q12 -23 30 -49t48 -48q29 -22 80 -22q52 0 99 25t91 79t83 136q40 83 78 200 h-236v88h262q33 112 65 226t59 219q28 105 50 197t37 159q-10 29 -21 47t-27 28t-40 15q-24 4 -57 4q-53 -1 -111 -17t-106 -46t-78 -76q-30 -44 -31 -99q1 -32 9 -51q8 -18 20 -28t22 -12q11 -2 17 -3q25 1 41 9t28 18t25 18q12 8 27 8q10 0 24 -6t26 -17t19 -31 q8 -20 8 -48q1 -40 -15 -69t-40 -49t-56 -28q-32 -10 -63 -10q-49 0 -87 18t-65 47q-27 30 -41 70t-14 84q0 65 22 121t61 102t92 80t115 58t128 35q67 12 135 12q97 1 163 -15t111 -46t73 -78q28 -46 45 -107l215 -739h217v-88h-193l78 -262q4 -15 8 -28q4 -12 10 -22 t14 -16t21 -6q28 0 52 10t42 19l17 -37q-38 -29 -86 -54t-90 -56t-72 -74q-29 -43 -29 -107q1 -59 37 -90t101 -31q51 0 89 11t60 20l16 -37q-16 -10 -40 -22t-56 -24q-32 -10 -69 -17t-78 -7q-97 0 -155 41t-58 119q0 38 12 70t35 60t53 54q30 25 66 48q-76 0 -120 17 t-68 42t-36 53q-10 28 -16 49z"/>
<glyph unicode="" glyph-name="aogonek" horiz-adv-x="1020" d="M575 518q0 25 -16 38t-41 13q-34 0 -66 -16t-56 -47q-24 -30 -38 -76t-14 -106q0 -58 8 -96t24 -60q14 -22 33 -32q19 -9 40 -9q26 -1 49 13t40 35t27 47t10 52v244zM416 956q-34 0 -63 -8t-50 -20t-33 -26t-12 -28q0 -16 16 -22t34 -14t34 -24t16 -48q0 -20 -8 -38 t-24 -32q-14 -14 -34 -20q-20 -8 -40 -8q-56 0 -90 38t-35 101q0 61 32 105q31 44 83 71t117 41t130 14q78 0 149 -17q72 -17 126 -54t86 -94t33 -138v-565q0 -9 1 -20t5 -20t12 -15t23 -6q18 -1 34 13t27 28l25 -21q-22 -31 -62 -63t-92 -70q-68 -51 -100 -100t-33 -103 q0 -59 36 -90t101 -31q52 0 90 11t60 20l16 -37q-16 -10 -40 -22t-56 -22t-69 -18q-37 -7 -79 -7q-48 -1 -88 11t-67 34q-28 22 -43 52q-15 31 -15 70q0 38 11 69t31 58q19 27 47 51t61 46q-49 11 -85 47t-48 102q-32 -43 -66 -72t-71 -47t-73 -26t-73 -8q-48 0 -93 15 q-44 15 -80 47t-58 85q-22 52 -21 127q0 91 36 149q37 57 95 97t132 68t153 59q59 23 85 69t26 93q0 75 -44 119t-118 44z"/>
<glyph unicode="" glyph-name="Cacute" horiz-adv-x="1116" d="M768 1409q-27 0 -63 -11t-73.5 -41.5t-73.5 -85.5t-64.5 -142.5t-46 -212.5t-17.5 -295q0 -162 17.5 -281t47 -202.5t67.5 -136.5t80 -82.5t84 -40.5t79 -11q39 0 79 10t78.5 29t74 46t65.5 62l45 -45q-30 -37 -72 -75.5t-97.5 -70t-124.5 -51.5t-153 -20 q-131 0 -243.5 50t-196 155.5t-131 270.5t-47.5 395q0 216 50 379t136 272.5t202 165t247 55.5q87 0 158.5 -16.5t123.5 -48t80.5 -78t28.5 -105.5q0 -27 -9 -56.5t-27.5 -54t-45.5 -40t-63 -15.5q-32 0 -49.5 14t-26 37t-11 52.5t-3.5 60.5t-4.5 60.5t-14 52.5t-30.5 37 t-56 14zM567 1607l272 263q17 15 36 24.5t38 9.5q18 0 34 -8.5t28 -22.5t19 -31.5t7 -35.5q0 -26 -17.5 -45.5t-41.5 -30.5l-355 -151z"/>
<glyph unicode="" glyph-name="cacute" d="M760 692q-31 0 -52 9.5t-34 25.5t-19 35.5t-6 40.5q0 27 3.5 52t1 45t-15.5 32t-46 12q-35 0 -74 -20t-71 -63t-53 -110.5t-21 -162.5q0 -105 19.5 -191.5t58.5 -147.5t97 -94.5t136 -33.5q35 0 66.5 8t59.5 22t53.5 32.5t49.5 39.5l25 -24q-23 -31 -59 -68t-87 -69.5 t-119 -54t-155 -21.5t-169.5 33.5t-146.5 97.5t-102.5 155.5t-38.5 208.5q0 91 23 167.5t62.5 138.5t92 109t110.5 78.5t118.5 47.5t116.5 16q74 0 129 -17t91.5 -45t54.5 -64.5t18 -75.5q0 -29 -7.5 -55.5t-22 -46t-36.5 -31t-51 -11.5zM406 1167l272 263q17 15 36 24.5 t38 9.5q18 0 34 -8.5t28 -22.5t19 -31.5t7 -35.5q0 -26 -17.5 -45.5t-41.5 -30.5l-355 -151z"/>
<glyph unicode="" glyph-name="Ccircumflex" horiz-adv-x="1116" d="M768 1409q-27 0 -63 -11t-73.5 -41.5t-73.5 -85.5t-64.5 -142.5t-46 -212.5t-17.5 -295q0 -162 17.5 -281t47 -202.5t67.5 -136.5t80 -82.5t84 -40.5t79 -11q39 0 79 10t78.5 29t74 46t65.5 62l45 -45q-30 -37 -72 -75.5t-97.5 -70t-124.5 -51.5t-153 -20 q-131 0 -243.5 50t-196 155.5t-131 270.5t-47.5 395q0 216 50 379t136 272.5t202 165t247 55.5q87 0 158.5 -16.5t123.5 -48t80.5 -78t28.5 -105.5q0 -27 -9 -56.5t-27.5 -54t-45.5 -40t-63 -15.5q-32 0 -49.5 14t-26 37t-11 52.5t-3.5 60.5t-4.5 60.5t-14 52.5t-30.5 37 t-56 14zM782 1904l225 -293l-30 -30l-252 172l-252 -172l-31 30l225 293h115z"/>
<glyph unicode="" glyph-name="ccircumflex" d="M760 692q-31 0 -52 9.5t-34 25.5t-19 35.5t-6 40.5q0 27 3.5 52t1 45t-15.5 32t-46 12q-35 0 -74 -20t-71 -63t-53 -110.5t-21 -162.5q0 -105 19.5 -191.5t58.5 -147.5t97 -94.5t136 -33.5q35 0 66.5 8t59.5 22t53.5 32.5t49.5 39.5l25 -24q-23 -31 -59 -68t-87 -69.5 t-119 -54t-155 -21.5t-169.5 33.5t-146.5 97.5t-102.5 155.5t-38.5 208.5q0 91 23 167.5t62.5 138.5t92 109t110.5 78.5t118.5 47.5t116.5 16q74 0 129 -17t91.5 -45t54.5 -64.5t18 -75.5q0 -29 -7.5 -55.5t-22 -46t-36.5 -31t-51 -11.5zM621 1464l225 -293l-30 -30 l-252 172l-252 -172l-31 30l225 293h115z"/>
<glyph unicode="" glyph-name="Cdotaccent" horiz-adv-x="1116" d="M768 1409q-27 0 -63 -11t-73.5 -41.5t-73.5 -85.5t-64.5 -142.5t-46 -212.5t-17.5 -295q0 -162 17.5 -281t47 -202.5t67.5 -136.5t80 -82.5t84 -40.5t79 -11q39 0 79 10t78.5 29t74 46t65.5 62l45 -45q-30 -37 -72 -75.5t-97.5 -70t-124.5 -51.5t-153 -20 q-131 0 -243.5 50t-196 155.5t-131 270.5t-47.5 395q0 216 50 379t136 272.5t202 165t247 55.5q87 0 158.5 -16.5t123.5 -48t80.5 -78t28.5 -105.5q0 -27 -9 -56.5t-27.5 -54t-45.5 -40t-63 -15.5q-32 0 -49.5 14t-26 37t-11 52.5t-3.5 60.5t-4.5 60.5t-14 52.5t-30.5 37 t-56 14zM606 1749q0 24 9.5 46t26 38.5t38 26.5t45.5 10q25 0 47 -10t38 -26.5t25.5 -38.5t9.5 -46q0 -25 -9.5 -46.5t-25.5 -37.5t-38 -25.5t-47 -9.5q-24 0 -45.5 9.5t-38 25.5t-26 37.5t-9.5 46.5z"/>
<glyph unicode="" glyph-name="cdotaccent" d="M760 692q-31 0 -52 9.5t-34 25.5t-19 35.5t-6 40.5q0 27 3.5 52t1 45t-15.5 32t-46 12q-35 0 -74 -20t-71 -63t-53 -110.5t-21 -162.5q0 -105 19.5 -191.5t58.5 -147.5t97 -94.5t136 -33.5q35 0 66.5 8t59.5 22t53.5 32.5t49.5 39.5l25 -24q-23 -31 -59 -68t-87 -69.5 t-119 -54t-155 -21.5t-169.5 33.5t-146.5 97.5t-102.5 155.5t-38.5 208.5q0 91 23 167.5t62.5 138.5t92 109t110.5 78.5t118.5 47.5t116.5 16q74 0 129 -17t91.5 -45t54.5 -64.5t18 -75.5q0 -29 -7.5 -55.5t-22 -46t-36.5 -31t-51 -11.5zM445 1309q0 24 9.5 46t26 38.5 t38 26.5t45.5 10q25 0 47 -10t38 -26.5t25.5 -38.5t9.5 -46q0 -25 -9.5 -46.5t-25.5 -37.5t-38 -25.5t-47 -9.5q-24 0 -45.5 9.5t-38 25.5t-26 37.5t-9.5 46.5z"/>
<glyph unicode="" glyph-name="Ccaron" horiz-adv-x="1116" d="M768 1409q-27 0 -63 -11t-73.5 -41.5t-73.5 -85.5t-64.5 -142.5t-46 -212.5t-17.5 -295q0 -162 17.5 -281t47 -202.5t67.5 -136.5t80 -82.5t84 -40.5t79 -11q39 0 79 10t78.5 29t74 46t65.5 62l45 -45q-30 -37 -72 -75.5t-97.5 -70t-124.5 -51.5t-153 -20 q-131 0 -243.5 50t-196 155.5t-131 270.5t-47.5 395q0 216 50 379t136 272.5t202 165t247 55.5q87 0 158.5 -16.5t123.5 -48t80.5 -78t28.5 -105.5q0 -27 -9 -56.5t-27.5 -54t-45.5 -40t-63 -15.5q-32 0 -49.5 14t-26 37t-11 52.5t-3.5 60.5t-4.5 60.5t-14 52.5t-30.5 37 t-56 14zM667 1581l-225 293l31 30l252 -172l252 172l30 -30l-225 -293h-115z"/>
<glyph unicode="" glyph-name="ccaron" d="M760 692q-31 0 -52 9.5t-34 25.5t-19 35.5t-6 40.5q0 27 3.5 52t1 45t-15.5 32t-46 12q-35 0 -74 -20t-71 -63t-53 -110.5t-21 -162.5q0 -105 19.5 -191.5t58.5 -147.5t97 -94.5t136 -33.5q35 0 66.5 8t59.5 22t53.5 32.5t49.5 39.5l25 -24q-23 -31 -59 -68t-87 -69.5 t-119 -54t-155 -21.5t-169.5 33.5t-146.5 97.5t-102.5 155.5t-38.5 208.5q0 91 23 167.5t62.5 138.5t92 109t110.5 78.5t118.5 47.5t116.5 16q74 0 129 -17t91.5 -45t54.5 -64.5t18 -75.5q0 -29 -7.5 -55.5t-22 -46t-36.5 -31t-51 -11.5zM506 1141l-225 293l31 30l252 -172 l252 172l30 -30l-225 -293h-115z"/>
<glyph unicode="" glyph-name="Dcaron" horiz-adv-x="1694" d="M817 190q0 -57 25.5 -81.5t75.5 -24.5q75 0 138.5 33t109.5 113.5t72 214.5t26 337q0 136 -16.5 235.5t-43.5 169t-61.5 113t-70.5 68t-70.5 33t-61.5 8.5q-65 0 -94 -29t-29 -104v-1086zM487 1319q0 32 -23.5 47.5t-51.5 15.5q-56 0 -109 -16.5t-95 -45t-67.5 -68 t-25.5 -85.5q0 -32 8.5 -51t19.5 -28.5t22.5 -12t16.5 -2.5q25 0 41 8.5t29 18t24.5 18t26.5 8.5q12 0 25.5 -5.5t25 -17.5t19.5 -31.5t8 -47.5q0 -40 -15.5 -69t-40 -48.5t-56 -29t-62.5 -9.5q-48 0 -86.5 16.5t-65.5 45.5t-41 68t-14 83q0 125 63 205.5t171.5 127t253 64 t307.5 17.5q186 0 336.5 -37.5t257.5 -121.5t165 -219.5t58 -330.5t-61.5 -346t-168 -253.5t-250 -156t-307.5 -53.5q-109 0 -175.5 10.5t-102.5 36t-48 68t-12 107.5v1120zM803 1581l-225 293l31 30l252 -172l252 172l30 -30l-225 -293h-115z"/>
<glyph unicode="" glyph-name="dcaron" horiz-adv-x="1245" d="M672 983q-19 100 -53 186.5t-81.5 149.5t-108 99t-130.5 36q-40 0 -72.5 -10t-56.5 -23.5t-39.5 -26t-22.5 -18.5l-26 35q24 31 58.5 58t75.5 46t86.5 30t90.5 11q148 0 260 -64.5t187 -182.5t113 -285t38 -371q0 -165 -33.5 -290t-95.5 -209.5t-150.5 -127t-199.5 -42.5 q-77 0 -156.5 27.5t-144 89.5t-105.5 162.5t-41 246.5q0 126 35.5 224t95.5 165.5t139 103t167 35.5q34 0 61 -5.5t47 -13.5t35 -17.5t27 -18.5zM684 543v44.5t-2 77t-7 92.5t-16 91q-24 31 -53.5 55.5t-75.5 24.5q-78 0 -114.5 -102t-36.5 -316q0 -94 8.5 -172t26 -134 t45 -87t65.5 -31q160 0 160 457zM979 1135q52 35 70 72t18 71q0 38 -22 68.5t-48 52.5q-12 15 -12 28q0 18 12 37.5t31.5 35t45.5 26t55 10.5q27 0 45 -13.5t29.5 -33t16.5 -41.5t5 -39q0 -50 -16.5 -95.5t-45.5 -86t-68.5 -74t-84.5 -59.5z"/>
<glyph unicode="" glyph-name="Dcroat" horiz-adv-x="1694" d="M1061 686h-244v-496q-1 -58 25 -82t76 -24q74 0 138 33t110 113t72 215q26 134 26 337q0 136 -16 236t-44 168q-28 70 -62 114t-70 68t-70 32t-62 9q-65 0 -94 -29t-29 -104v-502h244v-88zM487 686h-217v88h217v545q1 31 -23 47t-52 16q-56 0 -109 -16t-95 -46 q-42 -28 -68 -68t-25 -85q1 -32 9 -51q8 -18 19 -28t23 -12t16 -3q25 1 41 9t29 18q12 10 24 18t27 8q11 0 25 -6t26 -17t19 -31q8 -20 8 -48q1 -40 -15 -69t-40 -49t-56 -28q-32 -10 -63 -10q-49 0 -87 16t-65 46q-27 29 -41 68t-14 83q0 125 63 205t171 128q108 46 254 64 q144 18 307 17q187 1 337 -37t257 -122t165 -220t58 -330q0 -195 -62 -346q-62 -152 -168 -254t-250 -156t-307 -53q-109 1 -175 11t-103 36q-36 26 -48 68t-12 107v487z"/>
<glyph unicode="" glyph-name="dcroat" horiz-adv-x="1053" d="M680 543v45t-2 76q-2 44 -7 93t-16 91q-23 32 -53 56t-76 24q-78 0 -114 -102t-37 -316q1 -94 9 -172t26 -134t44 -87q28 -31 66 -31q160 0 160 457zM668 983q-12 59 -28 113t-38 104h-297v78h256q-49 80 -117 128t-149 48q-41 0 -73 -10t-56 -24t-40 -26t-22 -18l-26 35 q24 31 58 58t76 46q40 19 86 30t91 11q159 0 275 -72t190 -206h186v-78h-147q46 -111 70 -248t24 -299q1 -165 -33 -290t-96 -209t-150 -128q-88 -42 -200 -42q-76 0 -156 28t-144 89q-64 63 -106 163q-41 100 -41 246q-1 126 35 224t96 166t139 102q79 36 167 36 q34 0 61 -6t47 -13t35 -17t27 -19z"/>
<glyph unicode="" glyph-name="Emacron" horiz-adv-x="1415" d="M0 1061q0 117 64.5 199t176.5 134.5t261 76.5t319 24q81 0 158 -1.5t140.5 -4.5t109.5 -7t67 -9q20 -5 32 -11t18 -14t8 -18.5t2 -24.5q0 -12 -3 -26.5t-9 -27t-15 -21.5t-22 -9q-8 0 -17.5 7t-27 18t-47 23t-79 23t-123 18t-177.5 7v-641h415v-88h-415v-391 q0 -47 14 -80.5t40 -55.5t62.5 -32t81.5 -10q51 0 102 10.5t96.5 26.5t83 36t60.5 39l39 -43q-25 -20 -67 -54.5t-102.5 -67.5t-141 -57.5t-182.5 -24.5q-34 0 -77.5 3.5t-89.5 14t-90.5 31t-79 54.5t-56 83.5t-21.5 118.5v399h-156v88h156v629q-32 -3 -73.5 -11.5t-85 -24 t-85.5 -36.5t-75 -49t-53.5 -62.5t-20.5 -74.5q0 -32 8.5 -51t19.5 -28.5t22.5 -12t16.5 -2.5q25 0 41 8.5t29 18t24.5 18t26.5 8.5q12 0 25.5 -5.5t25 -17.5t19.5 -31.5t8 -47.5q0 -40 -15.5 -69.5t-40 -48.5t-56 -28.5t-62.5 -9.5q-48 0 -86.5 16.5t-65.5 45.5t-41 67.5 t-14 83.5zM587 1822h533v-141h-533v141z"/>
<glyph unicode="" glyph-name="emacron" d="M584 662q13 8 21.5 15.5t13.5 18t7.5 26t2.5 38.5q0 25 -5.5 55.5t-18.5 57.5t-33 45t-48 18q-36 0 -61.5 -21.5t-42 -55.5t-26 -77.5t-14.5 -87.5t-6 -84.5t-1 -68.5zM383 459q0 -32 9.5 -69.5t27.5 -75.5t44.5 -72.5t61 -61.5t76.5 -43t92 -16q35 0 65 8t56 22t50 32.5 t48 39.5l25 -24q-23 -31 -59 -68t-87 -69.5t-119 -54t-155 -21.5t-169.5 31.5t-146.5 94.5t-102.5 157t-38.5 220q0 91 23 167t62.5 137t92 107t110.5 76.5t118.5 46t116.5 15.5q74 0 129 -16t91.5 -43t54.5 -62.5t18 -74.5q0 -47 -27 -84.5t-72 -65.5zM276 1382h533v-141 h-533v141z"/>
<glyph unicode="" glyph-name="Ebreve" horiz-adv-x="1415" d="M0 1061q0 117 64.5 199t176.5 134.5t261 76.5t319 24q81 0 158 -1.5t140.5 -4.5t109.5 -7t67 -9q20 -5 32 -11t18 -14t8 -18.5t2 -24.5q0 -12 -3 -26.5t-9 -27t-15 -21.5t-22 -9q-8 0 -17.5 7t-27 18t-47 23t-79 23t-123 18t-177.5 7v-641h415v-88h-415v-391 q0 -47 14 -80.5t40 -55.5t62.5 -32t81.5 -10q51 0 102 10.5t96.5 26.5t83 36t60.5 39l39 -43q-25 -20 -67 -54.5t-102.5 -67.5t-141 -57.5t-182.5 -24.5q-34 0 -77.5 3.5t-89.5 14t-90.5 31t-79 54.5t-56 83.5t-21.5 118.5v399h-156v88h156v629q-32 -3 -73.5 -11.5t-85 -24 t-85.5 -36.5t-75 -49t-53.5 -62.5t-20.5 -74.5q0 -32 8.5 -51t19.5 -28.5t22.5 -12t16.5 -2.5q25 0 41 8.5t29 18t24.5 18t26.5 8.5q12 0 25.5 -5.5t25 -17.5t19.5 -31.5t8 -47.5q0 -40 -15.5 -69.5t-40 -48.5t-56 -28.5t-62.5 -9.5q-48 0 -86.5 16.5t-65.5 45.5t-41 67.5 t-14 83.5zM854 1601q-105 0 -175.5 67t-89.5 210h52q5 -21 17.5 -45t36.5 -45t62.5 -34.5t96.5 -13.5q57 0 95.5 13.5t62.5 34.5t36.5 45t18.5 45h51q-9 -72 -32 -124t-57 -86t-78.5 -50.5t-96.5 -16.5z"/>
<glyph unicode="" glyph-name="ebreve" d="M584 662q13 8 21.5 15.5t13.5 18t7.5 26t2.5 38.5q0 25 -5.5 55.5t-18.5 57.5t-33 45t-48 18q-36 0 -61.5 -21.5t-42 -55.5t-26 -77.5t-14.5 -87.5t-6 -84.5t-1 -68.5zM383 459q0 -32 9.5 -69.5t27.5 -75.5t44.5 -72.5t61 -61.5t76.5 -43t92 -16q35 0 65 8t56 22t50 32.5 t48 39.5l25 -24q-23 -31 -59 -68t-87 -69.5t-119 -54t-155 -21.5t-169.5 31.5t-146.5 94.5t-102.5 157t-38.5 220q0 91 23 167t62.5 137t92 107t110.5 76.5t118.5 46t116.5 15.5q74 0 129 -16t91.5 -43t54.5 -62.5t18 -74.5q0 -47 -27 -84.5t-72 -65.5zM543 1161 q-105 0 -175.5 67t-89.5 210h52q5 -21 17.5 -45t36.5 -45t62.5 -34.5t96.5 -13.5q57 0 95.5 13.5t62.5 34.5t36.5 45t18.5 45h51q-9 -72 -32 -124t-57 -86t-78.5 -50.5t-96.5 -16.5z"/>
<glyph unicode="" glyph-name="Edotaccent" horiz-adv-x="1415" d="M0 1061q0 117 64.5 199t176.5 134.5t261 76.5t319 24q81 0 158 -1.5t140.5 -4.5t109.5 -7t67 -9q20 -5 32 -11t18 -14t8 -18.5t2 -24.5q0 -12 -3 -26.5t-9 -27t-15 -21.5t-22 -9q-8 0 -17.5 7t-27 18t-47 23t-79 23t-123 18t-177.5 7v-641h415v-88h-415v-391 q0 -47 14 -80.5t40 -55.5t62.5 -32t81.5 -10q51 0 102 10.5t96.5 26.5t83 36t60.5 39l39 -43q-25 -20 -67 -54.5t-102.5 -67.5t-141 -57.5t-182.5 -24.5q-34 0 -77.5 3.5t-89.5 14t-90.5 31t-79 54.5t-56 83.5t-21.5 118.5v399h-156v88h156v629q-32 -3 -73.5 -11.5t-85 -24 t-85.5 -36.5t-75 -49t-53.5 -62.5t-20.5 -74.5q0 -32 8.5 -51t19.5 -28.5t22.5 -12t16.5 -2.5q25 0 41 8.5t29 18t24.5 18t26.5 8.5q12 0 25.5 -5.5t25 -17.5t19.5 -31.5t8 -47.5q0 -40 -15.5 -69.5t-40 -48.5t-56 -28.5t-62.5 -9.5q-48 0 -86.5 16.5t-65.5 45.5t-41 67.5 t-14 83.5zM735 1749q0 24 9.5 46t26 38.5t38 26.5t45.5 10q25 0 47 -10t38 -26.5t25.5 -38.5t9.5 -46q0 -25 -9.5 -46.5t-25.5 -37.5t-38 -25.5t-47 -9.5q-24 0 -45.5 9.5t-38 25.5t-26 37.5t-9.5 46.5z"/>
<glyph unicode="" glyph-name="edotaccent" d="M584 662q13 8 21.5 15.5t13.5 18t7.5 26t2.5 38.5q0 25 -5.5 55.5t-18.5 57.5t-33 45t-48 18q-36 0 -61.5 -21.5t-42 -55.5t-26 -77.5t-14.5 -87.5t-6 -84.5t-1 -68.5zM383 459q0 -32 9.5 -69.5t27.5 -75.5t44.5 -72.5t61 -61.5t76.5 -43t92 -16q35 0 65 8t56 22t50 32.5 t48 39.5l25 -24q-23 -31 -59 -68t-87 -69.5t-119 -54t-155 -21.5t-169.5 31.5t-146.5 94.5t-102.5 157t-38.5 220q0 91 23 167t62.5 137t92 107t110.5 76.5t118.5 46t116.5 15.5q74 0 129 -16t91.5 -43t54.5 -62.5t18 -74.5q0 -47 -27 -84.5t-72 -65.5zM424 1309 q0 24 9.5 46t26 38.5t38 26.5t45.5 10q25 0 47 -10t38 -26.5t25.5 -38.5t9.5 -46q0 -25 -9.5 -46.5t-25.5 -37.5t-38 -25.5t-47 -9.5q-24 0 -45.5 9.5t-38 25.5t-26 37.5t-9.5 46.5z"/>
<glyph unicode="" glyph-name="Eogonek" horiz-adv-x="1415" d="M0 1061q0 117 64 199t177 134q112 52 261 77q149 24 319 24q81 1 158 -1t141 -5t109 -7q46 -4 67 -9q20 -5 32 -11t18 -14t8 -18t2 -25q0 -13 -3 -27t-9 -26t-15 -22q-9 -9 -22 -9q-7 0 -17 7t-28 18t-46 23q-30 12 -80 23t-122 18q-74 7 -178 7v-641h415v-88h-415v-391 q0 -47 14 -81t40 -55q26 -22 62 -32t82 -10q51 1 102 11q50 10 96 26t84 36t60 39l39 -43q-25 -21 -59 -45q-34 -25 -70 -51t-71 -56t-62 -61q-27 -32 -44 -67t-17 -72q0 -59 36 -90t101 -31q52 0 90 11t59 20l17 -37q-17 -10 -41 -22q-24 -13 -56 -23t-68 -17 q-37 -7 -79 -7q-97 0 -155 40t-58 119q0 59 27 107t73 88q-28 -6 -56 -8t-60 -2q-34 0 -78 4t-89 14q-47 10 -91 30t-78 55q-34 33 -56 83t-22 119v399h-156v88h156v629q-32 -3 -74 -11t-84 -24q-44 -16 -86 -37t-75 -49t-53 -62t-21 -75q1 -32 9 -51q8 -18 19 -28t23 -12 t16 -3q25 1 41 9t29 18q12 10 24 18t27 8q11 0 25 -6t26 -17t19 -31q8 -20 8 -48q1 -40 -15 -70t-40 -48t-56 -28t-63 -10q-49 0 -87 16t-65 46t-41 68t-14 83z"/>
<glyph unicode="" glyph-name="eogonek" d="M584 662q14 8 22 16t13 18t7 26t3 38q1 26 -5 56t-19 57t-33 45t-48 18q-36 0 -62 -22t-42 -55t-26 -77t-14 -88q-5 -44 -6 -84t-1 -69zM383 459q-1 -31 9 -69t28 -76t44 -72t62 -62q34 -27 76 -43t92 -16q35 0 65 8t56 22q26 15 50 33t48 39l25 -24q-26 -31 -62 -66 t-85 -67q-35 -23 -65 -44q-30 -22 -50 -46t-32 -56q-11 -32 -11 -76q0 -58 36 -89t101 -31q52 0 90 10t60 20l16 -37q-16 -10 -40 -22q-24 -13 -56 -23t-69 -17t-79 -7q-97 0 -155 40t-58 119q0 56 23 100t61 81q-11 0 -21 -1t-24 -1q-88 0 -170 32t-146 94q-64 63 -102 157 t-39 220q0 91 23 167q22 76 62 137t92 107t111 76t119 46t116 16q74 0 129 -16t91 -43t55 -63q18 -36 18 -74q0 -46 -27 -84t-72 -66z"/>
<glyph unicode="" glyph-name="Ecaron" horiz-adv-x="1415" d="M0 1061q0 117 64.5 199t176.5 134.5t261 76.5t319 24q81 0 158 -1.5t140.5 -4.5t109.5 -7t67 -9q20 -5 32 -11t18 -14t8 -18.5t2 -24.5q0 -12 -3 -26.5t-9 -27t-15 -21.5t-22 -9q-8 0 -17.5 7t-27 18t-47 23t-79 23t-123 18t-177.5 7v-641h415v-88h-415v-391 q0 -47 14 -80.5t40 -55.5t62.5 -32t81.5 -10q51 0 102 10.5t96.5 26.5t83 36t60.5 39l39 -43q-25 -20 -67 -54.5t-102.5 -67.5t-141 -57.5t-182.5 -24.5q-34 0 -77.5 3.5t-89.5 14t-90.5 31t-79 54.5t-56 83.5t-21.5 118.5v399h-156v88h156v629q-32 -3 -73.5 -11.5t-85 -24 t-85.5 -36.5t-75 -49t-53.5 -62.5t-20.5 -74.5q0 -32 8.5 -51t19.5 -28.5t22.5 -12t16.5 -2.5q25 0 41 8.5t29 18t24.5 18t26.5 8.5q12 0 25.5 -5.5t25 -17.5t19.5 -31.5t8 -47.5q0 -40 -15.5 -69.5t-40 -48.5t-56 -28.5t-62.5 -9.5q-48 0 -86.5 16.5t-65.5 45.5t-41 67.5 t-14 83.5zM796 1581l-225 293l31 30l252 -172l252 172l30 -30l-225 -293h-115z"/>
<glyph unicode="" glyph-name="ecaron" d="M584 662q13 8 21.5 15.5t13.5 18t7.5 26t2.5 38.5q0 25 -5.5 55.5t-18.5 57.5t-33 45t-48 18q-36 0 -61.5 -21.5t-42 -55.5t-26 -77.5t-14.5 -87.5t-6 -84.5t-1 -68.5zM383 459q0 -32 9.5 -69.5t27.5 -75.5t44.5 -72.5t61 -61.5t76.5 -43t92 -16q35 0 65 8t56 22t50 32.5 t48 39.5l25 -24q-23 -31 -59 -68t-87 -69.5t-119 -54t-155 -21.5t-169.5 31.5t-146.5 94.5t-102.5 157t-38.5 220q0 91 23 167t62.5 137t92 107t110.5 76.5t118.5 46t116.5 15.5q74 0 129 -16t91.5 -43t54.5 -62.5t18 -74.5q0 -47 -27 -84.5t-72 -65.5zM485 1141l-225 293 l31 30l252 -172l252 172l30 -30l-225 -293h-115z"/>
<glyph unicode="" glyph-name="Gcircumflex" horiz-adv-x="1366" d="M1346 616h-144v-587q0 -136 -46 -237.5t-128.5 -169t-195.5 -101t-246 -33.5q-51 0 -98 8.5t-83 23.5t-57.5 35.5t-21.5 45.5q0 18 5 36.5t15 33.5t24.5 24.5t32.5 9.5q12 0 20 -11t17 -27t21 -35.5t30 -35.5t44 -27t65 -11q77 0 136 28t98.5 78.5t60 121t20.5 155.5v61 q-42 -9 -84.5 -13.5t-95.5 -4.5q-136 0 -255 41.5t-207.5 128.5t-139.5 222t-51 322q0 130 28 240t78 198.5t118.5 155.5t149 112t170 68t181.5 23q87 0 162 -16.5t130.5 -48t87.5 -78t32 -105.5q0 -27 -9.5 -56.5t-27.5 -54t-45.5 -40t-63.5 -15.5q-43 0 -63.5 24.5 t-31 60.5t-15.5 79t-17 79t-36.5 60.5t-71.5 24.5q-35 0 -79 -17t-89 -53.5t-88.5 -93t-77 -135.5t-54 -181.5t-20.5 -230.5q0 -142 18 -242.5t47.5 -168t68 -107t79.5 -59.5t81.5 -25.5t74.5 -5.5q35 0 64 5.5t52 15.5v505h-176v89h607v-89zM846 1904l225 -293l-30 -30 l-252 172l-252 -172l-31 30l225 293h115z"/>
<glyph unicode="" glyph-name="gcircumflex" horiz-adv-x="1044" d="M805 -258q0 32 -25 52.5t-65.5 33t-92 19t-104.5 10t-103 6.5t-87 8q-21 -15 -40.5 -32.5t-34 -37t-23.5 -41t-9 -43.5q0 -38 22 -63.5t59.5 -40.5t87 -21t104.5 -6q73 0 131 12.5t98 34t61 49.5t21 60zM653 637q0 58 -6 113t-21 98t-41 69.5t-67 26.5t-67 -27.5t-41 -72 t-21 -101t-6 -114.5q0 -59 6 -116t21 -102t41 -72.5t67 -27.5t67 29t41 75.5t21 104.5t6 117zM82 629q0 102 35.5 178.5t95.5 128t139 77t166 25.5t165 -23t138 -71q19 29 31 61t12 64q0 42 -22.5 67t-57.5 25v29q22 7 39 12.5t31 8.5t28 4.5t31 1.5q47 0 72 -29t25 -80 q0 -30 -14 -59.5t-35 -56.5t-46.5 -51t-48.5 -42q42 -48 65 -112t23 -146q0 -103 -35.5 -182t-95.5 -133t-139 -81.5t-166 -27.5q-51 0 -100 9t-92 26q-16 -12 -27.5 -30t-11.5 -40q0 -37 32 -55t85 -26t120 -10t137.5 -6.5t137.5 -17t120 -41t85 -77.5t32 -127 q0 -57 -24 -102.5t-64.5 -80t-94 -59t-113 -40t-121 -22.5t-117.5 -7q-102 0 -183.5 10.5t-138.5 32.5t-88 57t-31 84q0 35 16 64.5t42.5 54t59.5 44t67 36.5q-50 21 -83.5 63.5t-33.5 112.5q0 37 13 68.5t33.5 58t45 48t47.5 36.5q-41 24 -75.5 58.5t-59 78t-38 96.5 t-13.5 115zM514 1464l225 -293l-30 -30l-252 172l-252 -172l-31 30l225 293h115z"/>
<glyph unicode="" glyph-name="Gbreve" horiz-adv-x="1366" d="M1346 616h-144v-587q0 -136 -46 -237.5t-128.5 -169t-195.5 -101t-246 -33.5q-51 0 -98 8.5t-83 23.5t-57.5 35.5t-21.5 45.5q0 18 5 36.5t15 33.5t24.5 24.5t32.5 9.5q12 0 20 -11t17 -27t21 -35.5t30 -35.5t44 -27t65 -11q77 0 136 28t98.5 78.5t60 121t20.5 155.5v61 q-42 -9 -84.5 -13.5t-95.5 -4.5q-136 0 -255 41.5t-207.5 128.5t-139.5 222t-51 322q0 130 28 240t78 198.5t118.5 155.5t149 112t170 68t181.5 23q87 0 162 -16.5t130.5 -48t87.5 -78t32 -105.5q0 -27 -9.5 -56.5t-27.5 -54t-45.5 -40t-63.5 -15.5q-43 0 -63.5 24.5 t-31 60.5t-15.5 79t-17 79t-36.5 60.5t-71.5 24.5q-35 0 -79 -17t-89 -53.5t-88.5 -93t-77 -135.5t-54 -181.5t-20.5 -230.5q0 -142 18 -242.5t47.5 -168t68 -107t79.5 -59.5t81.5 -25.5t74.5 -5.5q35 0 64 5.5t52 15.5v505h-176v89h607v-89zM789 1601q-105 0 -175.5 67 t-89.5 210h52q5 -21 17.5 -45t36.5 -45t62.5 -34.5t96.5 -13.5q57 0 95.5 13.5t62.5 34.5t36.5 45t18.5 45h51q-9 -72 -32 -124t-57 -86t-78.5 -50.5t-96.5 -16.5z"/>
<glyph unicode="" glyph-name="gbreve" horiz-adv-x="1044" d="M805 -258q0 32 -25 52.5t-65.5 33t-92 19t-104.5 10t-103 6.5t-87 8q-21 -15 -40.5 -32.5t-34 -37t-23.5 -41t-9 -43.5q0 -38 22 -63.5t59.5 -40.5t87 -21t104.5 -6q73 0 131 12.5t98 34t61 49.5t21 60zM653 637q0 58 -6 113t-21 98t-41 69.5t-67 26.5t-67 -27.5t-41 -72 t-21 -101t-6 -114.5q0 -59 6 -116t21 -102t41 -72.5t67 -27.5t67 29t41 75.5t21 104.5t6 117zM82 629q0 102 35.5 178.5t95.5 128t139 77t166 25.5t165 -23t138 -71q19 29 31 61t12 64q0 42 -22.5 67t-57.5 25v29q22 7 39 12.5t31 8.5t28 4.5t31 1.5q47 0 72 -29t25 -80 q0 -30 -14 -59.5t-35 -56.5t-46.5 -51t-48.5 -42q42 -48 65 -112t23 -146q0 -103 -35.5 -182t-95.5 -133t-139 -81.5t-166 -27.5q-51 0 -100 9t-92 26q-16 -12 -27.5 -30t-11.5 -40q0 -37 32 -55t85 -26t120 -10t137.5 -6.5t137.5 -17t120 -41t85 -77.5t32 -127 q0 -57 -24 -102.5t-64.5 -80t-94 -59t-113 -40t-121 -22.5t-117.5 -7q-102 0 -183.5 10.5t-138.5 32.5t-88 57t-31 84q0 35 16 64.5t42.5 54t59.5 44t67 36.5q-50 21 -83.5 63.5t-33.5 112.5q0 37 13 68.5t33.5 58t45 48t47.5 36.5q-41 24 -75.5 58.5t-59 78t-38 96.5 t-13.5 115zM519 1161q-105 0 -175.5 67t-89.5 210h52q5 -21 17.5 -45t36.5 -45t62.5 -34.5t96.5 -13.5q57 0 95.5 13.5t62.5 34.5t36.5 45t18.5 45h51q-9 -72 -32 -124t-57 -86t-78.5 -50.5t-96.5 -16.5z"/>
<glyph unicode="" glyph-name="Gdotaccent" horiz-adv-x="1366" d="M1346 616h-144v-587q0 -136 -46 -237.5t-128.5 -169t-195.5 -101t-246 -33.5q-51 0 -98 8.5t-83 23.5t-57.5 35.5t-21.5 45.5q0 18 5 36.5t15 33.5t24.5 24.5t32.5 9.5q12 0 20 -11t17 -27t21 -35.5t30 -35.5t44 -27t65 -11q77 0 136 28t98.5 78.5t60 121t20.5 155.5v61 q-42 -9 -84.5 -13.5t-95.5 -4.5q-136 0 -255 41.5t-207.5 128.5t-139.5 222t-51 322q0 130 28 240t78 198.5t118.5 155.5t149 112t170 68t181.5 23q87 0 162 -16.5t130.5 -48t87.5 -78t32 -105.5q0 -27 -9.5 -56.5t-27.5 -54t-45.5 -40t-63.5 -15.5q-43 0 -63.5 24.5 t-31 60.5t-15.5 79t-17 79t-36.5 60.5t-71.5 24.5q-35 0 -79 -17t-89 -53.5t-88.5 -93t-77 -135.5t-54 -181.5t-20.5 -230.5q0 -142 18 -242.5t47.5 -168t68 -107t79.5 -59.5t81.5 -25.5t74.5 -5.5q35 0 64 5.5t52 15.5v505h-176v89h607v-89zM670 1749q0 24 9.5 46t26 38.5 t38 26.5t45.5 10q25 0 47 -10t38 -26.5t25.5 -38.5t9.5 -46q0 -25 -9.5 -46.5t-25.5 -37.5t-38 -25.5t-47 -9.5q-24 0 -45.5 9.5t-38 25.5t-26 37.5t-9.5 46.5z"/>
<glyph unicode="" glyph-name="gdotaccent" horiz-adv-x="1044" d="M805 -258q0 32 -25 52.5t-65.5 33t-92 19t-104.5 10t-103 6.5t-87 8q-21 -15 -40.5 -32.5t-34 -37t-23.5 -41t-9 -43.5q0 -38 22 -63.5t59.5 -40.5t87 -21t104.5 -6q73 0 131 12.5t98 34t61 49.5t21 60zM653 637q0 58 -6 113t-21 98t-41 69.5t-67 26.5t-67 -27.5t-41 -72 t-21 -101t-6 -114.5q0 -59 6 -116t21 -102t41 -72.5t67 -27.5t67 29t41 75.5t21 104.5t6 117zM82 629q0 102 35.5 178.5t95.5 128t139 77t166 25.5t165 -23t138 -71q19 29 31 61t12 64q0 42 -22.5 67t-57.5 25v29q22 7 39 12.5t31 8.5t28 4.5t31 1.5q47 0 72 -29t25 -80 q0 -30 -14 -59.5t-35 -56.5t-46.5 -51t-48.5 -42q42 -48 65 -112t23 -146q0 -103 -35.5 -182t-95.5 -133t-139 -81.5t-166 -27.5q-51 0 -100 9t-92 26q-16 -12 -27.5 -30t-11.5 -40q0 -37 32 -55t85 -26t120 -10t137.5 -6.5t137.5 -17t120 -41t85 -77.5t32 -127 q0 -57 -24 -102.5t-64.5 -80t-94 -59t-113 -40t-121 -22.5t-117.5 -7q-102 0 -183.5 10.5t-138.5 32.5t-88 57t-31 84q0 35 16 64.5t42.5 54t59.5 44t67 36.5q-50 21 -83.5 63.5t-33.5 112.5q0 37 13 68.5t33.5 58t45 48t47.5 36.5q-41 24 -75.5 58.5t-59 78t-38 96.5 t-13.5 115zM400 1309q0 24 9.5 46t26 38.5t38 26.5t45.5 10q25 0 47 -10t38 -26.5t25.5 -38.5t9.5 -46q0 -25 -9.5 -46.5t-25.5 -37.5t-38 -25.5t-47 -9.5q-24 0 -45.5 9.5t-38 25.5t-26 37.5t-9.5 46.5z"/>
<glyph unicode="" glyph-name="Gcommaaccent" horiz-adv-x="1366" d="M451 -446q27 12 45 24t28 22q10 12 14 23t3 23q0 18 -13 32t-29 28t-29 30q-13 18 -13 45q0 16 7 33q8 17 22 31t36 23t51 9q31 0 54 -11t39 -29q16 -19 22 -41q8 -22 8 -44q0 -40 -17 -74t-47 -64q-30 -28 -72 -51t-93 -40zM915 2q-43 -10 -85 -14t-95 -4 q-136 0 -255 42q-120 42 -208 128q-88 87 -139 222t-51 322q0 130 28 240t78 198t118 156q68 67 150 112q80 45 170 68t181 23q87 -1 162 -17t131 -48t87 -78q32 -46 32 -105q1 -27 -9 -57t-28 -54t-46 -40t-63 -15q-43 1 -63 25t-32 60q-10 36 -15 79t-17 79t-36 60t-72 25 q-35 0 -79 -17q-44 -18 -89 -54q-44 -36 -88 -92t-78 -136t-54 -182t-20 -230q0 -142 18 -242t48 -168t68 -108t79 -59t81 -25t75 -6t64 6t52 15v505h-176v89h607v-89h-144v-448q0 -145 -24 -252t-64 -182q-40 -74 -90 -122t-102 -75t-100 -37t-85 -12l-10 41q45 11 80 27 t59 49q24 31 36 85t13 138v174z"/>
<glyph unicode="" glyph-name="gcommaaccent" horiz-adv-x="1044" d="M805 -258q0 32 -25 52.5t-65.5 33t-92 19t-104.5 10t-103 6.5t-87 8q-21 -15 -40.5 -32.5t-34 -37t-23.5 -41t-9 -43.5q0 -38 22 -63.5t59.5 -40.5t87 -21t104.5 -6q73 0 131 12.5t98 34t61 49.5t21 60zM653 637q0 58 -6 113t-21 98t-41 69.5t-67 26.5t-67 -27.5t-41 -72 t-21 -101t-6 -114.5q0 -59 6 -116t21 -102t41 -72.5t67 -27.5t67 29t41 75.5t21 104.5t6 117zM82 629q0 102 35.5 178.5t95.5 128t139 77t166 25.5t165 -23t138 -71q19 29 31 61t12 64q0 42 -22.5 67t-57.5 25v29q22 7 39 12.5t31 8.5t28 4.5t31 1.5q47 0 72 -29t25 -80 q0 -30 -14 -59.5t-35 -56.5t-46.5 -51t-48.5 -42q42 -48 65 -112t23 -146q0 -103 -35.5 -182t-95.5 -133t-139 -81.5t-166 -27.5q-51 0 -100 9t-92 26q-16 -12 -27.5 -30t-11.5 -40q0 -37 32 -55t85 -26t120 -10t137.5 -6.5t137.5 -17t120 -41t85 -77.5t32 -127 q0 -57 -24 -102.5t-64.5 -80t-94 -59t-113 -40t-121 -22.5t-117.5 -7q-102 0 -183.5 10.5t-138.5 32.5t-88 57t-31 84q0 35 16 64.5t42.5 54t59.5 44t67 36.5q-50 21 -83.5 63.5t-33.5 112.5q0 37 13 68.5t33.5 58t45 48t47.5 36.5q-41 24 -75.5 58.5t-59 78t-38 96.5 t-13.5 115zM641 1464q-28 -12 -45.5 -23.5t-27.5 -23t-13.5 -22.5t-3.5 -23q0 -19 13 -32.5t29 -27t29 -31t13 -44.5q0 -16 -7 -33t-21.5 -31t-36 -23t-51.5 -9q-31 0 -54 11t-38.5 29t-23 40t-7.5 45q0 40 17 74.5t47 63t72 51.5t93 40z"/>
<glyph unicode="" glyph-name="Hcircumflex" horiz-adv-x="1776" d="M326 766h182v569q0 22 -5 35t-14 20.5t-21.5 10t-27.5 2.5q-22 0 -54.5 -7t-68.5 -21t-72.5 -34.5t-65 -46.5t-46.5 -58t-18 -69q0 -32 8.5 -51t19.5 -28.5t22.5 -12t16.5 -2.5q25 0 41 8.5t29 18t24.5 18t26.5 8.5q12 0 25.5 -5.5t25 -17.5t19.5 -31.5t8 -47.5 q0 -40 -15.5 -69t-40 -48.5t-56 -29t-62.5 -9.5q-48 0 -86.5 16.5t-65.5 45.5t-41 68t-14 83q0 69 25 126.5t68.5 103.5t102 80.5t126.5 57.5t142 34.5t148 11.5q82 0 127.5 -15.5t67 -37.5t25.5 -46t4 -40v-590h368v481q0 165 43 281t111 189.5t152 107t167 33.5 q57 0 108.5 -8.5t90 -25.5t61.5 -42.5t23 -59.5q0 -15 -4.5 -28.5t-12.5 -24.5t-18.5 -17.5t-21.5 -6.5q-18 0 -32 11t-26.5 27.5t-24.5 36t-27 36t-34 27.5t-45 11q-61 0 -97 -33.5t-55 -98t-24.5 -160.5t-5.5 -220v-516h201v-88h-201v-608q0 -29 12.5 -46.5t38.5 -17.5 q28 0 52 10t42 19l17 -37q-22 -15 -51.5 -31.5t-65 -31t-76 -24t-84.5 -9.5q-68 0 -110 18t-65 47.5t-30.5 66.5t-7.5 75v569h-368v-498q0 -136 -49.5 -237t-135.5 -168.5t-202.5 -101t-249.5 -33.5q-51 0 -98 8.5t-83 23.5t-57.5 35.5t-21.5 44.5q0 18 5 36.5t15 33.5 t24.5 25t32.5 10q11 0 19.5 -11t17.5 -27.5t20.5 -35.5t30 -35.5t44.5 -27.5t65 -11q77 0 132.5 28t91.5 79t53.5 121.5t17.5 154.5v586h-182v88zM1051 1966l225 -293l-30 -30l-252 172l-252 -172l-31 30l225 293h115z"/>
<glyph unicode="" glyph-name="hcircumflex" horiz-adv-x="1092" d="M434 848q37 53 84 95q19 18 42.5 35t50 30.5t56 21.5t60.5 8q67 0 120 -26t89 -87t55 -161.5t19 -249.5q0 -145 -26 -252t-68 -182t-95 -122.5t-107 -74.5t-104 -37.5t-86 -11.5l-10 41q45 11 80 41t59 98.5t36.5 184.5t12.5 299q0 126 -11.5 201.5t-30 115t-42 52 t-47.5 12.5q-29 0 -51 -15.5t-38.5 -35.5t-28 -40t-19.5 -30v-668q0 -13 -4 -31.5t-19.5 -35t-46 -28t-83.5 -11.5t-84 12.5t-46.5 29.5t-19.5 35t-4 29v1290q0 29 -13.5 50.5t-45.5 21.5q-17 0 -29.5 -5.5t-26.5 -16.5l-20 24q23 19 51 37.5t61.5 32.5t71.5 23t80 9 q65 0 101 -17.5t53 -43t20.5 -54t3.5 -50.5v-543zM314 1968l225 -293l-30 -30l-252 172l-252 -172l-31 30l225 293h115z"/>
<glyph unicode="" glyph-name="Hbar" horiz-adv-x="1776" d="M836 766h368v205h-368v-205zM1677 1858q57 0 109 -8t90 -26q38 -16 61 -42t23 -60q0 -14 -4 -28t-13 -25t-19 -17t-21 -7q-18 0 -32 11q-15 12 -27 28t-24 36t-27 36t-34 27t-45 11q-61 0 -97 -34t-55 -98q-18 -64 -24 -160t-6 -220v-219h90v-92h-90v-205h201v-88h-201 v-608q0 -28 12 -46t39 -18q28 0 52 10t42 19l17 -37q-22 -16 -52 -32t-64 -30q-36 -14 -76 -24t-85 -10q-68 0 -110 18t-65 48q-22 30 -30 66q-8 37 -8 75v569h-368v-498q0 -136 -50 -237t-135 -169q-87 -68 -203 -100q-116 -34 -249 -34q-51 0 -98 8t-83 24t-58 36t-21 44 q0 18 5 36t15 34q11 15 25 25t32 10q12 0 20 -11q8 -12 17 -28t21 -35t30 -35t44 -28q26 -11 65 -11q77 0 133 28t91 79q35 52 53 122t18 154v586h-182v88h182v205h-90v92h90v272q0 22 -5 35q-5 12 -14 20t-21 10t-28 3q-22 0 -54 -7t-69 -21q-37 -15 -73 -35t-64 -46 t-47 -58q-18 -32 -18 -69q1 -32 9 -51q8 -18 19 -28t23 -12t16 -3q25 1 41 9t29 18q12 10 24 18t27 8q11 0 25 -6t26 -17t19 -31q8 -20 8 -48q1 -40 -15 -69t-40 -49t-56 -28q-32 -10 -63 -10q-49 0 -87 16t-65 46q-27 29 -41 68t-14 83q0 69 25 127t69 103q44 47 102 81 t126 57t142 35t148 11q82 1 128 -15t66 -38q22 -22 26 -46t4 -40v-293h368v184q0 165 43 281t111 190t152 106q84 34 167 34z"/>
<glyph unicode="" glyph-name="hbar" horiz-adv-x="1126" d="M127 1200h-107v78h107v102q1 28 -13 50t-46 22q-18 0 -30 -6t-26 -16l-20 24q23 20 51 38q27 18 61 32t72 23t80 9q65 0 101 -18t53 -42q16 -26 20 -54t4 -51v-113h219v-78h-219v-352q50 53 105 95q24 18 51 35q27 16 56 30t60 22t62 8q61 0 103 -22t68 -56 q26 -35 38 -79t12 -88v-619q0 -10 1 -20t5 -20t12 -15q8 -6 23 -6q19 -1 34 13t28 28l24 -21q-16 -21 -38 -47t-54 -48t-74 -38t-92 -16q-44 0 -77 12t-55 30q-22 20 -33 46t-11 57v668q0 15 -4 29t-14 26q-8 12 -21 20t-31 7q-30 1 -58 -15t-52 -36t-42 -40t-26 -30v-674 q0 -12 -4 -30t-20 -34t-46 -26t-83 -10t-84 12t-47 30q-16 17 -19 35q-4 18 -4 29v1110z"/>
<glyph unicode="" glyph-name="Itilde" horiz-adv-x="987" d="M836 131q0 -77 -40.5 -112t-123.5 -35q-84 0 -124 35t-40 112v1204q0 22 -5 35t-14 20.5t-21.5 10t-27.5 2.5q-22 0 -54.5 -7t-68.5 -21t-72.5 -34.5t-65 -46.5t-46.5 -58t-18 -69q0 -32 8.5 -51t19.5 -28.5t22.5 -12t16.5 -2.5q25 0 41 8.5t29 18t24.5 18t26.5 8.5 q12 0 25.5 -5.5t25 -17.5t19.5 -31.5t8 -47.5q0 -40 -15.5 -69t-40 -48.5t-56 -29t-62.5 -9.5q-48 0 -86.5 16.5t-65.5 45.5t-41 68t-14 83q0 69 25 126.5t68.5 103.5t102 80.5t126.5 57.5t142 34.5t148 11.5q82 0 127.5 -15.5t67 -37.5t25.5 -46t4 -40v-1225zM500 1726 q-22 0 -40 -9.5t-31.5 -25t-22.5 -36t-13 -41.5h-45q5 63 22.5 109.5t42 77.5t53 46.5t56.5 15.5q35 0 67 -15.5t61.5 -33.5t56 -33.5t51.5 -15.5q21 0 39 9.5t31.5 25t22.5 36t13 42.5h45q-5 -63 -22.5 -110t-42 -78t-53 -46.5t-56.5 -15.5q-35 0 -67 15.5t-61.5 33.5 t-56 33.5t-50.5 15.5z"/>
<glyph unicode="" glyph-name="itilde" horiz-adv-x="571" d="M444 84q0 -13 -4.5 -30.5t-21 -33t-47.5 -26t-84 -10.5t-83 12.5t-45 29.5t-18.5 35t-3.5 29v772q0 29 -13.5 50.5t-45.5 21.5q-17 0 -29 -6t-26 -17l-21 25q23 19 51.5 37.5t61.5 32.5t71 23t80 9q65 0 101 -17.5t53 -43t20.5 -54.5t3.5 -51v-788zM139 1286 q-22 0 -40 -9.5t-31.5 -25t-22.5 -36t-13 -41.5h-45q5 63 22.5 109.5t42 77.5t53 46.5t56.5 15.5q35 0 67 -15.5t61.5 -33.5t56 -33.5t51.5 -15.5q21 0 39 9.5t31.5 25t22.5 36t13 42.5h45q-5 -63 -22.5 -110t-42 -78t-53 -46.5t-56.5 -15.5q-35 0 -67 15.5t-61.5 33.5 t-56 33.5t-50.5 15.5z"/>
<glyph unicode="" glyph-name="Imacron" horiz-adv-x="987" d="M836 131q0 -77 -40.5 -112t-123.5 -35q-84 0 -124 35t-40 112v1204q0 22 -5 35t-14 20.5t-21.5 10t-27.5 2.5q-22 0 -54.5 -7t-68.5 -21t-72.5 -34.5t-65 -46.5t-46.5 -58t-18 -69q0 -32 8.5 -51t19.5 -28.5t22.5 -12t16.5 -2.5q25 0 41 8.5t29 18t24.5 18t26.5 8.5 q12 0 25.5 -5.5t25 -17.5t19.5 -31.5t8 -47.5q0 -40 -15.5 -69t-40 -48.5t-56 -29t-62.5 -9.5q-48 0 -86.5 16.5t-65.5 45.5t-41 68t-14 83q0 69 25 126.5t68.5 103.5t102 80.5t126.5 57.5t142 34.5t148 11.5q82 0 127.5 -15.5t67 -37.5t25.5 -46t4 -40v-1225zM362 1822h533 v-141h-533v141z"/>
<glyph unicode="" glyph-name="imacron" horiz-adv-x="571" d="M444 84q0 -13 -4.5 -30.5t-21 -33t-47.5 -26t-84 -10.5t-83 12.5t-45 29.5t-18.5 35t-3.5 29v772q0 29 -13.5 50.5t-45.5 21.5q-17 0 -29 -6t-26 -17l-21 25q23 19 51.5 37.5t61.5 32.5t71 23t80 9q65 0 101 -17.5t53 -43t20.5 -54.5t3.5 -51v-788zM1 1382h533v-141h-533 v141z"/>
<glyph unicode="" glyph-name="Ibreve" horiz-adv-x="987" d="M836 131q0 -77 -40.5 -112t-123.5 -35q-84 0 -124 35t-40 112v1204q0 22 -5 35t-14 20.5t-21.5 10t-27.5 2.5q-22 0 -54.5 -7t-68.5 -21t-72.5 -34.5t-65 -46.5t-46.5 -58t-18 -69q0 -32 8.5 -51t19.5 -28.5t22.5 -12t16.5 -2.5q25 0 41 8.5t29 18t24.5 18t26.5 8.5 q12 0 25.5 -5.5t25 -17.5t19.5 -31.5t8 -47.5q0 -40 -15.5 -69t-40 -48.5t-56 -29t-62.5 -9.5q-48 0 -86.5 16.5t-65.5 45.5t-41 68t-14 83q0 69 25 126.5t68.5 103.5t102 80.5t126.5 57.5t142 34.5t148 11.5q82 0 127.5 -15.5t67 -37.5t25.5 -46t4 -40v-1225zM629 1601 q-105 0 -175.5 67t-89.5 210h52q5 -21 17.5 -45t36.5 -45t62.5 -34.5t96.5 -13.5q57 0 95.5 13.5t62.5 34.5t36.5 45t18.5 45h51q-9 -72 -32 -124t-57 -86t-78.5 -50.5t-96.5 -16.5z"/>
<glyph unicode="" glyph-name="ibreve" horiz-adv-x="571" d="M444 84q0 -13 -4.5 -30.5t-21 -33t-47.5 -26t-84 -10.5t-83 12.5t-45 29.5t-18.5 35t-3.5 29v772q0 29 -13.5 50.5t-45.5 21.5q-17 0 -29 -6t-26 -17l-21 25q23 19 51.5 37.5t61.5 32.5t71 23t80 9q65 0 101 -17.5t53 -43t20.5 -54.5t3.5 -51v-788zM268 1161 q-105 0 -175.5 67t-89.5 210h52q5 -21 17.5 -45t36.5 -45t62.5 -34.5t96.5 -13.5q57 0 95.5 13.5t62.5 34.5t36.5 45t18.5 45h51q-9 -72 -32 -124t-57 -86t-78.5 -50.5t-96.5 -16.5z"/>
<glyph unicode="" glyph-name="Iogonek" horiz-adv-x="987" d="M836 131q0 -62 -26 -96t-79 -45q-32 -20 -57 -46t-43 -54q-17 -28 -27 -58t-10 -57q0 -59 36 -90t101 -31q53 0 91 10t59 21l16 -37q-17 -10 -41 -22t-56 -24q-32 -10 -68 -17q-37 -7 -79 -7q-97 0 -155 40t-58 120q0 40 14 76t37 67q25 31 57 57t70 50q-58 10 -84 44 t-26 99v1204q0 22 -5 35q-5 12 -14 20t-21 10t-28 3q-22 0 -54 -7t-69 -21q-37 -15 -73 -35t-64 -46t-47 -58q-18 -32 -18 -69q1 -32 9 -51q8 -18 19 -28t23 -12t16 -3q25 1 41 9t29 18q12 10 24 18t27 8q11 0 25 -6t26 -17t19 -31q8 -20 8 -48q1 -40 -15 -69t-40 -49 t-56 -28q-32 -10 -63 -10q-49 0 -87 16t-65 46q-27 29 -41 68t-14 83q0 69 25 127t69 103q44 47 102 81t126 57t142 35t148 11q82 1 128 -15t66 -38q22 -22 26 -46t4 -40v-1225z"/>
<glyph unicode="" glyph-name="iogonek" horiz-adv-x="571" d="M106 1266q0 28 12 54t36 44q22 19 52 30t64 11t64 -11t51 -30q23 -18 35 -44t12 -54q0 -29 -12 -54q-12 -26 -35 -44q-21 -18 -51 -29t-64 -11t-64 11t-52 29t-36 44q-12 25 -12 54zM444 84q0 -10 -3 -24t-12 -28t-27 -24q-18 -12 -48 -18q-62 -42 -98 -98t-37 -111 q0 -59 36 -90t101 -31q52 0 90 10t60 21l16 -37q-16 -10 -40 -22t-56 -24q-32 -10 -69 -17t-78 -7q-97 0 -155 41t-58 119q0 42 12 76t35 64t53 55q30 26 67 49q-34 6 -53 20q-18 14 -28 28q-10 15 -12 30t-3 24v772q1 28 -13 50t-46 22q-17 0 -29 -6t-26 -17l-21 25 q24 20 52 38t61 32t71 23t80 9q65 0 101 -18t53 -42q16 -26 20 -55t4 -51v-788z"/>
<glyph unicode="" glyph-name="Idotaccent" horiz-adv-x="987" d="M836 131q0 -77 -40.5 -112t-123.5 -35q-84 0 -124 35t-40 112v1204q0 22 -5 35t-14 20.5t-21.5 10t-27.5 2.5q-22 0 -54.5 -7t-68.5 -21t-72.5 -34.5t-65 -46.5t-46.5 -58t-18 -69q0 -32 8.5 -51t19.5 -28.5t22.5 -12t16.5 -2.5q25 0 41 8.5t29 18t24.5 18t26.5 8.5 q12 0 25.5 -5.5t25 -17.5t19.5 -31.5t8 -47.5q0 -40 -15.5 -69t-40 -48.5t-56 -29t-62.5 -9.5q-48 0 -86.5 16.5t-65.5 45.5t-41 68t-14 83q0 69 25 126.5t68.5 103.5t102 80.5t126.5 57.5t142 34.5t148 11.5q82 0 127.5 -15.5t67 -37.5t25.5 -46t4 -40v-1225zM510 1749 q0 24 9.5 46t26 38.5t38 26.5t45.5 10q25 0 47 -10t38 -26.5t25.5 -38.5t9.5 -46q0 -25 -9.5 -46.5t-25.5 -37.5t-38 -25.5t-47 -9.5q-24 0 -45.5 9.5t-38 25.5t-26 37.5t-9.5 46.5z"/>
<glyph unicode="" glyph-name="dotlessi" horiz-adv-x="571" d="M444 84q0 -13 -4.5 -30.5t-21 -33t-47.5 -26t-84 -10.5t-83 12.5t-45 29.5t-18.5 35t-3.5 29v772q0 29 -13.5 50.5t-45.5 21.5q-17 0 -29 -6t-26 -17l-21 25q23 19 51.5 37.5t61.5 32.5t71 23t80 9q65 0 101 -17.5t53 -43t20.5 -54.5t3.5 -51v-788z"/>
<glyph unicode="" glyph-name="IJ" horiz-adv-x="1708" d="M1229 1311q-1 21 -7 35t-16 21t-23 11t-26 4q-29 0 -57 -12t-49 -22l-19 36q23 13 61 32q37 18 83 36t96 30t98 13q68 1 106 -17t55 -44t21 -54q4 -29 4 -51v-1149q0 -136 -50 -237t-134 -169q-86 -68 -202 -100q-116 -34 -250 -34q-51 0 -98 8q-48 8 -84 24t-58 36 t-21 44q-1 18 5 36t16 34q10 15 24 25t33 10q11 0 19 -11q8 -12 18 -28q8 -16 20 -35t30 -35t45 -28q26 -11 65 -11q76 0 132 28t92 79q36 52 54 122t17 154v1219zM836 131q0 -77 -40 -112t-124 -35t-124 35t-40 112v1204q0 22 -5 35q-5 12 -14 20t-21 10t-28 3 q-22 0 -54 -7t-69 -21q-37 -15 -73 -35t-64 -46t-47 -58q-18 -32 -18 -69q1 -32 9 -51q8 -18 19 -28t23 -12t16 -3q25 1 41 9t29 18q12 10 24 18t27 8q11 0 25 -6t26 -17t19 -31q8 -20 8 -48q1 -40 -15 -69t-40 -49t-56 -28q-32 -10 -63 -10q-49 0 -87 16t-65 46 q-27 29 -41 68t-14 83q0 69 25 127t69 103q44 47 102 81t126 57t142 35t148 11q82 1 128 -15t66 -38q22 -22 26 -46t4 -40v-1225z"/>
<glyph unicode="" glyph-name="ij" horiz-adv-x="1143" d="M106 1266q0 28 12.5 53.5t35 44.5t52 30t64.5 11q34 0 63.5 -11t51.5 -30t34.5 -44.5t12.5 -53.5q0 -29 -12.5 -54t-34.5 -43.5t-51.5 -29.5t-63.5 -11q-35 0 -64.5 11t-52 29.5t-35 43.5t-12.5 54zM444 90q0 -13 -4.5 -31.5t-21 -35t-47.5 -28t-84 -11.5t-83 12.5 t-45 29.5t-18.5 35t-3.5 29v772q0 29 -13.5 50.5t-45.5 21.5q-17 0 -29 -6t-26 -17l-21 25q23 19 51.5 37.5t61.5 32.5t71 23t80 9q65 0 101 -17.5t53 -43t20.5 -54.5t3.5 -51v-782zM708 862q0 29 -13.5 50.5t-45.5 21.5q-17 0 -29 -6t-26 -17l-21 25q23 19 51.5 37.5 t61.5 32.5t71 23t80 9q65 0 101 -17.5t53 -43t20.5 -54.5t3.5 -51v-708q0 -136 -35.5 -251t-107.5 -198.5t-180 -130.5t-252 -47q-51 0 -98 8.5t-83 23.5t-57.5 35.5t-21.5 45.5q0 18 5.5 36.5t15.5 33.5t24.5 24.5t32.5 9.5q11 0 19.5 -11t17.5 -27t20.5 -35.5t29.5 -35.5 t44.5 -27t64.5 -11q51 0 90 20.5t67 56.5t47 85t30 105t15.5 117t4.5 122v749zM677 1266q0 28 12.5 53.5t35 44.5t52 30t64.5 11q34 0 63.5 -11t51.5 -30t34.5 -44.5t12.5 -53.5q0 -29 -12.5 -54t-34.5 -43.5t-51.5 -29.5t-63.5 -11q-35 0 -64.5 11t-52 29.5t-35 43.5 t-12.5 54z"/>
<glyph unicode="" glyph-name="Jcircumflex" horiz-adv-x="987" d="M836 180q0 -136 -49.5 -237t-135.5 -168.5t-202.5 -101t-249.5 -33.5q-51 0 -98 8.5t-83 23.5t-57.5 35.5t-21.5 44.5q0 18 5 36.5t15 33.5t24.5 25t32.5 10q11 0 19.5 -11t17.5 -27.5t20.5 -35.5t30 -35.5t44.5 -27.5t65 -11q77 0 132.5 28t91.5 79t53.5 121.5 t17.5 154.5v1243q0 22 -5 35t-14 20.5t-21.5 10t-27.5 2.5q-22 0 -54.5 -7t-68.5 -21t-72.5 -34.5t-65 -46.5t-46.5 -58t-18 -69q0 -32 8.5 -51t19.5 -28.5t22.5 -12t16.5 -2.5q25 0 41 8.5t29 18t24.5 18t26.5 8.5q12 0 25.5 -5.5t25 -17.5t19.5 -31.5t8 -47.5 q0 -40 -15.5 -69t-40 -48.5t-56 -29t-62.5 -9.5q-48 0 -86.5 16.5t-65.5 45.5t-41 68t-14 83q0 69 25 126.5t68.5 103.5t102 80.5t126.5 57.5t142 34.5t148 11.5q82 0 127.5 -15.5t67 -37.5t25.5 -46t4 -40v-1176zM686 1904l225 -293l-30 -30l-252 172l-252 -172l-31 30 l225 293h115z"/>
<glyph unicode="" glyph-name="jcircumflex" horiz-adv-x="571" d="M137 862q0 29 -13.5 50.5t-45.5 21.5q-17 0 -29 -6t-26 -17l-21 25q23 19 51.5 37.5t61.5 32.5t71 23t80 9q65 0 101 -17.5t53 -43t20.5 -54.5t3.5 -51v-708q0 -136 -35.5 -251t-107.5 -198.5t-180 -130.5t-252 -47q-51 0 -98 8.5t-83 23.5t-57.5 35.5t-21.5 45.5 q0 18 5.5 36.5t15.5 33.5t24.5 24.5t32.5 9.5q11 0 19.5 -11t17.5 -27t20.5 -35.5t29.5 -35.5t44.5 -27t64.5 -11q51 0 90 20.5t67 56.5t47 85t30 105t15.5 117t4.5 122v749zM310 1464l225 -293l-30 -30l-252 172l-252 -172l-31 30l225 293h115z"/>
<glyph unicode="" glyph-name="Kcommaaccent" horiz-adv-x="1675" d="M836 899q89 128 162.5 227t135.5 172.5t115.5 123.5t104 80.5t100.5 43.5t105 13q131 0 131 -84q0 -11 -2 -26t-7.5 -29t-15.5 -24t-25 -10q-11 0 -25.5 11t-33.5 24.5t-44 25t-56 11.5q-34 0 -77.5 -28t-94 -76t-105 -111.5t-110.5 -134.5q150 -342 264.5 -593 t209 -415.5t174.5 -244.5t161 -80q14 0 28 4t25 9q13 5 26 13l21 -39q-17 -10 -46.5 -24t-70 -26.5t-89.5 -21.5t-105 -9q-77 0 -143 24t-128.5 77.5t-123 140t-126 211.5t-138.5 291t-159 380l-38 -57v-617q0 -77 -40.5 -112t-123.5 -35q-84 0 -124 35t-40 112v1204 q0 22 -5 35t-14 20.5t-21.5 10t-27.5 2.5q-22 0 -54.5 -7t-68.5 -21t-72.5 -34.5t-65 -46.5t-46.5 -58t-18 -69q0 -32 8.5 -51t19.5 -28.5t22.5 -12t16.5 -2.5q25 0 41 8.5t29 18t24.5 18t26.5 8.5q12 0 25.5 -5.5t25 -17.5t19.5 -31.5t8 -47.5q0 -40 -15.5 -69t-40 -48.5 t-56 -29t-62.5 -9.5q-48 0 -86.5 16.5t-65.5 45.5t-41 68t-14 83q0 69 25 126.5t68.5 103.5t102 80.5t126.5 57.5t142 34.5t148 11.5q82 0 127.5 -15.5t67 -37.5t25.5 -46t4 -40v-457zM879 -446q28 12 45.5 23.5t27.5 23t13.5 22.5t3.5 23q0 19 -13 32.5t-29 27t-29 31 t-13 44.5q0 16 7 33t21.5 31t36.5 23t52 9q31 0 54 -11t38 -29t22.5 -40.5t7.5 -44.5q0 -40 -17 -74.5t-47 -63t-72 -51.5t-93 -40z"/>
<glyph unicode="" glyph-name="kcommaaccent" horiz-adv-x="1087" d="M434 766q35 47 75 95.5t86 87.5t100 64t118 25q57 0 95 -22.5t61.5 -54t33 -65.5t9.5 -58q0 -44 -11.5 -91.5t-39 -94t-73.5 -90t-116 -79.5q94 -199 183 -342.5t171.5 -236t158.5 -136.5t145 -44q12 0 24 3t22 7q11 4 23 10l19 -35q-27 -15 -55 -28.5t-64 -23.5t-83 -16 t-112 -6q-59 0 -116.5 14t-115.5 50t-117.5 96t-122 152t-128.5 219t-137 297q96 71 151 131.5t83 109.5t35 87t7 65q0 4 -1 13.5t-6.5 18.5t-16 16t-29.5 7q-37 0 -75 -31.5t-72.5 -78t-62.5 -100t-46 -97.5v-516q0 -13 -4.5 -31t-21 -34t-48 -27.5t-84.5 -11.5t-83 12.5 t-44.5 29.5t-18 35t-3.5 29v1290q0 29 -13.5 50.5t-45.5 21.5q-17 0 -29.5 -5.5t-26.5 -16.5l-20 24q23 19 51 37.5t61.5 32.5t71.5 23t80 9q65 0 101 -17.5t53 -43t20.5 -54t3.5 -50.5v-625zM420 -446q28 12 45.5 23.5t27.5 23t13.5 22.5t3.5 23q0 19 -13 32.5t-29 27 t-29 31t-13 44.5q0 16 7 33t21.5 31t36.5 23t52 9q31 0 54 -11t38 -29t22.5 -40.5t7.5 -44.5q0 -40 -17 -74.5t-47 -63t-72 -51.5t-93 -40z"/>
<glyph unicode="" glyph-name="kgreenlandic" horiz-adv-x="1079" d="M434 766q35 48 75 96t86 87t100 64t118 25q57 0 95 -22t62 -54t32 -66q10 -34 10 -58q0 -44 -10 -90t-36 -92t-69 -88q-44 -44 -111 -81l195 -307q15 -26 31 -44t30 -19q9 0 17 4t15 10q6 7 12 13l10 10l24 -21q-18 -25 -42 -51t-55 -48t-72 -36t-95 -14q-57 0 -93 20 t-56 55l-203 336l-41 68q95 71 151 131t84 110q28 49 37 87q8 38 8 65q0 4 -1 14q0 10 -6 18q-6 9 -16 16t-30 7q-37 1 -75 -31q-39 -32 -73 -78t-62 -100t-46 -98v-520q0 -12 -4 -30t-22 -34q-16 -16 -48 -26t-84 -10q-53 0 -83 12q-31 12 -45 30q-14 17 -18 35t-3 29v772 q1 28 -13 50t-46 22q-18 0 -30 -6t-26 -17l-20 25q23 20 51 38q27 18 61 32t72 23t80 9q65 0 101 -18t53 -42q16 -26 20 -55t4 -51v-106z"/>
<glyph unicode="" glyph-name="Lacute" horiz-adv-x="1341" d="M836 227q0 -43 10.5 -69.5t30.5 -41.5t50.5 -20.5t71.5 -5.5q66 0 119 13.5t93 30t67.5 30.5t42.5 14q19 0 30 -12t11 -35q0 -40 -8 -57.5t-33 -26.5q-91 -32 -205 -47.5t-258 -15.5q-107 0 -175 9.5t-107 33.5t-53.5 65.5t-14.5 106.5v1136q0 22 -5 35t-14 20.5 t-21.5 10t-27.5 2.5q-22 0 -54.5 -7t-68.5 -21t-72.5 -34.5t-65 -46.5t-46.5 -58t-18 -69q0 -32 8.5 -51t19.5 -28.5t22.5 -12t16.5 -2.5q25 0 41 8.5t29 18t24.5 18t26.5 8.5q12 0 25.5 -5.5t25 -17.5t19.5 -31.5t8 -47.5q0 -40 -15.5 -69t-40 -48.5t-56 -29t-62.5 -9.5 q-48 0 -86.5 16.5t-65.5 45.5t-41 68t-14 83q0 69 25 126.5t68.5 103.5t102 80.5t126.5 57.5t142 34.5t148 11.5q82 0 127.5 -15.5t67 -37.5t25.5 -46t4 -40v-1129zM465 1607l272 263q17 15 36 24.5t38 9.5q18 0 34 -8.5t28 -22.5t19 -31.5t7 -35.5q0 -26 -17.5 -45.5 t-41.5 -30.5l-355 -151z"/>
<glyph unicode="" glyph-name="lacute" horiz-adv-x="561" d="M434 88q0 -13 -4.5 -31t-21 -34t-48 -27.5t-84.5 -11.5t-83 12.5t-44.5 29.5t-18 35t-3.5 29v1290q0 29 -13.5 50.5t-45.5 21.5q-17 0 -29.5 -5.5t-26.5 -16.5l-20 24q23 19 51 37.5t61.5 32.5t71.5 23t80 9q65 0 101 -17.5t53 -43t20.5 -54t3.5 -50.5v-1303zM103 1669 l272 263q17 15 36 24.5t38 9.5q18 0 34 -8.5t28 -22.5t19 -31.5t7 -35.5q0 -26 -17.5 -45.5t-41.5 -30.5l-355 -151z"/>
<glyph unicode="" glyph-name="Lcommaaccent" horiz-adv-x="1341" d="M836 227q0 -43 10.5 -69.5t30.5 -41.5t50.5 -20.5t71.5 -5.5q66 0 119 13.5t93 30t67.5 30.5t42.5 14q19 0 30 -12t11 -35q0 -40 -8 -57.5t-33 -26.5q-91 -32 -205 -47.5t-258 -15.5q-107 0 -175 9.5t-107 33.5t-53.5 65.5t-14.5 106.5v1136q0 22 -5 35t-14 20.5 t-21.5 10t-27.5 2.5q-22 0 -54.5 -7t-68.5 -21t-72.5 -34.5t-65 -46.5t-46.5 -58t-18 -69q0 -32 8.5 -51t19.5 -28.5t22.5 -12t16.5 -2.5q25 0 41 8.5t29 18t24.5 18t26.5 8.5q12 0 25.5 -5.5t25 -17.5t19.5 -31.5t8 -47.5q0 -40 -15.5 -69t-40 -48.5t-56 -29t-62.5 -9.5 q-48 0 -86.5 16.5t-65.5 45.5t-41 68t-14 83q0 69 25 126.5t68.5 103.5t102 80.5t126.5 57.5t142 34.5t148 11.5q82 0 127.5 -15.5t67 -37.5t25.5 -46t4 -40v-1129zM787 -446q28 12 45.5 23.5t27.5 23t13.5 22.5t3.5 23q0 19 -13 32.5t-29 27t-29 31t-13 44.5q0 16 7 33 t21.5 31t36.5 23t52 9q31 0 54 -11t38 -29t22.5 -40.5t7.5 -44.5q0 -40 -17 -74.5t-47 -63t-72 -51.5t-93 -40z"/>
<glyph unicode="" glyph-name="lcommaaccent" horiz-adv-x="561" d="M434 88q0 -13 -4.5 -31t-21 -34t-48 -27.5t-84.5 -11.5t-83 12.5t-44.5 29.5t-18 35t-3.5 29v1290q0 29 -13.5 50.5t-45.5 21.5q-17 0 -29.5 -5.5t-26.5 -16.5l-20 24q23 19 51 37.5t61.5 32.5t71.5 23t80 9q65 0 101 -17.5t53 -43t20.5 -54t3.5 -50.5v-1303zM159 -446 q28 12 45.5 23.5t27.5 23t13.5 22.5t3.5 23q0 19 -13 32.5t-29 27t-29 31t-13 44.5q0 16 7 33t21.5 31t36.5 23t52 9q31 0 54 -11t38 -29t22.5 -40.5t7.5 -44.5q0 -40 -17 -74.5t-47 -63t-72 -51.5t-93 -40z"/>
<glyph unicode="" glyph-name="Lcaron" horiz-adv-x="1341" d="M836 227q0 -43 10.5 -69.5t30.5 -41.5t50.5 -20.5t71.5 -5.5q66 0 119 13.5t93 30t67.5 30.5t42.5 14q19 0 30 -12t11 -35q0 -40 -8 -57.5t-33 -26.5q-91 -32 -205 -47.5t-258 -15.5q-107 0 -175 9.5t-107 33.5t-53.5 65.5t-14.5 106.5v1136q0 22 -5 35t-14 20.5 t-21.5 10t-27.5 2.5q-22 0 -54.5 -7t-68.5 -21t-72.5 -34.5t-65 -46.5t-46.5 -58t-18 -69q0 -32 8.5 -51t19.5 -28.5t22.5 -12t16.5 -2.5q25 0 41 8.5t29 18t24.5 18t26.5 8.5q12 0 25.5 -5.5t25 -17.5t19.5 -31.5t8 -47.5q0 -40 -15.5 -69t-40 -48.5t-56 -29t-62.5 -9.5 q-48 0 -86.5 16.5t-65.5 45.5t-41 68t-14 83q0 69 25 126.5t68.5 103.5t102 80.5t126.5 57.5t142 34.5t148 11.5q82 0 127.5 -15.5t67 -37.5t25.5 -46t4 -40v-1129zM983 1094q52 35 70 72t18 71q0 38 -22 68.5t-48 52.5q-12 15 -12 28q0 18 12 37.5t31.5 35t45.5 26t55 10.5 q27 0 45 -13.5t29.5 -33t16.5 -41.5t5 -39q0 -50 -16.5 -95.5t-45.5 -86t-68.5 -74t-84.5 -59.5z"/>
<glyph unicode="" glyph-name="lcaron" horiz-adv-x="786" d="M434 88q0 -13 -4.5 -31t-21 -34t-48 -27.5t-84.5 -11.5t-83 12.5t-44.5 29.5t-18 35t-3.5 29v1290q0 29 -13.5 50.5t-45.5 21.5q-17 0 -29.5 -5.5t-26.5 -16.5l-20 24q23 19 51 37.5t61.5 32.5t71.5 23t80 9q65 0 101 -17.5t53 -43t20.5 -54t3.5 -50.5v-1303zM520 1094 q52 35 70 72t18 71q0 38 -22 68.5t-48 52.5q-12 15 -12 28q0 18 12 37.5t31.5 35t45.5 26t55 10.5q27 0 45 -13.5t29.5 -33t16.5 -41.5t5 -39q0 -50 -16.5 -95.5t-45.5 -86t-68.5 -74t-84.5 -59.5z"/>
<glyph unicode="" glyph-name="Ldot" horiz-adv-x="1341" d="M836 227q0 -43 10.5 -69.5t30.5 -41.5t50.5 -20.5t71.5 -5.5q66 0 119 13.5t93 30t67.5 30.5t42.5 14q19 0 30 -12t11 -35q0 -40 -8 -57.5t-33 -26.5q-91 -32 -205 -47.5t-258 -15.5q-107 0 -175 9.5t-107 33.5t-53.5 65.5t-14.5 106.5v1136q0 22 -5 35t-14 20.5 t-21.5 10t-27.5 2.5q-22 0 -54.5 -7t-68.5 -21t-72.5 -34.5t-65 -46.5t-46.5 -58t-18 -69q0 -32 8.5 -51t19.5 -28.5t22.5 -12t16.5 -2.5q25 0 41 8.5t29 18t24.5 18t26.5 8.5q12 0 25.5 -5.5t25 -17.5t19.5 -31.5t8 -47.5q0 -40 -15.5 -69t-40 -48.5t-56 -29t-62.5 -9.5 q-48 0 -86.5 16.5t-65.5 45.5t-41 68t-14 83q0 69 25 126.5t68.5 103.5t102 80.5t126.5 57.5t142 34.5t148 11.5q82 0 127.5 -15.5t67 -37.5t25.5 -46t4 -40v-1129zM1016 606q0 28 10.5 53t28.5 44t42 29.5t52 10.5t53 -10.5t44 -29.5t29.5 -44t10.5 -53t-10.5 -52 t-29.5 -42t-44 -28.5t-53 -10.5t-52 10.5t-42 28.5t-28.5 42t-10.5 52z"/>
<glyph unicode="" glyph-name="ldotaccent" horiz-adv-x="831" d="M434 88q0 -13 -4.5 -31t-21 -34t-48 -27.5t-84.5 -11.5t-83 12.5t-44.5 29.5t-18 35t-3.5 29v1290q0 29 -13.5 50.5t-45.5 21.5q-17 0 -29.5 -5.5t-26.5 -16.5l-20 24q23 19 51 37.5t61.5 32.5t71.5 23t80 9q65 0 101 -17.5t53 -43t20.5 -54t3.5 -50.5v-1303zM561 606 q0 28 10.5 53t28.5 44t42 29.5t52 10.5t53 -10.5t44 -29.5t29.5 -44t10.5 -53t-10.5 -52t-29.5 -42t-44 -28.5t-53 -10.5t-52 10.5t-42 28.5t-28.5 42t-10.5 52z"/>
<glyph unicode="" glyph-name="Lslash" horiz-adv-x="1341" d="M836 799l182 106l41 -76l-223 -131v-471q0 -43 10 -69t31 -42q21 -14 51 -20t71 -6q66 0 119 14t93 30q39 16 67 30t43 14q19 0 30 -12t11 -35q0 -39 -8 -57t-33 -27q-91 -31 -205 -47t-258 -16q-107 0 -175 10t-107 33q-40 23 -54 65t-14 107v309l-150 -86l-41 76 l191 110v727q0 22 -5 35q-5 12 -14 20t-21 10t-28 3q-22 0 -54 -7t-69 -21q-37 -15 -73 -35t-64 -46t-47 -58q-18 -32 -18 -69q1 -32 9 -51q8 -18 19 -28t23 -12t16 -3q25 1 41 9t29 18q12 10 24 18t27 8q11 0 25 -6t26 -17t19 -31q8 -20 8 -48q1 -40 -15 -69t-40 -49 t-56 -28q-32 -10 -63 -10q-49 0 -87 16t-65 46q-27 29 -41 68t-14 83q0 69 25 127t69 103q44 47 102 81t126 57t142 35t148 11q82 1 128 -15t66 -38q22 -22 26 -46t4 -40v-557z"/>
<glyph unicode="" glyph-name="lslash" horiz-adv-x="561" d="M434 827l101 60l43 -74l-144 -84v-645q0 -12 -4 -30t-22 -34q-16 -16 -48 -26t-84 -10q-53 0 -83 12q-31 12 -45 30q-14 17 -18 35t-3 29v461l-109 -62l-43 74l152 88v729q1 28 -13 50t-46 22q-18 0 -30 -6t-26 -16l-20 24q23 20 51 38q27 18 61 32t72 23t80 9 q65 0 101 -18t53 -42q16 -26 20 -54t4 -51v-564z"/>
<glyph unicode="" glyph-name="Nacute" horiz-adv-x="1669" d="M496 961q0 91 -1.5 167t-3 132.5t-3 89.5t-1.5 39q-20 14 -45.5 15t-50.5 1q-35 0 -84 -16.5t-95 -47t-78 -75t-32 -99.5q0 -32 8.5 -51t20 -28.5t23 -12t16.5 -2.5q25 0 41 8.5t29 18t24.5 18t26.5 8.5q12 0 25.5 -5.5t25 -17.5t19.5 -31.5t8 -47.5q0 -40 -15.5 -69 t-40 -48.5t-56 -29t-62.5 -9.5q-48 0 -86.5 16.5t-65.5 45.5t-41 68t-14 83q0 104 43.5 181.5t116 129.5t167 77.5t195.5 25.5q91 0 150 -12t96 -32t58 -47.5t36 -57.5q61 -124 118.5 -244t111 -234t104 -219.5t98.5 -199.5v143v309q0 83 4.5 162.5t19 150t43.5 129.5 t77.5 102t120.5 67t173 24q51 0 94 -7.5t74.5 -21.5t49.5 -34.5t18 -45.5q0 -16 -4.5 -33.5t-13.5 -31.5t-22.5 -23.5t-31.5 -9.5q-15 0 -27.5 21t-31 46.5t-49 46.5t-82.5 21q-81 0 -134.5 -28.5t-86.5 -80.5t-48.5 -126.5t-19.5 -165.5q-2 -63 -3.5 -122.5t-2 -120.5 t-0.5 -126.5v-140.5q0 -106 1 -190t3 -138q45 -77 89 -138.5t86.5 -104t85.5 -65.5t87 -23q14 0 27 4t23 9q11 5 22 13l32 -39q-14 -10 -39.5 -24t-62 -27t-83.5 -22t-103 -9q-81 0 -155.5 39.5t-143.5 108.5t-132 161.5t-121.5 198.5t-112.5 221t-104.5 227.5t-97 218 t-90.5 193.5q0 -58 1 -120t1 -125v-310q0 -83 -4 -162t-19 -149.5t-43.5 -130t-77.5 -102.5t-121 -67t-173 -24q-51 0 -94 7.5t-74.5 21.5t-49 34t-17.5 46q0 16 4.5 33.5t13.5 31.5t22 23.5t31 9.5q10 0 18.5 -10t18 -25t22 -32.5t30 -32.5t42.5 -25t60 -10 q81 0 134.5 28.5t86.5 81t48 126.5t19 166q3 63 4 122t2 120t1 127v141zM860 1607l272 263q17 15 36 24.5t38 9.5q18 0 34 -8.5t28 -22.5t19 -31.5t7 -35.5q0 -26 -17.5 -45.5t-41.5 -30.5l-355 -151z"/>
<glyph unicode="" glyph-name="nacute" horiz-adv-x="1102" d="M713 498q0 126 -11.5 201.5t-30.5 115t-42 52t-47 12.5q-29 0 -51.5 -15.5t-39 -35.5t-28 -40t-19.5 -30v-668q0 -13 -4 -31.5t-19.5 -35t-46 -28t-83.5 -11.5t-83.5 12.5t-46.5 29.5t-20 35t-4 29v772q0 29 -13.5 50.5t-45.5 21.5q-17 0 -29 -6t-26 -17l-21 25 q23 19 51.5 37.5t61.5 32.5t71 23t80 9q65 0 101 -21.5t53 -51.5t20.5 -62.5t3.5 -54.5q37 53 84 95q19 18 42.5 35t50 30.5t56 21.5t60.5 8q68 0 120.5 -26t88.5 -87t55 -161.5t19 -249.5q0 -145 -26 -252t-68 -182t-95 -122.5t-107 -74.5t-103.5 -37.5t-85.5 -11.5l-11 41 q30 7 55.5 22t46.5 44t37 73.5t27.5 111.5t17 158.5t5.5 213.5zM387 1167l272 263q17 15 36 24.5t38 9.5q18 0 34 -8.5t28 -22.5t19 -31.5t7 -35.5q0 -26 -17.5 -45.5t-41.5 -30.5l-355 -151z"/>
<glyph unicode="" glyph-name="Ncommaaccent" horiz-adv-x="1669" d="M496 961q0 91 -1.5 167t-3 132.5t-3 89.5t-1.5 39q-20 14 -45.5 15t-50.5 1q-35 0 -84 -16.5t-95 -47t-78 -75t-32 -99.5q0 -32 8.5 -51t20 -28.5t23 -12t16.5 -2.5q25 0 41 8.5t29 18t24.5 18t26.5 8.5q12 0 25.5 -5.5t25 -17.5t19.5 -31.5t8 -47.5q0 -40 -15.5 -69 t-40 -48.5t-56 -29t-62.5 -9.5q-48 0 -86.5 16.5t-65.5 45.5t-41 68t-14 83q0 104 43.5 181.5t116 129.5t167 77.5t195.5 25.5q91 0 150 -12t96 -32t58 -47.5t36 -57.5q61 -124 118.5 -244t111 -234t104 -219.5t98.5 -199.5v143v309q0 83 4.5 162.5t19 150t43.5 129.5 t77.5 102t120.5 67t173 24q51 0 94 -7.5t74.5 -21.5t49.5 -34.5t18 -45.5q0 -16 -4.5 -33.5t-13.5 -31.5t-22.5 -23.5t-31.5 -9.5q-15 0 -27.5 21t-31 46.5t-49 46.5t-82.5 21q-81 0 -134.5 -28.5t-86.5 -80.5t-48.5 -126.5t-19.5 -165.5q-2 -63 -3.5 -122.5t-2 -120.5 t-0.5 -126.5v-140.5q0 -106 1 -190t3 -138q45 -77 89 -138.5t86.5 -104t85.5 -65.5t87 -23q14 0 27 4t23 9q11 5 22 13l32 -39q-14 -10 -39.5 -24t-62 -27t-83.5 -22t-103 -9q-81 0 -155.5 39.5t-143.5 108.5t-132 161.5t-121.5 198.5t-112.5 221t-104.5 227.5t-97 218 t-90.5 193.5q0 -58 1 -120t1 -125v-310q0 -83 -4 -162t-19 -149.5t-43.5 -130t-77.5 -102.5t-121 -67t-173 -24q-51 0 -94 7.5t-74.5 21.5t-49 34t-17.5 46q0 16 4.5 33.5t13.5 31.5t22 23.5t31 9.5q10 0 18.5 -10t18 -25t22 -32.5t30 -32.5t42.5 -25t60 -10 q81 0 134.5 28.5t86.5 81t48 126.5t19 166q3 63 4 122t2 120t1 127v141zM752 -446q28 12 45.5 23.5t27.5 23t13.5 22.5t3.5 23q0 19 -13 32.5t-29 27t-29 31t-13 44.5q0 16 7 33t21.5 31t36.5 23t52 9q31 0 54 -11t38 -29t22.5 -40.5t7.5 -44.5q0 -40 -17 -74.5t-47 -63 t-72 -51.5t-93 -40z"/>
<glyph unicode="" glyph-name="ncommaaccent" horiz-adv-x="1102" d="M713 498q0 126 -11.5 201.5t-30.5 115t-42 52t-47 12.5q-29 0 -51.5 -15.5t-39 -35.5t-28 -40t-19.5 -30v-668q0 -13 -4 -31.5t-19.5 -35t-46 -28t-83.5 -11.5t-83.5 12.5t-46.5 29.5t-20 35t-4 29v772q0 29 -13.5 50.5t-45.5 21.5q-17 0 -29 -6t-26 -17l-21 25 q23 19 51.5 37.5t61.5 32.5t71 23t80 9q65 0 101 -21.5t53 -51.5t20.5 -62.5t3.5 -54.5q37 53 84 95q19 18 42.5 35t50 30.5t56 21.5t60.5 8q68 0 120.5 -26t88.5 -87t55 -161.5t19 -249.5q0 -145 -26 -252t-68 -182t-95 -122.5t-107 -74.5t-103.5 -37.5t-85.5 -11.5l-11 41 q30 7 55.5 22t46.5 44t37 73.5t27.5 111.5t17 158.5t5.5 213.5zM245 -486q28 12 45.5 23.5t27.5 23t13.5 22.5t3.5 23q0 19 -13 32.5t-29 27t-29 31t-13 44.5q0 16 7 33t21.5 31t36.5 23t52 9q31 0 54 -11t38 -29t22.5 -40.5t7.5 -44.5q0 -40 -17 -74.5t-47 -63t-72 -51.5 t-93 -40z"/>
<glyph unicode="" glyph-name="Ncaron" horiz-adv-x="1669" d="M496 961q0 91 -1.5 167t-3 132.5t-3 89.5t-1.5 39q-20 14 -45.5 15t-50.5 1q-35 0 -84 -16.5t-95 -47t-78 -75t-32 -99.5q0 -32 8.5 -51t20 -28.5t23 -12t16.5 -2.5q25 0 41 8.5t29 18t24.5 18t26.5 8.5q12 0 25.5 -5.5t25 -17.5t19.5 -31.5t8 -47.5q0 -40 -15.5 -69 t-40 -48.5t-56 -29t-62.5 -9.5q-48 0 -86.5 16.5t-65.5 45.5t-41 68t-14 83q0 104 43.5 181.5t116 129.5t167 77.5t195.5 25.5q91 0 150 -12t96 -32t58 -47.5t36 -57.5q61 -124 118.5 -244t111 -234t104 -219.5t98.5 -199.5v143v309q0 83 4.5 162.5t19 150t43.5 129.5 t77.5 102t120.5 67t173 24q51 0 94 -7.5t74.5 -21.5t49.5 -34.5t18 -45.5q0 -16 -4.5 -33.5t-13.5 -31.5t-22.5 -23.5t-31.5 -9.5q-15 0 -27.5 21t-31 46.5t-49 46.5t-82.5 21q-81 0 -134.5 -28.5t-86.5 -80.5t-48.5 -126.5t-19.5 -165.5q-2 -63 -3.5 -122.5t-2 -120.5 t-0.5 -126.5v-140.5q0 -106 1 -190t3 -138q45 -77 89 -138.5t86.5 -104t85.5 -65.5t87 -23q14 0 27 4t23 9q11 5 22 13l32 -39q-14 -10 -39.5 -24t-62 -27t-83.5 -22t-103 -9q-81 0 -155.5 39.5t-143.5 108.5t-132 161.5t-121.5 198.5t-112.5 221t-104.5 227.5t-97 218 t-90.5 193.5q0 -58 1 -120t1 -125v-310q0 -83 -4 -162t-19 -149.5t-43.5 -130t-77.5 -102.5t-121 -67t-173 -24q-51 0 -94 7.5t-74.5 21.5t-49 34t-17.5 46q0 16 4.5 33.5t13.5 31.5t22 23.5t31 9.5q10 0 18.5 -10t18 -25t22 -32.5t30 -32.5t42.5 -25t60 -10 q81 0 134.5 28.5t86.5 81t48 126.5t19 166q3 63 4 122t2 120t1 127v141zM960 1581l-225 293l31 30l252 -172l252 172l30 -30l-225 -293h-115z"/>
<glyph unicode="" glyph-name="ncaron" horiz-adv-x="1102" d="M713 498q0 126 -11.5 201.5t-30.5 115t-42 52t-47 12.5q-29 0 -51.5 -15.5t-39 -35.5t-28 -40t-19.5 -30v-668q0 -13 -4 -31.5t-19.5 -35t-46 -28t-83.5 -11.5t-83.5 12.5t-46.5 29.5t-20 35t-4 29v772q0 29 -13.5 50.5t-45.5 21.5q-17 0 -29 -6t-26 -17l-21 25 q23 19 51.5 37.5t61.5 32.5t71 23t80 9q65 0 101 -21.5t53 -51.5t20.5 -62.5t3.5 -54.5q37 53 84 95q19 18 42.5 35t50 30.5t56 21.5t60.5 8q68 0 120.5 -26t88.5 -87t55 -161.5t19 -249.5q0 -145 -26 -252t-68 -182t-95 -122.5t-107 -74.5t-103.5 -37.5t-85.5 -11.5l-11 41 q30 7 55.5 22t46.5 44t37 73.5t27.5 111.5t17 158.5t5.5 213.5zM487 1141l-225 293l31 30l252 -172l252 172l30 -30l-225 -293h-115z"/>
<glyph unicode="" glyph-name="napostrophe" horiz-adv-x="1184" d="M795 498q0 126 -11.5 201.5t-30.5 115t-42 52t-47 12.5q-29 0 -51.5 -15.5t-39 -35.5t-28 -40t-19.5 -30v-668q0 -13 -4 -31.5t-19.5 -35t-46 -28t-83.5 -11.5t-83.5 12.5t-46.5 29.5t-20 35t-4 29v772q0 29 -13.5 50.5t-45.5 21.5q-17 0 -29 -6t-26 -17l-21 25 q23 19 51.5 37.5t61.5 32.5t71 23t80 9q65 0 101 -21.5t53 -51.5t20.5 -62.5t3.5 -54.5q37 53 84 95q19 18 42.5 35t50 30.5t56 21.5t60.5 8q68 0 120.5 -26t88.5 -87t55 -161.5t19 -249.5q0 -145 -26 -252t-68 -182t-95 -122.5t-107 -74.5t-103.5 -37.5t-85.5 -11.5l-11 41 q30 7 55.5 22t46.5 44t37 73.5t27.5 111.5t17 158.5t5.5 213.5zM-40 1093q52 35 70 72t18 71q0 38 -22 68.5t-48 52.5q-12 15 -12 28q0 18 12 37.5t31.5 35t45.5 26t55 10.5q27 0 45 -13.5t29.5 -33t16.5 -41.5t5 -39q0 -50 -16.5 -95.5t-45.5 -86t-68.5 -74t-84.5 -59.5z "/>
<glyph unicode="" glyph-name="Eng" horiz-adv-x="1552" d="M496 961q0 91 -2 167t-3 131q-2 64 -4 115v15q-19 14 -45 15t-51 1q-35 -1 -84 -17t-95 -46t-78 -76q-32 -44 -32 -99q0 -32 8 -51q8 -18 20 -28t24 -12t16 -3q25 1 41 9t29 18q12 10 24 18t27 8q11 0 25 -6t26 -17t19 -31q8 -20 8 -48q1 -40 -15 -69t-40 -49t-56 -28 q-32 -10 -63 -10q-49 0 -87 16t-65 46q-27 29 -41 68t-14 83q0 103 44 181t116 130t166 78t196 25q91 0 150 -12t96 -32q37 -19 58 -47t36 -58q62 -126 120 -234t112 -203t105 -183t99 -173v92q0 133 -4 255t-7 219q-5 113 -11 212q0 19 -3 47t2 54t23 44t62 19q14 0 28 -3 t26 -10t20 -17t8 -25q0 -16 -2 -40t-6 -62q-3 -38 -7 -94q-3 -56 -7 -140q-4 -82 -6 -194q-1 -75 -1 -166v-95l2 -499q-1 -136 -25 -238t-76 -168q-52 -68 -134 -102t-195 -33q-51 1 -98 9t-83 23t-58 35t-21 45q0 19 5 37t15 34q11 16 25 24q14 10 33 10q11 0 19 -10 t18 -26q8 -16 20 -34t30 -34t44 -26t65 -11q75 1 131 27t92 74t56 116q18 68 20 149q-70 64 -136 149t-126 182q-60 98 -116 202t-107 208t-99 202t-92 182q0 -60 1 -124t1 -130v-310q0 -83 -4 -162q-4 -80 -19 -150t-43 -130t-78 -102q-49 -43 -121 -67t-173 -24 q-51 -1 -94 7q-42 8 -74 22t-50 34t-17 46q1 16 5 34t13 31t22 23t31 10q10 0 18 -10t18 -25l22 -33t30 -32q18 -15 43 -25t60 -10q81 1 134 29t85 80t46 127q14 74 19 166q3 63 5 122t4 120t2 127v141z"/>
<glyph unicode="" glyph-name="eng" horiz-adv-x="1126" d="M692 797q0 15 -4 29t-12 26t-22 20q-13 8 -31 7q-29 1 -58 -15t-53 -36t-42 -40t-26 -30v-668q0 -14 -4 -32t-20 -34t-46 -28t-83 -12t-83 12t-47 30q-16 17 -20 35t-4 29v772q1 28 -13 50t-46 22q-17 0 -29 -6t-26 -17l-21 25q24 20 52 38t61 32t71 23t80 9 q65 0 101 -22t53 -51q16 -31 20 -63t4 -54q50 53 105 95q24 18 51 35q27 16 56 30t60 22t62 8q61 0 103 -22t68 -56q26 -35 38 -79t12 -88v-629q-1 -136 -31 -251t-90 -199t-152 -130q-92 -47 -214 -47q-42 1 -82 9t-70 23t-48 35t-19 46q-1 18 5 36t16 34q10 14 24 24 t33 10q12 0 21 -11t17 -27q9 -16 17 -36t20 -35q12 -16 30 -27q17 -11 42 -11q36 1 64 21t46 56q20 36 32 85t20 105t10 117t2 122v684z"/>
<glyph unicode="" glyph-name="Omacron" horiz-adv-x="1473" d="M645 1178q0 -35 11 -57.5t27.5 -38t35.5 -25.5t35.5 -21t27.5 -25t11 -36q0 -37 -26 -56.5t-60 -19.5q-32 0 -59.5 20t-48 54.5t-32.5 81t-12 98.5q0 64 20 122.5t59 103t96.5 70.5t131.5 26q50 0 109 -16.5t117.5 -52.5t113 -93t97 -139t67.5 -190t25 -245 q0 -177 -52.5 -317t-142 -237.5t-207.5 -149t-250 -51.5q-131 0 -250 45t-209.5 137.5t-144 235t-53.5 337.5q0 151 40.5 275t109 220t159.5 161.5t193 99.5l34 -43q-29 -29 -54 -60t-46 -70.5t-37.5 -91t-27.5 -121t-17 -160.5t-6 -210q0 -154 16.5 -263t43 -182.5t60 -117 t67.5 -65.5t66 -28.5t56 -6.5t55.5 6.5t65 28.5t66.5 65.5t58.5 117t41.5 182.5t16 263q0 135 -12 235t-31.5 171t-45 116.5t-53 72t-55 36.5t-50.5 10q-36 0 -64 -17t-47 -45.5t-29 -65t-10 -74.5zM493 1822h533v-141h-533v141z"/>
<glyph unicode="" glyph-name="omacron" horiz-adv-x="1049" d="M676 522q0 80 -5.5 154.5t-21.5 132.5t-46 92.5t-79 34.5t-79 -36.5t-46 -96t-21 -135.5t-5 -156t5 -156.5t21 -136.5t46 -96.5t79 -36.5t79 38t46 100t21.5 140t5.5 158zM61 512q0 131 38 229.5t101.5 164.5t147.5 99t176 33t176 -30.5t147.5 -93.5t101.5 -159.5 t38 -228.5q0 -131 -38 -232t-101.5 -170t-147.5 -104.5t-176 -35.5t-176 33.5t-147.5 99.5t-101.5 165t-38 230zM258 1382h533v-141h-533v141z"/>
<glyph unicode="" glyph-name="Obreve" horiz-adv-x="1473" d="M645 1178q0 -35 11 -57.5t27.5 -38t35.5 -25.5t35.5 -21t27.5 -25t11 -36q0 -37 -26 -56.5t-60 -19.5q-32 0 -59.5 20t-48 54.5t-32.5 81t-12 98.5q0 64 20 122.5t59 103t96.5 70.5t131.5 26q50 0 109 -16.5t117.5 -52.5t113 -93t97 -139t67.5 -190t25 -245 q0 -177 -52.5 -317t-142 -237.5t-207.5 -149t-250 -51.5q-131 0 -250 45t-209.5 137.5t-144 235t-53.5 337.5q0 151 40.5 275t109 220t159.5 161.5t193 99.5l34 -43q-29 -29 -54 -60t-46 -70.5t-37.5 -91t-27.5 -121t-17 -160.5t-6 -210q0 -154 16.5 -263t43 -182.5t60 -117 t67.5 -65.5t66 -28.5t56 -6.5t55.5 6.5t65 28.5t66.5 65.5t58.5 117t41.5 182.5t16 263q0 135 -12 235t-31.5 171t-45 116.5t-53 72t-55 36.5t-50.5 10q-36 0 -64 -17t-47 -45.5t-29 -65t-10 -74.5zM760 1601q-105 0 -175.5 67t-89.5 210h52q5 -21 17.5 -45t36.5 -45 t62.5 -34.5t96.5 -13.5q57 0 95.5 13.5t62.5 34.5t36.5 45t18.5 45h51q-9 -72 -32 -124t-57 -86t-78.5 -50.5t-96.5 -16.5z"/>
<glyph unicode="" glyph-name="obreve" horiz-adv-x="1049" d="M676 522q0 80 -5.5 154.5t-21.5 132.5t-46 92.5t-79 34.5t-79 -36.5t-46 -96t-21 -135.5t-5 -156t5 -156.5t21 -136.5t46 -96.5t79 -36.5t79 38t46 100t21.5 140t5.5 158zM61 512q0 131 38 229.5t101.5 164.5t147.5 99t176 33t176 -30.5t147.5 -93.5t101.5 -159.5 t38 -228.5q0 -131 -38 -232t-101.5 -170t-147.5 -104.5t-176 -35.5t-176 33.5t-147.5 99.5t-101.5 165t-38 230zM525 1161q-105 0 -175.5 67t-89.5 210h52q5 -21 17.5 -45t36.5 -45t62.5 -34.5t96.5 -13.5q57 0 95.5 13.5t62.5 34.5t36.5 45t18.5 45h51q-9 -72 -32 -124 t-57 -86t-78.5 -50.5t-96.5 -16.5z"/>
<glyph unicode="" glyph-name="Ohungarumlaut" horiz-adv-x="1473" d="M645 1178q0 -35 11 -57.5t27.5 -38t35.5 -25.5t35.5 -21t27.5 -25t11 -36q0 -37 -26 -56.5t-60 -19.5q-32 0 -59.5 20t-48 54.5t-32.5 81t-12 98.5q0 64 20 122.5t59 103t96.5 70.5t131.5 26q50 0 109 -16.5t117.5 -52.5t113 -93t97 -139t67.5 -190t25 -245 q0 -177 -52.5 -317t-142 -237.5t-207.5 -149t-250 -51.5q-131 0 -250 45t-209.5 137.5t-144 235t-53.5 337.5q0 151 40.5 275t109 220t159.5 161.5t193 99.5l34 -43q-29 -29 -54 -60t-46 -70.5t-37.5 -91t-27.5 -121t-17 -160.5t-6 -210q0 -154 16.5 -263t43 -182.5t60 -117 t67.5 -65.5t66 -28.5t56 -6.5t55.5 6.5t65 28.5t66.5 65.5t58.5 117t41.5 182.5t16 263q0 135 -12 235t-31.5 171t-45 116.5t-53 72t-55 36.5t-50.5 10q-36 0 -64 -17t-47 -45.5t-29 -65t-10 -74.5zM828 1605l145 244q16 26 36.5 40.5t43.5 14.5q32 0 54 -20.5t22 -54.5 q0 -20 -11 -39t-28 -33l-234 -176zM541 1605l145 244q16 26 36.5 40.5t43.5 14.5q32 0 54 -20.5t22 -54.5q0 -20 -11 -39t-28 -33l-233 -176z"/>
<glyph unicode="" glyph-name="ohungarumlaut" horiz-adv-x="1049" d="M676 522q0 80 -5.5 154.5t-21.5 132.5t-46 92.5t-79 34.5t-79 -36.5t-46 -96t-21 -135.5t-5 -156t5 -156.5t21 -136.5t46 -96.5t79 -36.5t79 38t46 100t21.5 140t5.5 158zM61 512q0 131 38 229.5t101.5 164.5t147.5 99t176 33t176 -30.5t147.5 -93.5t101.5 -159.5 t38 -228.5q0 -131 -38 -232t-101.5 -170t-147.5 -104.5t-176 -35.5t-176 33.5t-147.5 99.5t-101.5 165t-38 230zM592 1165l145 244q16 26 36.5 40.5t43.5 14.5q32 0 54 -20.5t22 -54.5q0 -20 -11 -39t-28 -33l-234 -176zM305 1165l145 244q16 26 36.5 40.5t43.5 14.5 q32 0 54 -20.5t22 -54.5q0 -20 -11 -39t-28 -33l-233 -176z"/>
<glyph unicode="" glyph-name="OE" horiz-adv-x="1950" d="M1786 688h-416v-391q0 -47 14 -81t41 -55q27 -22 63 -32t81 -10q51 1 102 11t97 26t82 36q38 20 61 39l39 -43q-26 -20 -68 -54t-102 -68q-62 -34 -142 -58t-182 -24q-36 0 -83 4t-96 17t-95 37t-80 64q-78 -60 -170 -91t-193 -31q-131 0 -250 45t-209 137t-144 236 q-54 142 -54 337q0 164 46 297t128 230q82 98 192 156t238 73l16 -51q-42 -26 -78 -56t-67 -68q-29 -38 -53 -88t-40 -120q-16 -69 -26 -161q-8 -92 -8 -212q0 -154 16 -263q16 -108 44 -182q26 -74 60 -118t67 -65q34 -23 66 -29t56 -6q23 0 53 6t63 26t65 61q32 40 58 108 q26 69 44 169t20 242h-155v88h155v629q-32 -3 -71 -13t-79 -26t-79 -40q-37 -23 -67 -51t-48 -60t-18 -68q0 -29 8 -45t17 -26q9 -8 19 -10l15 -3q22 -1 37 7t26 16t21 16t23 8q10 0 22 -4t23 -16q10 -10 17 -28t7 -42q1 -35 -13 -61t-36 -43t-49 -25t-55 -8q-43 1 -77 15 t-57 40q-24 26 -36 60t-12 73q0 103 58 182t160 133q104 54 246 82t312 27q81 1 158 -1q76 -2 140 -5t110 -7t67 -9q19 -5 31 -11t18 -14t8 -18t2 -25q0 -13 -2 -27t-9 -26q-5 -12 -15 -22q-10 -9 -23 -9q-8 0 -17 7q-8 7 -26 18t-48 23t-80 23t-122 18q-74 7 -178 7v-641 h416v-88z"/>
<glyph unicode="" glyph-name="oe" horiz-adv-x="1550" d="M1186 662q14 8 22 16t14 18t7 26q2 16 2 38q1 26 -5 56t-19 57t-33 45t-48 18q-36 0 -62 -22t-42 -55t-26 -77t-14 -88q-5 -44 -6 -84t-1 -69zM676 522q0 80 -6 154t-21 133q-16 59 -46 93t-79 34t-79 -36t-46 -96t-21 -136t-5 -156t5 -156t21 -137t46 -97t79 -36t79 38 t46 100q15 62 21 140t6 158zM985 459q-1 -31 9 -69t28 -76t44 -72t62 -62q34 -27 76 -43t92 -16q36 0 66 8t56 22q26 15 50 33t48 39l24 -24q-23 -31 -59 -68t-87 -69t-119 -54t-155 -22q-86 0 -164 29t-137 89q-59 -60 -133 -90t-162 -30q-92 0 -176 34t-148 99 q-64 66 -101 165q-38 99 -38 230q0 132 38 230q37 98 101 164t148 99t176 33q96 0 180 -34t146 -105q36 35 77 61t85 43t88 26t86 9q74 0 129 -16t91 -43t55 -63q18 -36 18 -74q0 -46 -27 -84t-72 -66z"/>
<glyph unicode="" glyph-name="Racute" horiz-adv-x="1618" d="M862 1495q272 0 415.5 -96.5t143.5 -276.5q0 -88 -20.5 -150.5t-57 -106t-87 -72t-109.5 -48.5q41 -11 82.5 -59t84.5 -118.5t87 -156.5t88.5 -174t90 -171t91 -148t92 -104t92.5 -39q20 0 39.5 8t30.5 16l21 -39q-20 -11 -49 -24.5t-68 -25.5t-87.5 -20.5t-107.5 -8.5 q-97 0 -175 53.5t-134 150.5q-57 100 -112 210t-109.5 220t-109 215t-109.5 197l8 41q24 -6 45 -6q32 0 58 13q44 22 71.5 71.5t41 121.5t13.5 156q0 60 -13 112.5t-36.5 92t-56.5 62t-74 22.5q-32 0 -52.5 -9.5t-32.5 -24t-16.5 -31t-4.5 -31.5v-1186q0 -77 -40.5 -112 t-123.5 -35q-84 0 -124 35t-40 112v1196q0 55 -76 55q-55 0 -111.5 -16.5t-102 -45t-74.5 -68t-29 -85.5q0 -32 8.5 -51t19.5 -28.5t22.5 -12t16.5 -2.5q25 0 41 8.5t29 18t24.5 18t26.5 8.5q12 0 25.5 -5.5t25 -17.5t19.5 -31.5t8 -47.5q0 -40 -15.5 -69t-40 -48.5t-56 -29 t-62.5 -9.5q-48 0 -86.5 16.5t-65.5 45.5t-41 68t-14 83q0 83 31 146.5t87.5 109.5t135.5 76.5t175 48.5t205.5 25.5t227.5 7.5zM705 1607l272 263q17 15 36 24.5t38 9.5q18 0 34 -8.5t28 -22.5t19 -31.5t7 -35.5q0 -26 -17.5 -45.5t-41.5 -30.5l-355 -151z"/>
<glyph unicode="" glyph-name="racute" horiz-adv-x="813" d="M444 827q38 58 81 105q18 20 39 39t43.5 34t46.5 24t48 9q51 0 80 -30.5t29 -85.5q0 -34 -5.5 -65.5t-21.5 -76.5h-28q-6 31 -28 51.5t-64 20.5q-31 0 -61 -11.5t-58.5 -28.5t-54 -37t-46.5 -38v-649q0 -13 -4 -31t-19.5 -34t-46 -27.5t-83.5 -11.5t-83.5 12.5 t-46.5 29.5t-20 35t-4 29v772q0 29 -13.5 50.5t-45.5 21.5q-17 0 -29 -6t-26 -17l-21 25q23 19 51.5 37.5t61.5 32.5t71 23t80 9q43 0 73.5 -11.5t50 -30t30.5 -41.5t16.5 -46.5t6.5 -45t1 -36.5zM252 1167l272 263q17 15 36 24.5t38 9.5q18 0 34 -8.5t28 -22.5t19 -31.5 t7 -35.5q0 -26 -17.5 -45.5t-41.5 -30.5l-355 -151z"/>
<glyph unicode="" glyph-name="Rcommaaccent" horiz-adv-x="1618" d="M862 1495q272 0 415.5 -96.5t143.5 -276.5q0 -88 -20.5 -150.5t-57 -106t-87 -72t-109.5 -48.5q41 -11 82.5 -59t84.5 -118.5t87 -156.5t88.5 -174t90 -171t91 -148t92 -104t92.5 -39q20 0 39.5 8t30.5 16l21 -39q-20 -11 -49 -24.5t-68 -25.5t-87.5 -20.5t-107.5 -8.5 q-97 0 -175 53.5t-134 150.5q-57 100 -112 210t-109.5 220t-109 215t-109.5 197l8 41q24 -6 45 -6q32 0 58 13q44 22 71.5 71.5t41 121.5t13.5 156q0 60 -13 112.5t-36.5 92t-56.5 62t-74 22.5q-32 0 -52.5 -9.5t-32.5 -24t-16.5 -31t-4.5 -31.5v-1186q0 -77 -40.5 -112 t-123.5 -35q-84 0 -124 35t-40 112v1196q0 55 -76 55q-55 0 -111.5 -16.5t-102 -45t-74.5 -68t-29 -85.5q0 -32 8.5 -51t19.5 -28.5t22.5 -12t16.5 -2.5q25 0 41 8.5t29 18t24.5 18t26.5 8.5q12 0 25.5 -5.5t25 -17.5t19.5 -31.5t8 -47.5q0 -40 -15.5 -69t-40 -48.5t-56 -29 t-62.5 -9.5q-48 0 -86.5 16.5t-65.5 45.5t-41 68t-14 83q0 83 31 146.5t87.5 109.5t135.5 76.5t175 48.5t205.5 25.5t227.5 7.5zM871 -446q28 12 45.5 23.5t27.5 23t13.5 22.5t3.5 23q0 19 -13 32.5t-29 27t-29 31t-13 44.5q0 16 7 33t21.5 31t36.5 23t52 9q31 0 54 -11 t38 -29t22.5 -40.5t7.5 -44.5q0 -40 -17 -74.5t-47 -63t-72 -51.5t-93 -40z"/>
<glyph unicode="" glyph-name="rcommaaccent" horiz-adv-x="813" d="M444 827q38 58 81 105q18 20 39 39t43.5 34t46.5 24t48 9q51 0 80 -30.5t29 -85.5q0 -34 -5.5 -65.5t-21.5 -76.5h-28q-6 31 -28 51.5t-64 20.5q-31 0 -61 -11.5t-58.5 -28.5t-54 -37t-46.5 -38v-649q0 -13 -4 -31t-19.5 -34t-46 -27.5t-83.5 -11.5t-83.5 12.5 t-46.5 29.5t-20 35t-4 29v772q0 29 -13.5 50.5t-45.5 21.5q-17 0 -29 -6t-26 -17l-21 25q23 19 51.5 37.5t61.5 32.5t71 23t80 9q43 0 73.5 -11.5t50 -30t30.5 -41.5t16.5 -46.5t6.5 -45t1 -36.5zM171 -446q28 12 45.5 23.5t27.5 23t13.5 22.5t3.5 23q0 19 -13 32.5t-29 27 t-29 31t-13 44.5q0 16 7 33t21.5 31t36.5 23t52 9q31 0 54 -11t38 -29t22.5 -40.5t7.5 -44.5q0 -40 -17 -74.5t-47 -63t-72 -51.5t-93 -40z"/>
<glyph unicode="" glyph-name="Rcaron" horiz-adv-x="1618" d="M862 1495q272 0 415.5 -96.5t143.5 -276.5q0 -88 -20.5 -150.5t-57 -106t-87 -72t-109.5 -48.5q41 -11 82.5 -59t84.5 -118.5t87 -156.5t88.5 -174t90 -171t91 -148t92 -104t92.5 -39q20 0 39.5 8t30.5 16l21 -39q-20 -11 -49 -24.5t-68 -25.5t-87.5 -20.5t-107.5 -8.5 q-97 0 -175 53.5t-134 150.5q-57 100 -112 210t-109.5 220t-109 215t-109.5 197l8 41q24 -6 45 -6q32 0 58 13q44 22 71.5 71.5t41 121.5t13.5 156q0 60 -13 112.5t-36.5 92t-56.5 62t-74 22.5q-32 0 -52.5 -9.5t-32.5 -24t-16.5 -31t-4.5 -31.5v-1186q0 -77 -40.5 -112 t-123.5 -35q-84 0 -124 35t-40 112v1196q0 55 -76 55q-55 0 -111.5 -16.5t-102 -45t-74.5 -68t-29 -85.5q0 -32 8.5 -51t19.5 -28.5t22.5 -12t16.5 -2.5q25 0 41 8.5t29 18t24.5 18t26.5 8.5q12 0 25.5 -5.5t25 -17.5t19.5 -31.5t8 -47.5q0 -40 -15.5 -69t-40 -48.5t-56 -29 t-62.5 -9.5q-48 0 -86.5 16.5t-65.5 45.5t-41 68t-14 83q0 83 31 146.5t87.5 109.5t135.5 76.5t175 48.5t205.5 25.5t227.5 7.5zM805 1581l-225 293l31 30l252 -172l252 172l30 -30l-225 -293h-115z"/>
<glyph unicode="" glyph-name="rcaron" horiz-adv-x="813" d="M444 827q38 58 81 105q18 20 39 39t43.5 34t46.5 24t48 9q51 0 80 -30.5t29 -85.5q0 -34 -5.5 -65.5t-21.5 -76.5h-28q-6 31 -28 51.5t-64 20.5q-31 0 -61 -11.5t-58.5 -28.5t-54 -37t-46.5 -38v-649q0 -13 -4 -31t-19.5 -34t-46 -27.5t-83.5 -11.5t-83.5 12.5 t-46.5 29.5t-20 35t-4 29v772q0 29 -13.5 50.5t-45.5 21.5q-17 0 -29 -6t-26 -17l-21 25q23 19 51.5 37.5t61.5 32.5t71 23t80 9q43 0 73.5 -11.5t50 -30t30.5 -41.5t16.5 -46.5t6.5 -45t1 -36.5zM352 1141l-225 293l31 30l252 -172l252 172l30 -30l-225 -293h-115z"/>
<glyph unicode="" glyph-name="Sacute" horiz-adv-x="1053" d="M436 -145q40 0 79 14.5t69.5 48t49.5 87.5t19 132q0 84 -41.5 163t-104 155.5t-135 152t-135 154t-104 162t-41.5 174.5t33.5 164.5t91 125t134 79.5t163.5 28q93 0 165.5 -19.5t123 -53t76.5 -79t26 -96.5q0 -24 -7 -49.5t-22 -46.5t-38 -35t-54 -14q-37 0 -54.5 22.5 t-26 55.5t-14.5 72.5t-19 72.5t-39 55.5t-76 22.5q-27 0 -53.5 -12t-48 -36.5t-34.5 -62.5t-13 -90q0 -60 25 -117t66 -112.5t93.5 -111t107 -112t107 -116t93.5 -123.5t66 -134t25 -147q0 -113 -43.5 -201.5t-118 -149t-174.5 -92.5t-213 -32q-102 0 -180.5 25.5 t-132.5 67.5t-81.5 95.5t-27.5 110.5q0 24 7.5 51.5t22 50.5t36.5 38.5t51 15.5q30 0 48.5 -15t29.5 -40t18 -57t15 -65t20 -65t33 -57t54 -40t83 -15zM348 1607l272 263q17 15 36 24.5t38 9.5q18 0 34 -8.5t28 -22.5t19 -31.5t7 -35.5q0 -26 -17.5 -45.5t-41.5 -30.5 l-355 -151z"/>
</font>
</defs>
</svg>
